<?xml version="1.0" standalone="no"?>
<!DOCTYPE svg PUBLIC "-//W3C//DTD SVG 1.1//EN" "http://www.w3.org/Graphics/SVG/1.1/DTD/svg11.dtd" >
<svg xmlns="http://www.w3.org/2000/svg" xmlns:xlink="http://www.w3.org/1999/xlink" version="1.1">
<metadata>
Created by FontForge 20170731 at Tue Jan 25 05:03:15 2022
 By Aleksey,,,
Copyright 2020 Dinamo (Johannes Breyer, Fabian Harb) &#38; Kasper-Florio, St.Gallen, Switzerland. All rights reserved.
</metadata>
<defs>
<font id="ABCMonumentGrotesk-Regular" horiz-adv-x="1269" >
  <font-face 
    font-family="ABC Monument Grotesk"
    font-weight="400"
    font-stretch="normal"
    units-per-em="2048"
    panose-1="2 11 5 4 4 2 2 6 2 3"
    ascent="1628"
    descent="-420"
    x-height="1024"
    cap-height="1434"
    bbox="-365 -485 2353 1890"
    underline-thickness="102"
    underline-position="-307"
    unicode-range="U+0020-FB02"
  />
<missing-glyph horiz-adv-x="1351" 
d="M1188 0h-1024v1434h1024v-1434zM317 1280v-1126h717v1126h-717z" />
    <glyph glyph-name="fi" unicode="fi" horiz-adv-x="1069" 
d="M383 0h-182v870h-148v154h148v180q0 125 66 182.5t208 57.5q55 0 113 -10l-4 -164q-55 10 -99 10q-56 0 -79 -15.5t-23 -64.5v-176h209v-154h-209v-870zM934 1217h-184v217h184v-217zM934 0h-184v1024h184v-1024z" />
    <glyph glyph-name="fl" unicode="fl" horiz-adv-x="1069" 
d="M383 0h-182v870h-148v154h148v180q0 125 66 182.5t208 57.5q55 0 113 -10l-4 -164q-55 10 -99 10q-56 0 -79 -15.5t-23 -64.5v-176h209v-154h-209v-870zM934 0h-184v1434h184v-1434z" />
    <glyph glyph-name="f_f" unicode="ff" horiz-adv-x="1159" 
d="M928 1200v-176h209v-154h-209v-870h-183v870h-362v-870h-182v870h-148v154h148v180q0 125 66 182.5t208 57.5q55 0 113 -10l-4 -164q-55 10 -99 10q-56 0 -79 -15.5t-23 -64.5v-176h362v180q0 124 66 182t209 58q56 0 113 -10l-5 -164q-55 10 -98 10q-56 0 -79 -15.5
t-23 -64.5z" />
    <glyph glyph-name="f_f_i" unicode="ffi" horiz-adv-x="1609" 
d="M928 1200v-176h209v-154h-209v-870h-183v870h-362v-870h-182v870h-148v154h148v180q0 125 66 182.5t208 57.5q55 0 113 -10l-4 -164q-55 10 -99 10q-56 0 -79 -15.5t-23 -64.5v-176h362v180q0 124 66 182t209 58q56 0 113 -10l-5 -164q-55 10 -98 10q-56 0 -79 -15.5
t-23 -64.5zM1290 1217v217h185v-217h-185zM1475 0h-185v1024h185v-1024z" />
    <glyph glyph-name="f_f_l" unicode="ffl" horiz-adv-x="1609" 
d="M928 1200v-176h209v-154h-209v-870h-183v870h-362v-870h-182v870h-148v154h148v180q0 125 66 182.5t208 57.5q55 0 113 -10l-4 -164q-55 10 -99 10q-56 0 -79 -15.5t-23 -64.5v-176h362v180q0 124 66 182t209 58q56 0 113 -10l-5 -164q-55 10 -98 10q-56 0 -79 -15.5
t-23 -64.5zM1290 0v1434h185v-1434h-185z" />
    <glyph glyph-name=".notdef" horiz-adv-x="1351" 
d="M1188 0h-1024v1434h1024v-1434zM317 1280v-1126h717v1126h-717z" />
    <glyph glyph-name=".null" horiz-adv-x="0" 
 />
    <glyph glyph-name="nonmarkingreturn" horiz-adv-x="682" 
 />
    <glyph glyph-name="space" unicode=" " horiz-adv-x="458" 
 />
    <glyph glyph-name="exclam" unicode="!" horiz-adv-x="491" 
d="M311 342h-133l-24 588v504h182v-504zM350 0h-207v217h207v-217z" />
    <glyph glyph-name="quotedbl" unicode="&#x22;" horiz-adv-x="671" 
d="M260 946h-131q0 6 -11 205.5t-12 282.5h179q-2 -129 -25 -488zM543 946h-131q0 6 -11 205.5t-12 282.5h178q-2 -149 -24 -488z" />
    <glyph glyph-name="numbersign" unicode="#" horiz-adv-x="1185" 
d="M1122 1018l-20 -150h-184l-46 -301h187l-21 -149h-186l-61 -418h-162l61 418h-272l-62 -418h-161l61 418h-193l21 149h192l46 301h-195l23 150h194l55 385h162l-55 -385h272l56 385h161l-55 -385h182zM481 868l-45 -301h275l43 301h-273z" />
    <glyph glyph-name="dollar" unicode="$" horiz-adv-x="1302" 
d="M1235 418q0 -92 -28.5 -165.5t-75.5 -122t-113.5 -82t-136.5 -50t-150 -21.5v-116h-153v119q-108 10 -199 44.5t-162 93.5t-111 148.5t-40 200.5l196 20q0 -148 86.5 -239.5t229.5 -112.5v514h-5q-65 16 -113 30t-107 37.5t-99.5 53t-76.5 69.5t-54.5 95t-18.5 121
q0 81 28 147.5t74 111.5t108 77t128 47.5t136 19.5v115h153v-121q416 -53 453 -451l-193 -34q-3 130 -70.5 213.5t-189.5 111.5v-477q69 -11 115 -20.5t103.5 -26t95.5 -35.5t77 -48.5t61.5 -66t37 -87.5t14.5 -113zM295 1063q0 -46 22 -82.5t64 -62t88.5 -43t108.5 -31.5
v459q-71 -4 -133 -30t-106 -81t-44 -129zM731 618v-483q68 5 122.5 22.5t98 48.5t67 81t23.5 116q0 32 -9.5 58.5t-23 45.5t-39 35t-47.5 26t-59 20.5t-63.5 16t-69.5 13.5z" />
    <glyph glyph-name="percent" unicode="%" horiz-adv-x="1683" 
d="M381 621q-149 0 -228 105.5t-79 295.5q0 185 81.5 295t225.5 110q141 0 224 -111t83 -294q0 -181 -82 -291t-225 -110zM530 0h-172l787 1403h170zM381 752q71 0 104 47q43 60 43 223q0 147 -32.5 209.5t-114.5 62.5q-72 0 -109 -49q-43 -64 -43 -223q0 -143 35.5 -206.5
t116.5 -63.5zM1303 -25q-149 0 -228.5 106t-79.5 296q0 185 81.5 295t226.5 110q141 0 224 -111t83 -294q0 -181 -82 -291.5t-225 -110.5zM1303 106q71 0 104 48q43 60 43 223q0 147 -32.5 209.5t-114.5 62.5q-72 0 -109 -49q-43 -64 -43 -223q0 -143 35.5 -207t116.5 -64z
" />
    <glyph glyph-name="ampersand" unicode="&#x26;" horiz-adv-x="1290" 
d="M1038 332l287 -332h-233l-150 180q-80 -100 -188.5 -152.5t-225.5 -52.5q-99 0 -180 28.5t-132 72.5t-85.5 100t-48.5 108t-14 99q0 79 25 146t73.5 119.5t104 92t130.5 78.5q-84 106 -119.5 178.5t-35.5 157.5q0 124 95.5 213.5t250.5 89.5q150 0 245 -82.5t95 -222.5
q0 -119 -76 -213.5t-194 -163.5l249 -297q39 106 45 223l179 -24q-6 -77 -23 -147.5t-33 -110t-41 -88.5zM592 1311q-79 0 -122.5 -44t-43.5 -120q0 -47 30 -104t103 -144q38 25 65 46t61 53.5t52.5 70.5t18.5 78q0 66 -40.5 115t-123.5 49zM535 135q179 0 301 170l-330 395
q-49 -27 -77 -45t-64.5 -47t-55.5 -57t-33 -68t-14 -86q0 -118 81.5 -190t191.5 -72z" />
    <glyph glyph-name="quotesingle" unicode="'" horiz-adv-x="389" 
d="M260 946h-131q0 6 -11 205.5t-12 282.5h179q-2 -129 -25 -488z" />
    <glyph glyph-name="parenleft" unicode="(" horiz-adv-x="561" 
d="M520 -328h-147q-144 240 -218.5 464t-74.5 470q0 238 77 478t216 436h149l2 -7q-131 -221 -190.5 -443t-59.5 -464q0 -255 60.5 -481t187.5 -447z" />
    <glyph glyph-name="parenright" unicode=")" horiz-adv-x="561" 
d="M188 -328h-147l-2 6q127 221 187.5 447t60.5 481q0 242 -59.5 464t-190.5 443l2 7h149q139 -196 216 -436t77 -478q0 -246 -74.5 -470t-218.5 -464z" />
    <glyph glyph-name="asterisk" unicode="*" horiz-adv-x="729" 
d="M621 1278l34 -109l-196 -61l131 -186l-94 -66l-131 197l-132 -195l-94 66l129 184l-194 61l35 109l198 -70v226h113v-226z" />
    <glyph glyph-name="plus" unicode="+" horiz-adv-x="1036" 
d="M592 199h-146v389h-387v137h387v391h146v-391h385v-137h-385v-389z" />
    <glyph glyph-name="comma" unicode="," horiz-adv-x="452" 
d="M125 -268v102q92 33 94 166h-96v221h207v-225q0 -108 -54 -176.5t-151 -87.5z" />
    <glyph glyph-name="hyphen" unicode="-" horiz-adv-x="811" 
d="M692 498h-573v164h573v-164z" />
    <glyph glyph-name="period" unicode="." horiz-adv-x="436" 
d="M322 0h-207v217h207v-217z" />
    <glyph glyph-name="slash" unicode="/" horiz-adv-x="860" 
d="M221 -72h-184l602 1577h184z" />
    <glyph glyph-name="zero" unicode="0" horiz-adv-x="1202" 
d="M600 -25q-248 0 -377 184.5t-129 542.5q0 217 54 377.5t169.5 254t282.5 93.5t283 -94t170.5 -254.5t54.5 -376.5q0 -219 -55 -380t-170.5 -254t-282.5 -93zM600 129q136 0 209 86q56 67 79 186.5t23 300.5q0 115 -8 200t-29 157t-56 117t-89 69.5t-129 24.5
q-173 0 -246 -142q-63 -129 -63 -426q0 -118 8.5 -205t29.5 -159t56 -116.5t88.5 -68.5t126.5 -24z" />
    <glyph glyph-name="one" unicode="1" horiz-adv-x="741" 
d="M428 1403h143v-1403h-182v1077q-76 -94 -297 -94q-23 0 -55 4v158q345 0 391 258z" />
    <glyph glyph-name="two" unicode="2" horiz-adv-x="1085" 
d="M262 162h729v-162h-936q7 99 33.5 184t62.5 146t89.5 117t102 93t114.5 78q17 11 60 37t68.5 43t64 45t62.5 54.5t48 59.5t35.5 72t11.5 81q0 128 -62.5 196t-181.5 68q-70 0 -121.5 -22.5t-79 -55t-44 -78t-21 -80t-4.5 -73.5l-182 28q-1 57 11.5 113t45 115.5t82.5 104
t133 73t188 28.5q191 0 304.5 -113.5t113.5 -305.5q0 -70 -22 -133t-52.5 -107.5t-82.5 -91t-92 -74t-101 -65.5q-66 -40 -101 -62.5t-90.5 -64t-86.5 -74.5t-60 -79.5t-39 -94.5z" />
    <glyph glyph-name="three" unicode="3" horiz-adv-x="1110" 
d="M795 756q76 -22 128.5 -78.5t75.5 -125.5t23 -146q0 -105 -37.5 -188t-103.5 -135.5t-151.5 -80t-184.5 -27.5q-221 0 -344.5 126.5t-120.5 328.5l178 27q-2 -143 71.5 -235.5t215.5 -92.5q141 0 218 71t77 203q0 129 -77.5 188.5t-205.5 59.5h-115v164h90q106 0 179 59
t73 162q0 111 -63.5 175.5t-177.5 64.5q-56 0 -100.5 -16.5t-71.5 -44t-46.5 -59.5t-28 -68t-11.5 -63.5t-2 -51.5l-185 28q3 188 127.5 307t317.5 119q86 0 161 -23.5t134 -70.5t93 -123.5t34 -175.5q0 -85 -45.5 -160.5t-124.5 -117.5z" />
    <glyph glyph-name="four" unicode="4" horiz-adv-x="1071" 
d="M825 477h181v-158h-181v-319h-182v319h-604v181l635 903h151v-926zM406 477h237v361q0 184 4 286q-75 -132 -162 -250l-127 -184q-77 -112 -151 -217q140 4 199 4z" />
    <glyph glyph-name="five" unicode="5" horiz-adv-x="1093" 
d="M559 924q95 0 176 -27.5t145.5 -83t101 -147.5t36.5 -213q0 -134 -54.5 -240.5t-168.5 -172t-273 -65.5q-199 0 -321.5 125t-122.5 326l178 27q0 -155 78 -239.5t196 -84.5q155 0 234.5 85t79.5 253q0 142 -81 218.5t-231 76.5q-90 0 -155 -31.5t-115 -97.5l-156 12
l109 758h729v-162h-579l-62 -414q90 97 256 97z" />
    <glyph glyph-name="six" unicode="6" horiz-adv-x="1138" 
d="M618 915q197 0 315 -130t118 -332q0 -67 -14.5 -131t-50 -128t-88 -112t-134.5 -77.5t-184 -29.5q-86 0 -157 22.5t-120.5 60.5t-87 93t-59.5 113.5t-36 129.5t-19 133.5t-5 131.5q0 142 15.5 255.5t52 211t95 162.5t147.5 102t206 37q94 0 168.5 -29t121.5 -81
t75 -115.5t39 -138.5l-170 -29q-10 109 -67 174.5t-173 65.5q-340 0 -340 -555q56 99 149 147.5t203 48.5zM578 129q152 0 225.5 79t73.5 247q0 303 -289 303q-138 0 -217.5 -84.5t-79.5 -229.5q0 -139 72.5 -227t214.5 -88z" />
    <glyph glyph-name="seven" unicode="7" horiz-adv-x="952" 
d="M41 1241v162h879v-170q-224 -215 -371 -551t-164 -682h-190q22 340 161 665t373 576h-688z" />
    <glyph glyph-name="eight" unicode="8" horiz-adv-x="1140" 
d="M819 764q234 -74 234 -346q0 -211 -133 -327t-349 -116q-224 0 -353.5 119.5t-129.5 323.5q0 274 231 346q-80 42 -126 116t-46 177q0 76 24 140.5t73 117t133.5 82.5t195.5 30q110 0 193 -30t131.5 -82.5t72 -117t23.5 -140.5q0 -206 -174 -293zM571 1274
q-119 0 -183 -60.5t-64 -169.5q0 -106 65 -165.5t182 -59.5q116 0 181 59.5t65 165.5q0 110 -64.5 170t-181.5 60zM571 129q136 0 218.5 77.5t82.5 205.5q0 121 -82 191.5t-219 70.5q-135 0 -219 -69.5t-84 -192.5q0 -127 83 -205t220 -78z" />
    <glyph glyph-name="nine" unicode="9" horiz-adv-x="1138" 
d="M559 1427q86 0 157 -23t120 -61t86.5 -93t60 -114t36 -130t18.5 -134t5 -133q0 -140 -15.5 -252.5t-52 -210t-95 -162.5t-147.5 -102t-206 -37q-95 0 -169.5 30.5t-121.5 85t-73.5 122t-34.5 147.5l166 29q7 -112 65.5 -186t173.5 -74q164 0 248 134t90 409
q-133 -197 -350 -197q-198 0 -315 132.5t-117 338.5q0 67 14.5 132t50 129t88 112t134.5 78t184 30zM551 635q138 0 217.5 86.5t79.5 234.5q0 139 -72.5 228.5t-214.5 89.5q-151 0 -225 -82t-74 -250q0 -307 289 -307z" />
    <glyph glyph-name="colon" unicode=":" horiz-adv-x="444" 
d="M326 735h-207v217h207v-217zM326 0h-207v217h207v-217z" />
    <glyph glyph-name="semicolon" unicode=";" horiz-adv-x="444" 
d="M326 735h-207v217h207v-217zM121 -268v102q92 33 94 166h-96v221h207v-225q0 -108 -54 -176.5t-151 -87.5z" />
    <glyph glyph-name="less" unicode="&#x3c;" horiz-adv-x="993" 
d="M879 342v-162l-818 346v160l818 346v-162l-437 -178q-52 -22 -247 -86q163 -52 245 -86z" />
    <glyph glyph-name="equal" unicode="=" horiz-adv-x="1165" 
d="M1040 756h-915v137h915v-137zM1040 428h-915v137h915v-137z" />
    <glyph glyph-name="greater" unicode="&#x3e;" horiz-adv-x="993" 
d="M932 526l-817 -346v162l438 178q78 32 246 86q-200 66 -248 86l-436 178v162l817 -346v-160z" />
    <glyph glyph-name="question" unicode="?" horiz-adv-x="1015" 
d="M596 342h-174v119q0 91 39.5 165t136.5 165q80 73 106 109q50 69 50 149q0 256 -244 256q-272 0 -272 -304l-183 31q0 56 12.5 111t46 113t83.5 102t133 72t188 28q190 0 304 -111.5t114 -299.5q0 -61 -12 -109.5t-40 -89.5t-54 -69.5t-72 -69.5q-42 -38 -62.5 -59
t-48 -58.5t-39.5 -80t-12 -95.5v-74zM616 0h-206v217h206v-217z" />
    <glyph glyph-name="at" unicode="@" horiz-adv-x="1595" 
d="M842 -88q150 0 286 58.5t209 170.5l140 -37q-96 -160 -272 -246.5t-374 -86.5q-209 0 -380 93t-271 264t-100 386q0 211 97.5 380.5t269 265t382.5 95.5q190 0 345.5 -77.5t246 -217.5t90.5 -315q0 -109 -32.5 -202t-84 -155t-114.5 -106t-123.5 -64t-112.5 -20
q-55 0 -94 29t-43 92q-92 -119 -225 -119q-126 0 -196 78.5t-70 216.5q0 104 27.5 198t79 168t134 117.5t185.5 43.5q176 0 211 -154l37 109h131l-158 -519q-7 -22 -9.5 -32.5t-6.5 -28t-2.5 -26t5 -18t13 -13.5t24.5 -4q60 0 122 55.5t103.5 149.5t41.5 194
q0 113 -43.5 206.5t-116.5 154t-167 93.5t-198 33q-170 0 -304.5 -82t-207.5 -222.5t-73 -311.5q0 -173 80 -309.5t216 -210.5t302 -74zM702 246q65 0 120.5 35t90.5 89.5t54.5 118.5t19.5 125q0 166 -156 166q-67 0 -119.5 -33.5t-83 -88t-46 -117t-15.5 -127.5
q0 -84 32.5 -126t102.5 -42z" />
    <glyph glyph-name="A" unicode="A" horiz-adv-x="1327" 
d="M1321 0h-195l-159 428h-609l-157 -428h-197l561 1434h197zM580 1024l-160 -432h485l-162 432q-37 98 -81 231h-3q-50 -151 -79 -231z" />
    <glyph glyph-name="B" unicode="B" horiz-adv-x="1349" 
d="M1026 733q122 -45 179 -125t57 -213q0 -61 -11.5 -112t-30 -88.5t-48.5 -67.5t-61.5 -50t-75 -35t-81.5 -23t-88.5 -12.5t-90 -5.5t-91.5 -1h-514v1434h500q61 0 108 -2.5t106 -12t102 -25.5t86.5 -45.5t71 -70.5t45 -101.5t17.5 -136.5q0 -102 -48 -182t-132 -125z
M655 1274h-301v-463h299q38 0 59.5 0.5t58 2.5t58 6t52 12t48.5 19t39 28.5t32 40t18.5 53t7.5 67.5q0 48 -12.5 85.5t-30 62t-49.5 41.5t-59 25.5t-71.5 13t-72.5 5.5t-76 1zM354 158h330q168 0 235 17q129 32 155 149q7 32 7 71q0 38 -6 69.5t-19.5 55.5t-28 43t-38 32.5
t-43 23.5t-49.5 15.5t-50 9.5t-53.5 5t-50.5 1.5t-49 0.5h-340v-493z" />
    <glyph glyph-name="C" unicode="C" horiz-adv-x="1439" 
d="M766 -25q-326 0 -503 192.5t-177 549.5q0 219 77 384.5t232.5 261t370.5 95.5q149 0 273 -49t216 -151t131 -248l-202 -39q-17 66 -51 124t-85 104t-122.5 72.5t-155.5 26.5q-258 0 -373 -161q-102 -143 -102 -420q0 -276 102 -422q55 -78 150.5 -119t218.5 -41
q164 0 269.5 84t152.5 219l211 -55q-87 -198 -248 -303t-385 -105z" />
    <glyph glyph-name="D" unicode="D" horiz-adv-x="1423" 
d="M657 0h-487v1434h487q213 0 368 -90t233.5 -251t78.5 -376q0 -337 -180.5 -527t-499.5 -190zM354 1274v-1114h283q139 0 239 39.5t150 111.5q54 77 78 172t24 234q0 140 -24 233t-78 170q-52 75 -153.5 114.5t-235.5 39.5h-283z" />
    <glyph glyph-name="E" unicode="E" horiz-adv-x="1191" 
d="M1096 0h-926v1434h926v-166h-742v-461h666v-166h-666v-475h742v-166z" />
    <glyph glyph-name="F" unicode="F" horiz-adv-x="1148" 
d="M354 0h-184v1434h926v-166h-742v-461h666v-166h-666v-641z" />
    <glyph glyph-name="G" unicode="G" horiz-adv-x="1501" 
d="M782 586v174h611v-760h-152l-16 197q-73 -109 -190.5 -165.5t-268.5 -56.5q-326 0 -503 192.5t-177 549.5q0 219 77 384.5t232.5 261t370.5 95.5q148 0 270.5 -49t212.5 -151t129 -248l-200 -39q-39 140 -143 233.5t-265 93.5q-258 0 -373 -161q-104 -146 -104 -420
q0 -277 104 -426q110 -156 389 -156q204 0 311.5 114.5t110.5 336.5h-426z" />
    <glyph glyph-name="H" unicode="H" horiz-adv-x="1431" 
d="M356 0h-186v1434h186v-627h719v627h187v-1434h-187v641h-719v-641z" />
    <glyph glyph-name="I" unicode="I" horiz-adv-x="526" 
d="M356 0h-186v1434h186v-1434z" />
    <glyph glyph-name="J" unicode="J" horiz-adv-x="1030" 
d="M469 -25q-198 0 -308 112.5t-110 313.5v121h187v-92q0 -53 4.5 -92.5t19 -79.5t40 -65.5t68.5 -41.5t103 -16q52 0 91 14.5t62 38t37 59t18.5 72.5t4.5 84v1031h186v-1059q0 -58 -11 -111t-39.5 -107t-72.5 -93.5t-116 -64t-164 -24.5z" />
    <glyph glyph-name="K" unicode="K" horiz-adv-x="1284" 
d="M1300 0h-231l-508 705l-205 -207v-498h-186v1434h186v-691l682 691h248l-592 -594z" />
    <glyph glyph-name="L" unicode="L" horiz-adv-x="1116" 
d="M1096 0h-926v1434h184v-1272h742v-162z" />
    <glyph glyph-name="M" unicode="M" horiz-adv-x="1777" 
d="M352 0h-182v1434h268l303 -811q85 -225 148 -416h2q67 204 145 416l303 811h269v-1434h-183v866q0 114 11 328h-2q-79 -229 -117 -328l-334 -866h-188l-334 866q-27 70 -117 328h-2q10 -195 10 -328v-866z" />
    <glyph glyph-name="N" unicode="N" horiz-adv-x="1431" 
d="M352 0h-182v1434h199l538 -867q72 -117 180 -323h3q-11 218 -11 364v826h183v-1434h-209l-533 866q-66 106 -176 324h-2q10 -228 10 -365v-825z" />
    <glyph glyph-name="O" unicode="O" horiz-adv-x="1527" 
d="M766 -25q-326 0 -503 192.5t-177 549.5q0 219 77 384.5t232.5 261t370.5 95.5q212 0 367 -95.5t233 -262t78 -383.5q0 -220 -78 -386.5t-232.5 -261t-367.5 -94.5zM766 135q246 0 358 160q111 157 111 422q0 263 -111 420q-112 161 -350 161q-131 0 -225.5 -43.5
t-145.5 -109.5q-108 -142 -108 -428q0 -142 29 -253t73 -169q125 -160 369 -160z" />
    <glyph glyph-name="P" unicode="P" horiz-adv-x="1271" 
d="M354 0h-184v1434h483q61 0 112.5 -3.5t111.5 -15t107 -30t92.5 -52t75.5 -78t48.5 -110t18.5 -146.5q0 -78 -18.5 -141.5t-48.5 -106.5t-76 -74.5t-92.5 -49.5t-107.5 -28.5t-112 -13.5t-113 -3h-297v-582zM354 1274v-535h297q45 0 77 1.5t76 7t74 15.5t62.5 29.5
t52 46.5t32.5 67.5t13 92.5q0 56 -13 100t-32 72.5t-52.5 49t-62 30.5t-74 15.5t-74.5 6.5t-77 1h-299z" />
    <glyph glyph-name="Q" unicode="Q" horiz-adv-x="1531" 
d="M1444 717q0 -373 -211 -572l180 -143l-104 -127l-213 172q-136 -72 -330 -72q-326 0 -503 192.5t-177 549.5q0 219 77 384.5t232.5 261t370.5 95.5q212 0 367 -95.5t233 -262t78 -383.5zM397 293q125 -160 369 -160q118 0 190 27l-176 141l107 129l211 -170
q68 65 102.5 192t34.5 265q0 261 -111 418q-112 161 -350 161q-131 0 -225.5 -43.5t-145.5 -109.5q-108 -142 -108 -426q0 -142 29 -254t73 -170z" />
    <glyph glyph-name="R" unicode="R" horiz-adv-x="1355" 
d="M1186 358q0 -135 16 -212.5t66 -139.5l-2 -6h-203q-36 55 -49 123.5t-13 214.5q0 144 -70 200t-257 56h-320v-594h-184v1434h485q63 0 112 -3t110.5 -13t107.5 -27.5t92.5 -49.5t76.5 -75.5t48.5 -108t18.5 -145.5q0 -128 -62.5 -222.5t-159.5 -127.5q187 -71 187 -304z
M354 752h299q53 0 90.5 2.5t86.5 10t82.5 24.5t64 43.5t46 70t15.5 101.5q0 44 -8 80.5t-19.5 62.5t-33.5 47t-40.5 34t-50.5 22t-53.5 14t-59.5 7t-58.5 2.5t-59.5 0.5h-301v-522z" />
    <glyph glyph-name="S" unicode="S" horiz-adv-x="1308" 
d="M662 -25q-120 0 -225.5 30.5t-188 89.5t-130.5 155t-48 217l196 20q0 -167 109 -261.5t280 -94.5q84 0 151 13.5t123 43.5t87 84.5t31 130.5q0 48 -21 84t-51.5 57t-82.5 38t-95.5 25t-110.5 20t-108 22q-65 16 -113 30t-107 37.5t-99.5 53t-76.5 69.5t-54.5 95
t-18.5 121q0 85 30.5 154t80.5 114.5t117 76.5t136.5 44.5t142.5 13.5q92 0 171 -14.5t149.5 -48.5t122.5 -86t86 -130t43 -178l-193 -34q-3 161 -104 249.5t-279 88.5q-54 0 -107.5 -14.5t-100.5 -43t-76 -76.5t-29 -108q0 -39 16.5 -72t48 -57t68 -42t87 -32t93.5 -23
t99 -18t93.5 -15.5t87.5 -18t83 -23t72.5 -29t65.5 -37.5t52 -48.5t41 -61.5t24 -75.5t9 -92.5q0 -101 -34 -179.5t-89 -127t-132 -80t-155.5 -44t-166.5 -12.5z" />
    <glyph glyph-name="T" unicode="T" horiz-adv-x="1173" 
d="M680 0h-186v1272h-478v162h1141v-162h-477v-1272z" />
    <glyph glyph-name="U" unicode="U" horiz-adv-x="1431" 
d="M715 -25q-273 0 -416 128t-143 370v961h186v-961q0 -83 30 -148t82 -105t118.5 -60.5t142.5 -20.5t142.5 20.5t119 60.5t83 105.5t30.5 147.5v961h186v-961q0 -242 -144 -370t-417 -128z" />
    <glyph glyph-name="V" unicode="V" horiz-adv-x="1257" 
d="M725 0h-193l-520 1434h201l279 -822q97 -281 137 -405h2q65 201 135 405l278 822h201z" />
    <glyph glyph-name="W" unicode="W" horiz-adv-x="1845" 
d="M596 0h-197l-372 1434h196l199 -863q29 -126 78 -352h2q7 26 25.5 98.5t35.5 137.5t31 116l235 863h189l239 -863q42 -152 93 -352h2q39 190 75 352l195 863h197l-373 -1434h-195l-241 844q-27 94 -88 332h-2q-54 -221 -86 -334z" />
    <glyph glyph-name="X" unicode="X" horiz-adv-x="1222" 
d="M1194 1434l-475 -697l508 -737h-226l-233 354q-66 100 -158 250q-94 -154 -157 -250l-234 -354h-223l508 737l-475 697h215l221 -328q73 -109 145 -238q67 120 146 238l221 328h217z" />
    <glyph glyph-name="Y" unicode="Y" horiz-adv-x="1239" 
d="M713 0h-187v612l-514 822h215l242 -410q3 -6 30.5 -54.5t61.5 -108t57 -101.5q63 114 150 264l242 410h217l-514 -822v-612z" />
    <glyph glyph-name="Z" unicode="Z" horiz-adv-x="1206" 
d="M1151 0h-1110v137l676 889q75 99 196 242v2q-31 -1 -85 -2.5t-99.5 -2.5t-89.5 -1h-537v170h1035v-138l-686 -909q-68 -91 -177 -221v-2q150 6 310 6h567v-170z" />
    <glyph glyph-name="bracketleft" unicode="[" horiz-adv-x="632" 
d="M596 -328h-436v1844h436v-144h-258v-1556h258v-144z" />
    <glyph glyph-name="backslash" unicode="\" horiz-adv-x="860" 
d="M823 -72h-184l-602 1577h184z" />
    <glyph glyph-name="bracketright" unicode="]" horiz-adv-x="632" 
d="M473 1516v-1844h-436v144h258v1556h-258v144h436z" />
    <glyph glyph-name="asciicircum" unicode="^" horiz-adv-x="993" 
d="M256 856h-190l335 578h191l336 -578h-191l-153 270q-3 6 -86 162q-71 -134 -88 -164z" />
    <glyph glyph-name="underscore" unicode="_" horiz-adv-x="923" 
d="M924 -279h-924v144h924v-144z" />
    <glyph glyph-name="grave" unicode="`" horiz-adv-x="544" 
d="M442 1174h-151l-189 260h207z" />
    <glyph glyph-name="a" unicode="a" horiz-adv-x="1105" 
d="M1065 152l4 -152q-52 -8 -115 -8q-169 0 -184 160q-86 -177 -344 -177q-66 0 -126.5 18.5t-109.5 53.5t-78.5 92.5t-29.5 130.5q0 64 21.5 114.5t53.5 82.5t81 56.5t92.5 37t99.5 23.5l338 65q0 76 -6.5 116.5t-28.5 70.5q-47 67 -186 67q-133 0 -191.5 -52t-58.5 -169
l-180 25q6 186 127 266q115 76 313 76q193 0 291 -85.5t98 -252.5v-490q0 -24 1 -35t6.5 -23t18 -16t34.5 -4q18 0 59 9zM768 387v125l-309 -68q-96 -22 -142.5 -57t-46.5 -115q0 -69 53 -109t132 -40q159 0 236 73t77 191z" />
    <glyph glyph-name="b" unicode="b" horiz-adv-x="1189" 
d="M649 1051q208 0 336.5 -148.5t128.5 -390.5q0 -246 -131.5 -391.5t-339.5 -145.5q-210 0 -324 175v-150h-184v1434h184v-543q114 160 330 160zM834 201q77 91 77 311q0 194 -70 293.5t-235 99.5q-150 0 -221 -98q-72 -96 -72 -297q0 -194 75 -293.5t222 -99.5
q150 0 224 84z" />
    <glyph glyph-name="c" unicode="c" horiz-adv-x="1087" 
d="M582 -25q-236 0 -372 143t-136 394q0 239 138 388t370 149q186 0 300.5 -97.5t147.5 -253.5l-172 -32q-13 50 -31 88t-49 73.5t-80.5 54.5t-115.5 19q-164 0 -238 -96q-68 -93 -68 -293q0 -93 13.5 -159.5t46 -120.5t94 -81.5t152.5 -27.5q118 0 183.5 49t94.5 160
l174 -19q-28 -155 -150.5 -246.5t-301.5 -91.5z" />
    <glyph glyph-name="d" unicode="d" horiz-adv-x="1189" 
d="M870 891v543h185v-1434h-185v150q-114 -175 -323 -175q-208 0 -339.5 145.5t-131.5 391.5q0 242 128.5 389.5t336.5 147.5q216 0 329 -158zM780 195q97 97 97 315q0 63 -6 114.5t-25 105t-50.5 89.5t-85.5 59t-126 23q-153 0 -226 -86q-79 -94 -79 -303q0 -95 13.5 -163
t46.5 -121.5t93 -80t148 -26.5q126 0 200 74z" />
    <glyph glyph-name="e" unicode="e" horiz-adv-x="1126" 
d="M967 846q46 -74 69 -177.5t17 -211.5h-777q3 -169 74.5 -251.5t216.5 -82.5q131 0 202.5 56t90.5 173l178 -14q-34 -179 -153.5 -271t-315.5 -92q-239 0 -368 150q-125 140 -125 389q0 237 129 381q136 154 362 154q124 0 231 -52.5t169 -150.5zM569 899
q-85 0 -147.5 -29.5t-93.5 -81.5q-49 -81 -49 -182h585q-2 44 -16.5 95.5t-38.5 86.5q-75 111 -240 111z" />
    <glyph glyph-name="f" unicode="f" horiz-adv-x="614" 
d="M383 0h-182v870h-148v154h148v180q0 125 66 182.5t208 57.5q55 0 113 -10l-4 -164q-55 10 -99 10q-56 0 -79 -15.5t-23 -64.5v-176h209v-154h-209v-870z" />
    <glyph glyph-name="g" unicode="g" horiz-adv-x="1187" 
d="M868 881v143h185v-1001q0 -205 -133 -324t-359 -119q-64 0 -123 11t-115.5 37t-98.5 64.5t-69 98.5t-30 135l176 13q6 -120 77 -167.5t204 -47.5q128 0 207 75t79 211v174q-112 -176 -323 -176q-212 0 -340.5 145.5t-128.5 385.5q0 227 128.5 368.5t334.5 141.5
q218 0 329 -168zM784 240q93 101 93 299q0 180 -76.5 271t-222.5 91q-152 0 -224 -84q-78 -83 -78 -278q0 -95 13.5 -162t46 -118.5t91.5 -77t146 -25.5q134 0 211 84z" />
    <glyph glyph-name="h" unicode="h" horiz-adv-x="1144" 
d="M940 934q28 -30 45.5 -68t24 -86t8.5 -81.5t2 -86.5v-612h-191v602q0 50 -1 70.5t-6 57t-18 61t-36 45.5q-26 26 -61 40t-59.5 16.5t-61.5 2.5q-24 0 -44.5 -2t-48.5 -9.5t-51 -20.5t-46.5 -37.5t-39.5 -57t-26.5 -82.5t-10.5 -111v-575h-184v1434h184v-564
q42 90 123.5 134.5t192.5 44.5q196 0 305 -115z" />
    <glyph glyph-name="i" unicode="i" horiz-adv-x="454" 
d="M319 1217h-184v217h184v-217zM319 0h-184v1024h184v-1024z" />
    <glyph glyph-name="j" unicode="j" horiz-adv-x="466" 
d="M332 1217h-185v217h185v-217zM80 -420q-51 0 -100 10l4 172q43 -12 86 -12q47 0 62 33.5t15 114.5v1126h185v-1149q0 -142 -65 -218.5t-187 -76.5z" />
    <glyph glyph-name="k" unicode="k" horiz-adv-x="1017" 
d="M1016 0h-215l-338 526l-144 -135v-391h-184v1434h184v-834l429 424h249l-405 -375z" />
    <glyph glyph-name="l" unicode="l" horiz-adv-x="454" 
d="M319 0h-184v1434h184v-1434z" />
    <glyph glyph-name="m" unicode="m" horiz-adv-x="1777" 
d="M1298 1049q173 0 264 -98t91 -287v-664h-189v602q0 63 -2 95t-16 74t-43 69q-59 57 -172 57q-91 0 -152 -55q-44 -40 -69 -102.5t-25 -174.5v-565h-188v602q0 61 -2.5 94.5t-16.5 75t-43 68.5q-59 57 -172 57q-89 0 -151 -55q-44 -40 -69.5 -102.5t-25.5 -174.5v-565
h-182v1024h182v-154q22 57 76 101q94 78 240 78q121 0 206 -57t122 -161q29 80 98 140q93 78 239 78z" />
    <glyph glyph-name="n" unicode="n" horiz-adv-x="1144" 
d="M940 934q28 -30 45.5 -69t24 -87t8.5 -82.5t2 -87.5v-608h-191v598q0 50 -1 71t-6 58.5t-18 62.5t-36 46q-26 26 -61 40t-59.5 16.5t-61.5 2.5q-32 0 -62.5 -6t-69.5 -26.5t-67.5 -54.5t-48 -96.5t-19.5 -146.5v-565h-184v1024h184v-156q80 181 316 181q196 0 305 -115z
" />
    <glyph glyph-name="o" unicode="o" horiz-adv-x="1169" 
d="M586 -25q-239 0 -375.5 143t-136.5 394q0 237 139 387t373 150q231 0 370.5 -151t139.5 -386q0 -242 -140 -389.5t-370 -147.5zM586 121q150 0 227 86q84 97 84 305q0 211 -86 307q-78 84 -225 84q-149 0 -224 -78q-90 -93 -90 -313t90 -313q75 -78 224 -78z" />
    <glyph glyph-name="p" unicode="p" horiz-adv-x="1189" 
d="M643 1049q208 0 339.5 -145.5t131.5 -391.5q0 -242 -128.5 -389.5t-336.5 -147.5q-217 0 -330 158v-543h-184v1434h184v-150q114 175 324 175zM817 193q94 91 94 319q0 95 -13.5 163t-46.5 121.5t-93 80t-148 26.5q-146 0 -219 -94q-78 -101 -78 -295q0 -63 6 -114.5
t25 -105t50.5 -89.5t85.5 -59t126 -23q138 0 211 70z" />
    <glyph glyph-name="q" unicode="q" horiz-adv-x="1189" 
d="M870 874v150h185v-1434h-185v543q-113 -158 -329 -158q-208 0 -336.5 147.5t-128.5 389.5q0 247 131.5 393t339.5 146t323 -177zM786 197q91 91 91 317q0 391 -297 391q-152 0 -222 -82q-79 -91 -79 -311q0 -194 70 -291.5t235 -97.5q128 0 202 74z" />
    <glyph glyph-name="r" unicode="r" horiz-adv-x="722" 
d="M637 1047q16 2 70 2l-5 -175q-18 3 -47 3q-63 0 -110.5 -9t-91.5 -34t-72 -68t-45 -113.5t-17 -167.5v-485h-184v1024h184v-180q23 77 110 135.5t208 67.5z" />
    <glyph glyph-name="s" unicode="s" horiz-adv-x="997" 
d="M504 -25q-70 0 -133.5 13t-119 41t-95.5 69.5t-63.5 102.5t-22.5 135l168 16q-1 -107 70 -169t192 -62q252 0 252 166q0 28 -15.5 50.5t-37.5 36.5t-60 27t-68 20t-76.5 17t-72.5 17q-44 11 -71.5 19t-66 22.5t-62.5 29t-51.5 37t-43 48t-25.5 61.5t-10 78q0 77 33 136
t88.5 93.5t121 52t136.5 17.5q85 0 156 -18t130 -56t96.5 -104.5t45.5 -157.5l-172 -27q-3 105 -69.5 161t-188.5 56q-82 0 -143.5 -37.5t-61.5 -103.5q0 -23 8.5 -41.5t29 -33t38.5 -24.5t52.5 -20t55.5 -15t62 -14q8 -2 24 -5q79 -16 119 -26t102 -34.5t92.5 -54t54.5 -80
t24 -117.5q0 -90 -36 -155t-98.5 -100t-133.5 -51t-154 -16z" />
    <glyph glyph-name="t" unicode="t" horiz-adv-x="628" 
d="M467 -10q-143 0 -208.5 57.5t-65.5 181.5v641h-148v154h148v285h182v-285h209v-154h-209v-634q0 -49 23 -64.5t83 -15.5q36 0 94 10l5 -166q-55 -10 -113 -10z" />
    <glyph glyph-name="u" unicode="u" horiz-adv-x="1144" 
d="M825 449v575h185v-1024h-185v154q-41 -87 -123 -133t-192 -46q-194 0 -303 115q-37 39 -56.5 100t-22.5 105.5t-3 116.5v612h190v-602q0 -63 2 -93t15.5 -71.5t42.5 -69.5q27 -27 62.5 -40.5t60.5 -16t63 -2.5q35 0 64 4.5t68 23t66 51t46.5 94.5t19.5 147z" />
    <glyph glyph-name="v" unicode="v" horiz-adv-x="991" 
d="M594 0h-197l-383 1024h197l182 -530q52 -152 103 -324q73 236 104 324l184 530h193z" />
    <glyph glyph-name="w" unicode="w" horiz-adv-x="1495" 
d="M557 0h-201l-342 1024h199l160 -547q21 -70 82 -301q8 36 24 106.5t28 121.5t17 73l138 547h172l135 -547q7 -31 67 -301q57 220 82 301l164 547h199l-342 -1024h-199l-137 528q-22 87 -58 269q-33 -174 -55 -269z" />
    <glyph glyph-name="x" unicode="x" horiz-adv-x="976" 
d="M940 1024l-356 -489l385 -535h-199l-170 242q-17 25 -111 174q-106 -166 -112 -174l-170 -242h-199l385 535l-354 489h199l165 -231q32 -44 86 -134q77 117 89 134l161 231h201z" />
    <glyph glyph-name="y" unicode="y" horiz-adv-x="989" 
d="M588 471l196 553h193l-418 -1118q-66 -176 -131.5 -251t-167.5 -75q-80 0 -156 21l5 172q71 -23 127 -23q23 0 42 11.5t33.5 27.5t33 54.5t31.5 69.5t38 95l-400 1016h197l195 -553q21 -59 90 -272q54 163 92 272z" />
    <glyph glyph-name="z" unicode="z" horiz-adv-x="948" 
d="M901 0h-846v143l488 594q51 61 114 131v2q-118 -4 -172 -4h-397v158h780v-127l-475 -586q-21 -28 -129 -151v-2h637v-158z" />
    <glyph glyph-name="braceleft" unicode="{" horiz-adv-x="655" 
d="M614 -328h-57q-173 0 -257.5 77.5t-84.5 262.5v365q0 74 -38.5 110t-127.5 39v150q89 4 127.5 39.5t38.5 107.5v359q0 187 83.5 260.5t258.5 73.5h57v-154h-55q-89 0 -126.5 -40.5t-37.5 -147.5v-369q0 -167 -131 -205q69 -22 99 -68.5t30 -134.5v-377q0 -112 38 -153
t128 -41h55v-154z" />
    <glyph glyph-name="bar" unicode="|" horiz-adv-x="497" 
d="M338 -328h-178v1762h178v-1762z" />
    <glyph glyph-name="braceright" unicode="}" horiz-adv-x="655" 
d="M98 -328h-57v154h55q90 0 128 41t38 153v377q0 88 30 134.5t99 68.5q-131 38 -131 205v369q0 107 -37.5 147.5t-126.5 40.5h-55v154h57q175 0 258.5 -73.5t83.5 -260.5v-359q0 -72 38.5 -107.5t127.5 -39.5v-150q-89 -3 -127.5 -39t-38.5 -110v-365q0 -185 -84.5 -262.5
t-257.5 -77.5z" />
    <glyph glyph-name="asciitilde" unicode="~" horiz-adv-x="962" 
d="M618 565q-44 0 -84.5 14.5t-65 32.5t-56.5 32.5t-62 14.5q-26 0 -44.5 -8.5t-28.5 -23.5t-14 -26.5t-7 -27.5h-125q0 37 16.5 83.5t45.5 76.5q69 72 172 72q48 0 95 -24t87 -48t71 -24q22 0 37 5.5t25 20.5t14.5 24.5t12.5 33.5h133q-14 -117 -68 -168q-63 -60 -154 -60z
" />
    <glyph glyph-name="uni00A0" unicode="&#xa0;" horiz-adv-x="460" 
 />
    <glyph glyph-name="exclamdown" unicode="&#xa1;" horiz-adv-x="466" 
d="M129 1135h207v-217h-207v217zM168 793h133l25 -588v-504h-183v504z" />
    <glyph glyph-name="cent" unicode="&#xa2;" horiz-adv-x="1107" 
d="M868 332l174 -19q-25 -140 -131 -230.5t-262 -105.5v-170h-133v173q-204 22 -319 162t-115 370q0 220 116.5 363.5t317.5 168.5v175h133v-172q161 -17 260.5 -112t128.5 -237l-172 -32q-24 93 -73 154t-144 77v-770q89 10 141.5 59.5t77.5 145.5zM285 512q0 -83 10 -144
t35 -113t71.5 -83.5t114.5 -42.5v766q-68 -11 -114.5 -43t-71 -85t-35 -113.5t-10.5 -141.5z" />
    <glyph glyph-name="sterling" unicode="&#xa3;" horiz-adv-x="1206" 
d="M1038 248l107 -144q-144 -129 -326 -129q-62 0 -121.5 16.5t-99 37t-94 37t-107.5 16.5q-38 0 -79.5 -16.5t-62 -30t-62.5 -43.5l-111 153q122 92 169.5 165.5t47.5 168.5q0 48 -23 142h-174v147h123q-67 157 -67 281q0 185 131 297t346 112q209 0 335 -116t136 -326
l-186 -35q-1 106 -40.5 180t-103 108t-145.5 34q-126 0 -199.5 -69.5t-73.5 -189.5q0 -84 62 -258l6 -18h293v-147h-252q12 -55 12 -111q0 -99 -44.5 -176.5t-133.5 -151.5q54 30 90.5 39.5t89.5 9.5q77 0 181.5 -40.5t160.5 -40.5q105 0 215 98z" />
    <glyph glyph-name="currency" unicode="&#xa4;" horiz-adv-x="1169" 
d="M940 444l127 -127l-90 -90l-121 121q-112 -88 -270 -88q-167 0 -275 84l-118 -117l-91 90l123 123q-63 108 -63 258q0 149 71 263l-120 120l90 93l119 -119q111 84 264 84q151 0 262 -84l119 119l90 -93l-121 -120q74 -113 74 -263q0 -145 -70 -254zM586 391
q256 0 256 307q0 310 -256 310t-256 -310q0 -148 60 -227.5t196 -79.5z" />
    <glyph glyph-name="yen" unicode="&#xa5;" horiz-adv-x="1234" 
d="M967 1434h217l-410 -711h250v-131h-313v-115h311v-131h-311v-346h-187v346h-313v131h313v115h-311v131h248l-410 711h215l217 -410q87 -166 133 -264q59 127 134 266z" />
    <glyph glyph-name="brokenbar" unicode="&#xa6;" horiz-adv-x="497" 
d="M338 778h-178v656h178v-656zM338 -328h-178v656h178v-656z" />
    <glyph glyph-name="section" unicode="&#xa7;" horiz-adv-x="1189" 
d="M1116 453q0 -98 -59.5 -176.5t-163.5 -116.5q125 -109 125 -250q0 -147 -111.5 -233.5t-296.5 -86.5q-198 0 -315 96.5t-129 268.5l196 20q3 -107 71 -172t177 -65q104 0 159.5 42t55.5 122q0 27 -8.5 51.5t-18.5 43.5t-35.5 41t-43 35.5t-57.5 36t-62.5 34t-75 38
t-78.5 39.5q-74 36 -124 64t-102.5 67.5t-82.5 79.5t-49.5 94t-19.5 117q0 103 66 176t167 99q-54 49 -78 102t-24 119q0 98 58 172t149 110.5t198 36.5q180 0 291 -94t123 -258l-189 -35q-2 100 -60.5 170t-166.5 70q-102 0 -158.5 -43t-56.5 -119q0 -44 20.5 -80.5
t76.5 -75.5t93 -59.5t130 -67.5q31 -16 47 -24q69 -35 115.5 -62t97 -65t80.5 -74.5t49.5 -85t19.5 -102.5zM778 242q73 27 114.5 75.5t41.5 110.5q0 33 -15 64t-32.5 51t-56 46.5t-58 37.5t-67.5 37q-187 100 -295 170q-74 -20 -119 -70.5t-45 -112.5q0 -43 21.5 -81.5
t63.5 -71.5t76 -53.5t85 -47.5q225 -118 286 -155z" />
    <glyph glyph-name="dieresis" unicode="&#xa8;" horiz-adv-x="747" 
d="M270 1198h-168v199h168v-199zM645 1198h-168v199h168v-199z" />
    <glyph glyph-name="copyright" unicode="&#xa9;" horiz-adv-x="1615" 
d="M805 -23q-152 0 -286 56.5t-230.5 154t-152.5 235.5t-56 294q0 158 56 296t152.5 235.5t230.5 153.5t286 56t287 -56t232.5 -153.5t154.5 -235.5t57 -296q0 -156 -57 -294t-154.5 -235.5t-232.5 -154t-287 -56.5zM805 72q177 0 319 83.5t222.5 231t80.5 330.5
q0 184 -80.5 333t-223 233.5t-318.5 84.5q-175 0 -317 -84.5t-223 -233.5t-81 -333q0 -183 81 -330.5t223 -231t317 -83.5zM817 276q-195 0 -307.5 118t-112.5 325q0 199 113.5 321.5t306.5 122.5q153 0 248 -81.5t123 -209.5l-152 -30q-10 42 -23 72t-37 58.5t-64 43
t-95 14.5q-76 0 -126.5 -21.5t-77.5 -65t-37.5 -96.5t-10.5 -128q0 -76 11 -129t38 -95.5t77.5 -63.5t125.5 -21q98 0 148.5 37.5t72.5 127.5l154 -20q-23 -127 -125 -203t-250 -76z" />
    <glyph glyph-name="ordfeminine" unicode="&#xaa;" horiz-adv-x="860" 
d="M776 791l4 -105q-33 -8 -82 -8q-55 0 -91.5 25.5t-43.5 72.5q-64 -110 -235 -110q-99 0 -170.5 54t-71.5 154q0 44 15 79.5t37 57.5t57 39t65 25.5t70 16.5l227 45q0 49 -4 72t-18 44q-29 45 -119 45q-89 0 -128.5 -34.5t-39.5 -108.5l-137 21q3 128 90 186q74 51 221 51
q134 0 203 -59t69 -174v-344q0 -28 7.5 -41t31.5 -13q19 0 43 9zM557 954v80l-203 -47q-65 -14 -95 -36.5t-30 -76.5q0 -46 34.5 -72t88.5 -26q102 0 153.5 49t51.5 129z" />
    <glyph glyph-name="guillemotleft" unicode="&#xab;" horiz-adv-x="897" 
d="M403 223l-315 250v180l315 252v-192l-186 -148l186 -147v-195zM453 653l315 252v-192l-186 -148l186 -147v-195l-315 250v180z" />
    <glyph glyph-name="logicalnot" unicode="&#xac;" horiz-adv-x="1067" 
d="M932 348h-146v342h-680v137h826v-479z" />
    <glyph glyph-name="uni00AD" unicode="&#xad;" horiz-adv-x="811" 
d="M692 498h-573v164h573v-164z" />
    <glyph glyph-name="registered" unicode="&#xae;" horiz-adv-x="1296" 
d="M645 1458q157 0 285.5 -73.5t203 -204.5t74.5 -293q0 -242 -162.5 -405t-400.5 -163q-155 0 -282.5 74t-201 204.5t-73.5 289.5q0 162 73.5 293t201 204.5t282.5 73.5zM645 401q203 0 337 138.5t134 347.5q0 212 -134 351.5t-337 139.5q-200 0 -333.5 -139.5
t-133.5 -351.5q0 -209 133.5 -347.5t333.5 -138.5zM893 739q0 -68 8 -99t33 -54v-17h-115q-19 27 -24.5 59.5t-8.5 116.5q-2 46 -31 64t-114 18h-109v-258h-108v650h266q40 0 76.5 -10.5t69 -32t52 -61t19.5 -91.5q0 -101 -84 -152q70 -39 70 -133zM532 1120v-196h134
q65 0 99 20.5t34 79.5q0 53 -35 74.5t-98 21.5h-134z" />
    <glyph glyph-name="macron" unicode="&#xaf;" horiz-adv-x="663" 
d="M561 1309h-459v125h459v-125z" />
    <glyph glyph-name="degree" unicode="&#xb0;" horiz-adv-x="759" 
d="M379 821q-129 0 -218 86t-89 209t89 210t218 87q130 0 219.5 -86.5t89.5 -210.5q0 -123 -89.5 -209t-219.5 -86zM379 930q80 0 127 52.5t47 133.5q0 80 -47 133.5t-127 53.5q-76 0 -125 -54t-49 -133q0 -80 49 -133t125 -53z" />
    <glyph glyph-name="plusminus" unicode="&#xb1;" horiz-adv-x="1122" 
d="M631 281h-137v348h-392v137h392v350h137v-350h389v-137h-389v-348zM1020 0h-918v137h918v-137z" />
    <glyph glyph-name="uni00B2" unicode="&#xb2;" horiz-adv-x="794" 
d="M229 815h488v-139h-664q4 89 28.5 159.5t68.5 123.5t83.5 86t100.5 73q10 6 46 28t53.5 33.5t47 35.5t44.5 44t27.5 48.5t12.5 58.5q0 79 -39.5 120.5t-113.5 41.5q-88 0 -128 -52.5t-40 -158.5l-154 26q0 41 8 81t31 84t58.5 76.5t95 53.5t135.5 21q135 0 216 -80.5
t81 -214.5q0 -48 -15.5 -92t-37 -75t-58.5 -64t-64 -51.5t-69 -45.5q-46 -28 -63.5 -39t-55.5 -38.5t-56.5 -45.5t-38.5 -45t-28 -53z" />
    <glyph glyph-name="uni00B3" unicode="&#xb3;" horiz-adv-x="790" 
d="M590 1202q61 -28 97 -90.5t36 -142.5q0 -138 -91.5 -220.5t-242.5 -82.5t-238.5 88t-87.5 235l148 21q0 -99 46.5 -155t131.5 -56q89 0 136.5 44t47.5 124q0 72 -44.5 109.5t-129.5 37.5h-86v137h68q71 0 112.5 35.5t41.5 93.5q0 71 -39 110.5t-109 39.5
q-158 0 -158 -195l-155 23q0 126 89 213.5t224 87.5q137 0 218 -75t81 -204q0 -52 -25.5 -99.5t-70.5 -78.5z" />
    <glyph glyph-name="acute" unicode="&#xb4;" horiz-adv-x="544" 
d="M254 1174h-152l134 260h206z" />
    <glyph glyph-name="uni00B5" unicode="&#xb5;" horiz-adv-x="1187" 
d="M850 449v575h182v-1024h-182v154q-41 -87 -124 -133t-194 -46q-120 0 -196 64q4 -66 4 -98v-351h-184v1434h184v-602q0 -64 1.5 -93t15 -71t42.5 -70q27 -27 62.5 -40.5t60 -16t62.5 -2.5q35 0 64 4.5t68.5 23t67 51t47 94.5t19.5 147z" />
    <glyph glyph-name="paragraph" unicode="&#xb6;" horiz-adv-x="1134" 
d="M514 1434h430v-1762h-141v1622h-182v-1622h-144v992q-122 0 -216 41t-150 125.5t-56 201.5q0 195 121 298.5t338 103.5z" />
    <glyph glyph-name="periodcentered" unicode="&#xb7;" horiz-adv-x="444" 
d="M326 557h-207v217h207v-217z" />
    <glyph glyph-name="cedilla" unicode="&#xb8;" horiz-adv-x="651" 
d="M360 -100q72 0 130.5 -37t58.5 -105q0 -49 -22 -86t-59 -57t-78 -29.5t-85 -9.5q-108 0 -203 55l41 84q80 -32 150 -32q110 0 110 65q0 62 -104 62q-33 0 -88 -19l-41 51l149 170l111 -12l-106 -102q12 2 36 2z" />
    <glyph glyph-name="uni00B9" unicode="&#xb9;" horiz-adv-x="540" 
d="M426 676h-154v721q-34 -30 -101 -48.5t-134 -15.5v140q112 0 181.5 45.5t80.5 123.5h127v-966z" />
    <glyph glyph-name="ordmasculine" unicode="&#xba;" horiz-adv-x="864" 
d="M432 666q-165 0 -259.5 100t-94.5 272q0 165 96 270t258 105t259 -105.5t97 -269.5q0 -166 -97.5 -269t-258.5 -103zM432 778q86 0 137 45q68 62 68 215q0 129 -48 197t-157 68q-91 0 -141 -50q-64 -64 -64 -215q0 -127 47.5 -193.5t157.5 -66.5z" />
    <glyph glyph-name="guillemotright" unicode="&#xbb;" horiz-adv-x="897" 
d="M315 565l-186 148v192l315 -252v-180l-315 -250v195zM494 713v192l315 -252v-180l-315 -250v195l186 147z" />
    <glyph glyph-name="onequarter" unicode="&#xbc;" horiz-adv-x="1622" 
d="M410 563h-138v649q-31 -27 -92 -43.5t-121 -13.5v125q101 0 164 41.5t72 112.5h115v-871zM324 0h-170l1044 1434h170zM1448 0h-131v197h-365v122l387 551h109v-555h111v-118h-111v-197zM1092 313q33 2 102 2h125v207q0 55 4 129q-43 -77 -84 -133l-70 -98
q-69 -97 -77 -107z" />
    <glyph glyph-name="onehalf" unicode="&#xbd;" horiz-adv-x="1724" 
d="M410 563h-138v649q-31 -27 -92 -43.5t-121 -13.5v125q101 0 164 41.5t72 112.5h115v-871zM154 0l1044 1434h170l-1044 -1434h-170zM1208 125h439v-125h-596q4 80 25.5 143.5t60.5 111t75.5 77.5t90.5 65q11 7 41.5 26t48 30t43 32t39.5 39.5t25 44t11 52.5q0 71 -36 108
t-103 37q-78 0 -114.5 -46.5t-36.5 -141.5l-138 22q0 37 7.5 73t27.5 75.5t52 69t85.5 48.5t122.5 19q122 0 194.5 -72.5t72.5 -194.5q0 -43 -14 -82.5t-33.5 -67.5t-53 -57t-57.5 -46t-62 -41q-42 -26 -57 -35.5t-49.5 -34t-50.5 -40.5t-34 -40.5t-26 -48.5z" />
    <glyph glyph-name="threequarters" unicode="&#xbe;" horiz-adv-x="1830" 
d="M666 825q0 -124 -82.5 -198t-218.5 -74q-137 0 -216 79t-79 212l133 18q0 -90 42 -140t120 -50q79 0 122 39.5t43 111.5q0 133 -157 133h-78v125h61q64 0 102 32t38 85q0 63 -35.5 98t-98.5 35q-143 0 -143 -174l-139 21q0 114 79.5 192t202.5 78t196 -67.5t73 -182.5
q0 -47 -23 -90.5t-63 -71.5q55 -25 88 -82t33 -129zM365 0l1044 1434h170l-1044 -1434h-170zM1659 870v-555h110v-118h-110v-197h-131v197h-365v122l387 551h109zM1530 315v207q0 55 4 129q-43 -77 -84 -133l-70 -98q-69 -97 -77 -107q33 2 102 2h125z" />
    <glyph glyph-name="questiondown" unicode="&#xbf;" horiz-adv-x="999" 
d="M389 1135h207v-217h-207v217zM410 793h174v-119q0 -91 -39.5 -165t-136.5 -165q-80 -73 -106 -109q-50 -69 -50 -149q0 -256 244 -256q272 0 272 303l182 -31q0 -56 -12.5 -111t-46 -113t-83.5 -102t-133 -72t-188 -28q-190 0 -303.5 112t-113.5 300q0 61 12 109.5
t40 89.5t54 69.5t72 69.5q42 38 62.5 59t48 58.5t39.5 80t12 95.5v74z" />
    <glyph glyph-name="Agrave" unicode="&#xc0;" horiz-adv-x="1327" 
d="M612 1769l129 -221h-151l-182 221h204zM1321 0h-195l-159 428h-609l-157 -428h-197l561 1434h197zM580 1024l-160 -432h485l-162 432q-37 98 -81 231h-3q-50 -151 -79 -231z" />
    <glyph glyph-name="Aacute" unicode="&#xc1;" horiz-adv-x="1327" 
d="M717 1769h205l-183 -221h-151zM1321 0h-195l-159 428h-609l-157 -428h-197l561 1434h197zM580 1024l-160 -432h485l-162 432q-37 98 -81 231h-3q-50 -151 -79 -231z" />
    <glyph glyph-name="Acircumflex" unicode="&#xc2;" horiz-adv-x="1327" 
d="M774 1548l-115 115l-118 -115h-154l191 207h170l190 -207h-164zM1321 0h-195l-159 428h-609l-157 -428h-197l561 1434h197zM580 1024l-160 -432h485l-162 432q-37 98 -81 231h-3q-50 -151 -79 -231z" />
    <glyph glyph-name="Atilde" unicode="&#xc3;" horiz-adv-x="1327" 
d="M543 1626q-73 0 -84 -78h-113q0 34 14.5 75.5t40.5 68.5q60 63 154 63q43 0 85 -21.5t78.5 -43t63.5 -21.5q20 0 33 5t22 19t12 21.5t11 30.5h121q-14 -106 -61 -150q-56 -53 -138 -53q-50 0 -92.5 21t-78.5 42t-68 21zM1321 0h-195l-159 428h-609l-157 -428h-197
l561 1434h197zM580 1024l-160 -432h485l-162 432q-37 98 -81 231h-3q-50 -151 -79 -231z" />
    <glyph glyph-name="Adieresis" unicode="&#xc4;" horiz-adv-x="1327" 
d="M393 1747h168v-199h-168v199zM768 1747h168v-199h-168v199zM1321 0h-195l-159 428h-609l-157 -428h-197l561 1434h197zM580 1024l-160 -432h485l-162 432q-37 98 -81 231h-3q-50 -151 -79 -231z" />
    <glyph glyph-name="Aring" unicode="&#xc5;" horiz-adv-x="1327" 
d="M664 1513q-83 0 -140 55.5t-57 133.5t57 133t140 55t139.5 -55t56.5 -133q0 -79 -56.5 -134t-139.5 -55zM664 1810q-44 0 -74.5 -31.5t-30.5 -76.5q0 -47 30.5 -79t74.5 -32q46 0 74 31.5t28 79.5q0 46 -28 77t-74 31zM1321 0h-195l-159 428h-609l-157 -428h-197
l561 1434h197zM580 1024l-160 -432h485l-162 432q-37 98 -81 231h-3q-50 -151 -79 -231z" />
    <glyph glyph-name="AE" unicode="&#xc6;" horiz-adv-x="1902" 
d="M1806 1434v-166h-741v-461h666v-166h-666v-475h741v-166h-925v428h-492l-207 -428h-209l721 1434h1112zM469 592h412v676h-82z" />
    <glyph glyph-name="Ccedilla" unicode="&#xc7;" horiz-adv-x="1439" 
d="M1188 438l211 -55q-85 -194 -239 -298t-369 -110l-82 -77q12 2 36 2q72 0 130.5 -37t58.5 -105q0 -49 -22 -86t-59 -57t-78 -29.5t-85 -9.5q-108 0 -203 55l41 84q80 -32 150 -32q110 0 110 65q0 62 -104 62q-33 0 -88 -19l-41 51l121 138q-285 26 -437.5 216t-152.5 521
q0 219 77 384.5t232.5 261t370.5 95.5q149 0 273 -49t216 -151t131 -248l-202 -39q-17 66 -51 124t-85 104t-122.5 72.5t-155.5 26.5q-258 0 -373 -161q-102 -143 -102 -420q0 -276 102 -422q55 -78 150.5 -119t218.5 -41q164 0 269.5 84t152.5 219z" />
    <glyph glyph-name="Egrave" unicode="&#xc8;" horiz-adv-x="1191" 
d="M719 1548h-152l-182 221h205zM1096 0h-926v1434h926v-166h-742v-461h666v-166h-666v-475h742v-166z" />
    <glyph glyph-name="Eacute" unicode="&#xc9;" horiz-adv-x="1191" 
d="M709 1548h-152l129 221h205zM1096 0h-926v1434h926v-166h-742v-461h666v-166h-666v-475h742v-166z" />
    <glyph glyph-name="Ecircumflex" unicode="&#xca;" horiz-adv-x="1191" 
d="M752 1548l-115 115l-119 -115h-153l190 207h170l190 -207h-163zM1096 1434v-166h-742v-461h666v-166h-666v-475h742v-166h-926v1434h926z" />
    <glyph glyph-name="Edieresis" unicode="&#xcb;" horiz-adv-x="1191" 
d="M539 1548h-168v199h168v-199zM913 1548h-168v199h168v-199zM1096 0h-926v1434h926v-166h-742v-461h666v-166h-666v-475h742v-166z" />
    <glyph glyph-name="Igrave" unicode="&#xcc;" horiz-adv-x="526" 
d="M342 1548h-152l-182 221h205zM356 0h-186v1434h186v-1434z" />
    <glyph glyph-name="Iacute" unicode="&#xcd;" horiz-adv-x="526" 
d="M332 1548h-152l129 221h205zM356 0h-186v1434h186v-1434z" />
    <glyph glyph-name="Icircumflex" unicode="&#xce;" horiz-adv-x="526" 
d="M178 1755h170l191 -207h-164l-115 115l-119 -115h-153zM356 0h-186v1434h186v-1434z" />
    <glyph glyph-name="Idieresis" unicode="&#xcf;" horiz-adv-x="526" 
d="M162 1548h-168v199h168v-199zM537 1548h-168v199h168v-199zM356 0h-186v1434h186v-1434z" />
    <glyph glyph-name="Eth" unicode="&#xd0;" horiz-adv-x="1439" 
d="M186 1434h488q213 0 368 -90t233.5 -251t78.5 -376q0 -337 -180.5 -527t-499.5 -190h-488v639h-149v158h149v637zM1042 311q54 77 78.5 172t24.5 234t-24 232.5t-79 170.5q-52 75 -153.5 114.5t-235.5 39.5h-282v-477h354v-158h-354v-479h282q139 0 239 39.5t150 111.5z
" />
    <glyph glyph-name="Ntilde" unicode="&#xd1;" horiz-adv-x="1431" 
d="M840 1542q-50 0 -93 21t-79 42t-68 21q-73 0 -84 -78h-113q0 34 15 75t41 69q60 63 153 63q43 0 85.5 -21.5t79 -43t63.5 -21.5q20 0 33 5t22 19t12 21.5t11 30.5h120q-14 -106 -61 -150q-56 -53 -137 -53zM352 0h-182v1434h199l538 -867q72 -117 180 -323h3
q-11 218 -11 364v826h183v-1434h-209l-533 866q-66 106 -176 324h-2q10 -228 10 -365v-825z" />
    <glyph glyph-name="Ograve" unicode="&#xd2;" horiz-adv-x="1527" 
d="M848 1548h-152l-182 221h205zM766 -25q-326 0 -503 192.5t-177 549.5q0 219 77 384.5t232.5 261t370.5 95.5q212 0 367 -95.5t233 -262t78 -383.5q0 -220 -78 -386.5t-232.5 -261t-367.5 -94.5zM766 135q246 0 358 160q111 157 111 422q0 263 -111 420q-112 161 -350 161
q-131 0 -225.5 -43.5t-145.5 -109.5q-108 -142 -108 -428q0 -142 29 -253t73 -169q125 -160 369 -160z" />
    <glyph glyph-name="Oacute" unicode="&#xd3;" horiz-adv-x="1527" 
d="M838 1548h-152l129 221h205zM766 -25q-326 0 -503 192.5t-177 549.5q0 219 77 384.5t232.5 261t370.5 95.5q212 0 367 -95.5t233 -262t78 -383.5q0 -220 -78 -386.5t-232.5 -261t-367.5 -94.5zM766 135q246 0 358 160q111 157 111 422q0 263 -111 420q-112 161 -350 161
q-131 0 -225.5 -43.5t-145.5 -109.5q-108 -142 -108 -428q0 -142 29 -253t73 -169q125 -160 369 -160z" />
    <glyph glyph-name="Ocircumflex" unicode="&#xd4;" horiz-adv-x="1527" 
d="M881 1548l-115 115l-119 -115h-153l190 207h170l190 -207h-163zM766 1458q212 0 367 -95.5t233 -262t78 -383.5q0 -220 -78 -386.5t-232.5 -261t-367.5 -94.5q-326 0 -503 192.5t-177 549.5q0 219 77 384.5t232.5 261t370.5 95.5zM1124 295q111 157 111 422
q0 263 -111 420q-112 161 -350 161q-131 0 -225.5 -43.5t-145.5 -109.5q-108 -142 -108 -428q0 -142 29 -253t73 -169q125 -160 369 -160q246 0 358 160z" />
    <glyph glyph-name="Otilde" unicode="&#xd5;" horiz-adv-x="1527" 
d="M889 1542q-50 0 -93 21t-79 42t-68 21q-73 0 -84 -78h-112q0 34 14.5 75.5t40.5 68.5q60 63 154 63q43 0 85 -21.5t78.5 -43t63.5 -21.5q20 0 33 5t22 19t12 21.5t11 30.5h120q-14 -106 -61 -150q-56 -53 -137 -53zM766 -25q-326 0 -503 192.5t-177 549.5q0 219 77 384.5
t232.5 261t370.5 95.5q212 0 367 -95.5t233 -262t78 -383.5q0 -220 -78 -386.5t-232.5 -261t-367.5 -94.5zM766 135q246 0 358 160q111 157 111 422q0 263 -111 420q-112 161 -350 161q-131 0 -225.5 -43.5t-145.5 -109.5q-108 -142 -108 -428q0 -142 29 -253t73 -169
q125 -160 369 -160z" />
    <glyph glyph-name="Odieresis" unicode="&#xd6;" horiz-adv-x="1527" 
d="M668 1548h-168v199h168v-199zM1042 1548h-168v199h168v-199zM766 -25q-326 0 -503 192.5t-177 549.5q0 219 77 384.5t232.5 261t370.5 95.5q212 0 367 -95.5t233 -262t78 -383.5q0 -220 -78 -386.5t-232.5 -261t-367.5 -94.5zM766 135q246 0 358 160q111 157 111 422
q0 263 -111 420q-112 161 -350 161q-131 0 -225.5 -43.5t-145.5 -109.5q-108 -142 -108 -428q0 -142 29 -253t73 -169q125 -160 369 -160z" />
    <glyph glyph-name="multiply" unicode="&#xd7;" horiz-adv-x="937" 
d="M745 1030l97 -98l-275 -275l275 -276l-99 -96l-274 274l-274 -274l-99 96l277 276l-277 275l97 98l276 -276z" />
    <glyph glyph-name="Oslash" unicode="&#xd8;" horiz-adv-x="1556" 
d="M1397 1458l84 -78l-164 -176q141 -195 141 -487q0 -220 -78 -386.5t-232.5 -261t-367.5 -94.5q-291 0 -465 154l-155 -166l-84 74l164 176q-140 187 -140 504q0 219 77 384.5t232.5 261t370.5 95.5q281 0 461 -166zM309 717q0 -220 66 -359l745 803q-113 137 -332 137
q-130 0 -224.5 -43.5t-145.5 -109.5q-109 -143 -109 -428zM1249 717q0 208 -65 344l-744 -799q124 -127 340 -127q247 0 359 160q110 156 110 422z" />
    <glyph glyph-name="Ugrave" unicode="&#xd9;" horiz-adv-x="1431" 
d="M795 1548h-152l-182 221h205zM715 -25q-273 0 -416 128t-143 370v961h186v-961q0 -83 30 -148t82 -105t118.5 -60.5t142.5 -20.5t142.5 20.5t119 60.5t83 105.5t30.5 147.5v961h186v-961q0 -242 -144 -370t-417 -128z" />
    <glyph glyph-name="Uacute" unicode="&#xda;" horiz-adv-x="1431" 
d="M784 1548h-151l129 221h205zM715 -25q-273 0 -416 128t-143 370v961h186v-961q0 -83 30 -148t82 -105t118.5 -60.5t142.5 -20.5t142.5 20.5t119 60.5t83 105.5t30.5 147.5v961h186v-961q0 -242 -144 -370t-417 -128z" />
    <glyph glyph-name="Ucircumflex" unicode="&#xdb;" horiz-adv-x="1431" 
d="M827 1548l-114 115l-119 -115h-154l191 207h170l190 -207h-164zM1090 473v961h186v-961q0 -242 -144 -370t-417 -128t-416 128t-143 370v961h186v-961q0 -83 30 -148t82 -105t118.5 -60.5t142.5 -20.5t142.5 20.5t119 60.5t83 105.5t30.5 147.5z" />
    <glyph glyph-name="Udieresis" unicode="&#xdc;" horiz-adv-x="1431" 
d="M614 1548h-168v199h168v-199zM989 1548h-168v199h168v-199zM715 -25q-273 0 -416 128t-143 370v961h186v-961q0 -83 30 -148t82 -105t118.5 -60.5t142.5 -20.5t142.5 20.5t119 60.5t83 105.5t30.5 147.5v961h186v-961q0 -242 -144 -370t-417 -128z" />
    <glyph glyph-name="Yacute" unicode="&#xdd;" horiz-adv-x="1239" 
d="M690 1548h-151l129 221h204zM713 0h-187v612l-514 822h215l242 -410q3 -6 30.5 -54.5t61.5 -108t57 -101.5q63 114 150 264l242 410h217l-514 -822v-612z" />
    <glyph glyph-name="Thorn" unicode="&#xde;" horiz-adv-x="1280" 
d="M354 0h-184v1434h184v-226h299q61 0 112 -3.5t111.5 -14.5t107.5 -30t92.5 -52t75.5 -77.5t48.5 -110t18.5 -146.5q0 -78 -18.5 -141.5t-48.5 -106.5t-76.5 -74.5t-93 -49.5t-107.5 -29t-111.5 -14t-112.5 -3h-297v-356zM354 1049v-535h297q45 0 77 1.5t76 7t74 15.5
t62.5 29.5t52 46.5t32.5 67.5t13 92.5q0 56 -13 100t-32 72.5t-52.5 49t-62 30.5t-74 15.5t-74.5 6.5t-77 1h-299z" />
    <glyph glyph-name="germandbls" unicode="&#xdf;" horiz-adv-x="1116" 
d="M735 799v-2q143 -20 226 -120.5t83 -258.5q0 -208 -120.5 -319t-339.5 -111q-66 0 -127 14l4 150q59 -11 119 -11q274 0 274 277q0 297 -324 297h-55v141h57q121 0 179.5 61t58.5 173q0 101 -56.5 162t-166.5 61q-113 0 -170.5 -63t-57.5 -171v-1079h-184v1090
q0 168 109.5 268t308.5 100q179 0 290 -100t111 -258q0 -241 -219 -301z" />
    <glyph glyph-name="agrave" unicode="&#xe0;" horiz-adv-x="1105" 
d="M506 1434l133 -260h-152l-188 260h207zM1065 152l4 -152q-52 -8 -115 -8q-169 0 -184 160q-86 -177 -344 -177q-66 0 -126.5 18.5t-109.5 53.5t-78.5 92.5t-29.5 130.5q0 64 21.5 114.5t53.5 82.5t81 56.5t92.5 37t99.5 23.5l338 65q0 76 -6.5 116.5t-28.5 70.5
q-47 67 -186 67q-133 0 -191.5 -52t-58.5 -169l-180 25q6 186 127 266q115 76 313 76q193 0 291 -85.5t98 -252.5v-490q0 -24 1 -35t6.5 -23t18 -16t34.5 -4q18 0 59 9zM768 387v125l-309 -68q-96 -22 -142.5 -57t-46.5 -115q0 -69 53 -109t132 -40q159 0 236 73t77 191z
" />
    <glyph glyph-name="aacute" unicode="&#xe1;" horiz-adv-x="1105" 
d="M584 1434h207l-189 -260h-151zM1065 152l4 -152q-52 -8 -115 -8q-169 0 -184 160q-86 -177 -344 -177q-66 0 -126.5 18.5t-109.5 53.5t-78.5 92.5t-29.5 130.5q0 64 21.5 114.5t53.5 82.5t81 56.5t92.5 37t99.5 23.5l338 65q0 76 -6.5 116.5t-28.5 70.5q-47 67 -186 67
q-133 0 -191.5 -52t-58.5 -169l-180 25q6 186 127 266q115 76 313 76q193 0 291 -85.5t98 -252.5v-490q0 -24 1 -35t6.5 -23t18 -16t34.5 -4q18 0 59 9zM768 387v125l-309 -68q-96 -22 -142.5 -57t-46.5 -115q0 -69 53 -109t132 -40q159 0 236 73t77 191z" />
    <glyph glyph-name="acircumflex" unicode="&#xe2;" horiz-adv-x="1105" 
d="M651 1198l-114 115l-119 -115h-154l191 207h170l190 -207h-164zM1065 152l4 -152q-52 -8 -115 -8q-169 0 -184 160q-86 -177 -344 -177q-66 0 -126.5 18.5t-109.5 53.5t-78.5 92.5t-29.5 130.5q0 64 21.5 114.5t53.5 82.5t81 56.5t92.5 37t99.5 23.5l338 65
q0 76 -6.5 116.5t-28.5 70.5q-47 67 -186 67q-133 0 -191.5 -52t-58.5 -169l-180 25q6 186 127 266q115 76 313 76q193 0 291 -85.5t98 -252.5v-490q0 -24 1 -35t6.5 -23t18 -16t34.5 -4q18 0 59 9zM768 387v125l-309 -68q-96 -22 -142.5 -57t-46.5 -115q0 -69 53 -109
t132 -40q159 0 236 73t77 191z" />
    <glyph glyph-name="atilde" unicode="&#xe3;" horiz-adv-x="1105" 
d="M420 1251q-73 0 -84 -77h-113q0 33 15 74t41 69q60 63 153 63q43 0 85 -21.5t78.5 -43t63.5 -21.5q20 0 33 5t22 19t12 21.5t11 30.5h121q-14 -105 -61 -149q-57 -54 -138 -54q-50 0 -92.5 21t-78.5 42t-68 21zM1065 152l4 -152q-52 -8 -115 -8q-169 0 -184 160
q-86 -177 -344 -177q-66 0 -126.5 18.5t-109.5 53.5t-78.5 92.5t-29.5 130.5q0 64 21.5 114.5t53.5 82.5t81 56.5t92.5 37t99.5 23.5l338 65q0 76 -6.5 116.5t-28.5 70.5q-47 67 -186 67q-133 0 -191.5 -52t-58.5 -169l-180 25q6 186 127 266q115 76 313 76q193 0 291 -85.5
t98 -252.5v-490q0 -24 1 -35t6.5 -23t18 -16t34.5 -4q18 0 59 9zM768 387v125l-309 -68q-96 -22 -142.5 -57t-46.5 -115q0 -69 53 -109t132 -40q159 0 236 73t77 191z" />
    <glyph glyph-name="adieresis" unicode="&#xe4;" horiz-adv-x="1105" 
d="M258 1397h168v-199h-168v199zM633 1397h168v-199h-168v199zM1065 152l4 -152q-52 -8 -115 -8q-169 0 -184 160q-86 -177 -344 -177q-66 0 -126.5 18.5t-109.5 53.5t-78.5 92.5t-29.5 130.5q0 64 21.5 114.5t53.5 82.5t81 56.5t92.5 37t99.5 23.5l338 65q0 76 -6.5 116.5
t-28.5 70.5q-47 67 -186 67q-133 0 -191.5 -52t-58.5 -169l-180 25q6 186 127 266q115 76 313 76q193 0 291 -85.5t98 -252.5v-490q0 -24 1 -35t6.5 -23t18 -16t34.5 -4q18 0 59 9zM768 387v125l-309 -68q-96 -22 -142.5 -57t-46.5 -115q0 -69 53 -109t132 -40q159 0 236 73
t77 191z" />
    <glyph glyph-name="aring" unicode="&#xe5;" horiz-adv-x="1105" 
d="M541 1133q-83 0 -140 55t-57 133t57 133t140 55t139.5 -55t56.5 -133t-56.5 -133t-139.5 -55zM541 1430q-44 0 -74.5 -32t-30.5 -77q0 -47 30.5 -79t74.5 -32q46 0 74 31.5t28 79.5q0 46 -28 77.5t-74 31.5zM1065 152l4 -152q-52 -8 -115 -8q-169 0 -184 160
q-86 -177 -344 -177q-66 0 -126.5 18.5t-109.5 53.5t-78.5 92.5t-29.5 130.5q0 64 21.5 114.5t53.5 82.5t81 56.5t92.5 37t99.5 23.5l338 65q0 76 -6.5 116.5t-28.5 70.5q-47 67 -186 67q-133 0 -191.5 -52t-58.5 -169l-180 25q6 186 127 266q115 76 313 76q193 0 291 -85.5
t98 -252.5v-490q0 -24 1 -35t6.5 -23t18 -16t34.5 -4q18 0 59 9zM768 387v125l-309 -68q-96 -22 -142.5 -57t-46.5 -115q0 -69 53 -109t132 -40q159 0 236 73t77 191z" />
    <glyph glyph-name="ae" unicode="&#xe6;" horiz-adv-x="1779" 
d="M1618 854q48 -76 71 -186.5t15 -210.5h-750q3 -169 72.5 -251.5t208.5 -82.5q254 0 283 229l172 -14q-32 -179 -147.5 -271t-305.5 -92q-252 0 -383 195q-58 -96 -163.5 -145.5t-246.5 -49.5q-55 0 -105 8.5t-100 29.5t-86 53.5t-58.5 85t-22.5 118.5q0 64 22 114.5
t54.5 82.5t82 56.5t92 37t97.5 23.5l338 65q0 76 -6.5 116.5t-28.5 70.5q-47 67 -186 67q-133 0 -193 -53.5t-57 -167.5l-181 25q6 185 127 266q115 76 314 76q244 0 340 -158q136 158 348 158q118 0 220 -51.5t163 -143.5zM956 606h566q-2 44 -16 95.5t-38 86.5
q-73 111 -231 111q-82 0 -142.5 -29.5t-90.5 -81.5q-48 -82 -48 -182zM758 387v125l-309 -68q-96 -22 -142.5 -57t-46.5 -115q0 -69 53 -109t131 -40q159 0 236.5 73t77.5 191z" />
    <glyph glyph-name="ccedilla" unicode="&#xe7;" horiz-adv-x="1087" 
d="M860 332l174 -19q-26 -147 -139.5 -238t-278.5 -100l-81 -77q12 2 36 2q72 0 130.5 -37t58.5 -105q0 -49 -22 -86t-59 -57t-78 -29.5t-85 -9.5q-108 0 -203 55l41 84q80 -32 150 -32q110 0 110 65q0 62 -104 62q-33 0 -88 -19l-41 51l121 138q-201 25 -314.5 164
t-113.5 368q0 239 138 388t370 149q186 0 300.5 -97.5t147.5 -253.5l-172 -32q-13 50 -31 88t-49 73.5t-80.5 54.5t-115.5 19q-164 0 -238 -96q-68 -93 -68 -293q0 -93 13.5 -159.5t46 -120.5t94 -81.5t152.5 -27.5q118 0 183.5 49t94.5 160z" />
    <glyph glyph-name="egrave" unicode="&#xe8;" horiz-adv-x="1126" 
d="M532 1434l134 -260h-152l-188 260h206zM967 846q46 -74 69 -177.5t17 -211.5h-777q3 -169 74.5 -251.5t216.5 -82.5q131 0 202.5 56t90.5 173l178 -14q-34 -179 -153.5 -271t-315.5 -92q-239 0 -368 150q-125 140 -125 389q0 237 129 381q136 154 362 154
q124 0 231 -52.5t169 -150.5zM569 899q-85 0 -147.5 -29.5t-93.5 -81.5q-49 -81 -49 -182h585q-2 44 -16.5 95.5t-38.5 86.5q-75 111 -240 111z" />
    <glyph glyph-name="eacute" unicode="&#xe9;" horiz-adv-x="1126" 
d="M610 1434h207l-188 -260h-152zM967 846q46 -74 69 -177.5t17 -211.5h-777q3 -169 74.5 -251.5t216.5 -82.5q131 0 202.5 56t90.5 173l178 -14q-34 -179 -153.5 -271t-315.5 -92q-239 0 -368 150q-125 140 -125 389q0 237 129 381q136 154 362 154q124 0 231 -52.5
t169 -150.5zM569 899q-85 0 -147.5 -29.5t-93.5 -81.5q-49 -81 -49 -182h585q-2 44 -16.5 95.5t-38.5 86.5q-75 111 -240 111z" />
    <glyph glyph-name="ecircumflex" unicode="&#xea;" horiz-adv-x="1126" 
d="M678 1198l-115 115l-119 -115h-153l190 207h170l191 -207h-164zM967 846q46 -74 69 -177.5t17 -211.5h-777q3 -169 74.5 -251.5t216.5 -82.5q131 0 202.5 56t90.5 173l178 -14q-34 -179 -153.5 -271t-315.5 -92q-239 0 -368 150q-125 140 -125 389q0 237 129 381
q136 154 362 154q124 0 231 -52.5t169 -150.5zM569 899q-85 0 -147.5 -29.5t-93.5 -81.5q-49 -81 -49 -182h585q-2 44 -16.5 95.5t-38.5 86.5q-75 111 -240 111z" />
    <glyph glyph-name="edieresis" unicode="&#xeb;" horiz-adv-x="1126" 
d="M295 1397h168v-199h-168v199zM670 1397h168v-199h-168v199zM967 846q46 -74 69 -177.5t17 -211.5h-777q3 -169 74.5 -251.5t216.5 -82.5q131 0 202.5 56t90.5 173l178 -14q-34 -179 -153.5 -271t-315.5 -92q-239 0 -368 150q-125 140 -125 389q0 237 129 381
q136 154 362 154q124 0 231 -52.5t169 -150.5zM569 899q-85 0 -147.5 -29.5t-93.5 -81.5q-49 -81 -49 -182h585q-2 44 -16.5 95.5t-38.5 86.5q-75 111 -240 111z" />
    <glyph glyph-name="igrave" unicode="&#xec;" horiz-adv-x="454" 
d="M303 1174h-151l-189 260h207zM319 0h-184v1024h184v-1024z" />
    <glyph glyph-name="iacute" unicode="&#xed;" horiz-adv-x="454" 
d="M299 1174h-152l134 260h206zM319 0h-184v1024h184v-1024z" />
    <glyph glyph-name="icircumflex" unicode="&#xee;" horiz-adv-x="454" 
d="M141 1405h170l191 -207h-164l-115 115l-119 -115h-153zM319 0h-184v1024h184v-1024z" />
    <glyph glyph-name="idieresis" unicode="&#xef;" horiz-adv-x="454" 
d="M123 1198h-168v199h168v-199zM498 1198h-168v199h168v-199zM319 0h-184v1024h184v-1024z" />
    <glyph glyph-name="eth" unicode="&#xf0;" horiz-adv-x="1175" 
d="M866 1190q230 -260 230 -678q0 -242 -140 -389.5t-370 -147.5q-239 0 -375.5 143t-136.5 394q0 237 139 387t373 150q113 0 200 -37q-50 87 -112 149q-31 31 -49 45l-269 -82l-28 95l209 63q-91 73 -172 123l133 92q95 -58 217 -160l209 64l28 -94l-151 -47
q45 -45 65 -70zM795 188q102 94 102 324q0 192 -72 291.5t-239 99.5q-152 0 -230 -84q-84 -97 -84 -307q0 -192 71.5 -291.5t242.5 -99.5q136 0 209 67z" />
    <glyph glyph-name="ntilde" unicode="&#xf1;" horiz-adv-x="1144" 
d="M465 1251q-73 0 -84 -77h-113q0 33 15 74t41 69q60 63 153 63q43 0 85.5 -21.5t79 -43t63.5 -21.5q16 0 28 5t18 8.5t14 19.5t8.5 18.5t8.5 24.5h121q-14 -105 -61 -149q-57 -54 -137 -54q-50 0 -93 21t-79 42t-68 21zM940 934q28 -30 45.5 -69t24 -87t8.5 -82.5t2 -87.5
v-608h-191v598q0 50 -1 71t-6 58.5t-18 62.5t-36 46q-26 26 -61 40t-59.5 16.5t-61.5 2.5q-32 0 -62.5 -6t-69.5 -26.5t-67.5 -54.5t-48 -96.5t-19.5 -146.5v-565h-184v1024h184v-156q80 181 316 181q196 0 305 -115z" />
    <glyph glyph-name="ograve" unicode="&#xf2;" horiz-adv-x="1169" 
d="M688 1174h-151l-189 260h207zM586 -25q-239 0 -375.5 143t-136.5 394q0 237 139 387t373 150q231 0 370.5 -151t139.5 -386q0 -242 -140 -389.5t-370 -147.5zM586 121q150 0 227 86q84 97 84 305q0 211 -86 307q-78 84 -225 84q-149 0 -224 -78q-90 -93 -90 -313t90 -313
q75 -78 224 -78z" />
    <glyph glyph-name="oacute" unicode="&#xf3;" horiz-adv-x="1169" 
d="M651 1174h-151l133 260h207zM586 -25q-239 0 -375.5 143t-136.5 394q0 237 139 387t373 150q231 0 370.5 -151t139.5 -386q0 -242 -140 -389.5t-370 -147.5zM586 121q150 0 227 86q84 97 84 305q0 211 -86 307q-78 84 -225 84q-149 0 -224 -78q-90 -93 -90 -313t90 -313
q75 -78 224 -78z" />
    <glyph glyph-name="ocircumflex" unicode="&#xf4;" horiz-adv-x="1169" 
d="M700 1198l-114 115l-119 -115h-154l191 207h170l190 -207h-164zM586 1049q231 0 370.5 -151t139.5 -386q0 -242 -140 -389.5t-370 -147.5q-239 0 -375.5 143t-136.5 394q0 237 139 387t373 150zM813 207q84 97 84 305q0 211 -86 307q-78 84 -225 84q-149 0 -224 -78
q-90 -93 -90 -313t90 -313q75 -78 224 -78q150 0 227 86z" />
    <glyph glyph-name="otilde" unicode="&#xf5;" horiz-adv-x="1169" 
d="M709 1167q-50 0 -93 21t-79 42t-68 21q-73 0 -84 -77h-113q0 33 15 74t41 69q60 63 153 63q43 0 85.5 -21.5t79 -43t63.5 -21.5q16 0 28 5t18 8.5t14 19.5t8.5 18.5t8.5 24.5h121q-14 -105 -61 -149q-57 -54 -137 -54zM586 -25q-239 0 -375.5 143t-136.5 394
q0 237 139 387t373 150q231 0 370.5 -151t139.5 -386q0 -242 -140 -389.5t-370 -147.5zM586 121q150 0 227 86q84 97 84 305q0 211 -86 307q-78 84 -225 84q-149 0 -224 -78q-90 -93 -90 -313t90 -313q75 -78 224 -78z" />
    <glyph glyph-name="odieresis" unicode="&#xf6;" horiz-adv-x="1169" 
d="M485 1198h-168v199h168v-199zM860 1198h-168v199h168v-199zM586 -25q-239 0 -375.5 143t-136.5 394q0 237 139 387t373 150q231 0 370.5 -151t139.5 -386q0 -242 -140 -389.5t-370 -147.5zM586 121q150 0 227 86q84 97 84 305q0 211 -86 307q-78 84 -225 84
q-149 0 -224 -78q-90 -93 -90 -313t90 -313q75 -78 224 -78z" />
    <glyph glyph-name="divide" unicode="&#xf7;" horiz-adv-x="1107" 
d="M657 911h-206v217h206v-217zM1012 588h-916v137h916v-137zM657 190h-206v218h206v-218z" />
    <glyph glyph-name="oslash" unicode="&#xf8;" horiz-adv-x="1181" 
d="M1102 1001l-117 -124q119 -147 119 -365q0 -242 -140 -389.5t-370 -147.5q-213 0 -344 113l-109 -117l-65 60l112 121q-106 136 -106 360q0 237 139 387t373 150q190 0 328 -109l114 123zM281 512q0 -142 34 -225l500 538q-78 78 -221 78q-148 0 -223 -78
q-90 -93 -90 -313zM821 207q84 97 84 305q0 147 -41 236l-502 -539q1 -2 9 -10q75 -78 223 -78q150 0 227 86z" />
    <glyph glyph-name="ugrave" unicode="&#xf9;" horiz-adv-x="1144" 
d="M539 1434l133 -260h-152l-188 260h207zM825 449v575h185v-1024h-185v154q-41 -87 -123 -133t-192 -46q-194 0 -303 115q-37 39 -56.5 100t-22.5 105.5t-3 116.5v612h190v-602q0 -63 2 -93t15.5 -71.5t42.5 -69.5q27 -27 62.5 -40.5t60.5 -16t63 -2.5q35 0 64 4.5t68 23
t66 51t46.5 94.5t19.5 147z" />
    <glyph glyph-name="uacute" unicode="&#xfa;" horiz-adv-x="1144" 
d="M616 1434h207l-188 -260h-152zM825 449v575h185v-1024h-185v154q-41 -87 -123 -133t-192 -46q-194 0 -303 115q-37 39 -56.5 100t-22.5 105.5t-3 116.5v612h190v-602q0 -63 2 -93t15.5 -71.5t42.5 -69.5q27 -27 62.5 -40.5t60.5 -16t63 -2.5q35 0 64 4.5t68 23t66 51
t46.5 94.5t19.5 147z" />
    <glyph glyph-name="ucircumflex" unicode="&#xfb;" horiz-adv-x="1144" 
d="M684 1198l-115 115l-118 -115h-154l190 207h170l191 -207h-164zM825 449v575h185v-1024h-185v154q-41 -87 -123 -133t-192 -46q-194 0 -303 115q-37 39 -56.5 100t-22.5 105.5t-3 116.5v612h190v-602q0 -63 2 -93t15.5 -71.5t42.5 -69.5q27 -27 62.5 -40.5t60.5 -16
t63 -2.5q35 0 64 4.5t68 23t66 51t46.5 94.5t19.5 147z" />
    <glyph glyph-name="udieresis" unicode="&#xfc;" horiz-adv-x="1144" 
d="M301 1397h168v-199h-168v199zM676 1397h168v-199h-168v199zM825 449v575h185v-1024h-185v154q-41 -87 -123 -133t-192 -46q-194 0 -303 115q-37 39 -56.5 100t-22.5 105.5t-3 116.5v612h190v-602q0 -63 2 -93t15.5 -71.5t42.5 -69.5q27 -27 62.5 -40.5t60.5 -16t63 -2.5
q35 0 64 4.5t68 23t66 51t46.5 94.5t19.5 147z" />
    <glyph glyph-name="yacute" unicode="&#xfd;" horiz-adv-x="989" 
d="M524 1434h207l-188 -260h-152zM588 471l196 553h193l-418 -1118q-66 -176 -131.5 -251t-167.5 -75q-80 0 -156 21l5 172q71 -23 127 -23q23 0 42 11.5t33.5 27.5t33 54.5t31.5 69.5t38 95l-400 1016h197l195 -553q21 -59 90 -272q54 163 92 272z" />
    <glyph glyph-name="thorn" unicode="&#xfe;" horiz-adv-x="1189" 
d="M643 1049q208 0 339.5 -145.5t131.5 -391.5q0 -242 -128.5 -389.5t-336.5 -147.5q-217 0 -330 158v-543h-184v1844h184v-560q114 175 324 175zM817 193q94 91 94 319q0 95 -13.5 163t-46.5 121.5t-93 80t-148 26.5q-146 0 -219 -94q-78 -101 -78 -295q0 -63 6 -114.5
t25 -105t50.5 -89.5t85.5 -59t126 -23q138 0 211 70z" />
    <glyph glyph-name="ydieresis" unicode="&#xff;" horiz-adv-x="989" 
d="M227 1397h168v-199h-168v199zM602 1397h168v-199h-168v199zM588 471l196 553h193l-418 -1118q-66 -176 -131.5 -251t-167.5 -75q-80 0 -156 21l5 172q71 -23 127 -23q23 0 42 11.5t33.5 27.5t33 54.5t31.5 69.5t38 95l-400 1016h197l195 -553q21 -59 90 -272
q54 163 92 272z" />
    <glyph glyph-name="Amacron" unicode="&#x100;" horiz-adv-x="1327" 
d="M401 1716h525v-143h-525v143zM1321 0h-195l-159 428h-609l-157 -428h-197l561 1434h197zM580 1024l-160 -432h485l-162 432q-37 98 -81 231h-3q-50 -151 -79 -231z" />
    <glyph glyph-name="amacron" unicode="&#x101;" horiz-adv-x="1105" 
d="M279 1366h524v-143h-524v143zM1065 152l4 -152q-52 -8 -115 -8q-169 0 -184 160q-86 -177 -344 -177q-66 0 -126.5 18.5t-109.5 53.5t-78.5 92.5t-29.5 130.5q0 64 21.5 114.5t53.5 82.5t81 56.5t92.5 37t99.5 23.5l338 65q0 76 -6.5 116.5t-28.5 70.5q-47 67 -186 67
q-133 0 -191.5 -52t-58.5 -169l-180 25q6 186 127 266q115 76 313 76q193 0 291 -85.5t98 -252.5v-490q0 -24 1 -35t6.5 -23t18 -16t34.5 -4q18 0 59 9zM768 387v125l-309 -68q-96 -22 -142.5 -57t-46.5 -115q0 -69 53 -109t132 -40q159 0 236 73t77 191z" />
    <glyph glyph-name="Abreve" unicode="&#x102;" horiz-adv-x="1327" 
d="M664 1536q-102 0 -173 65t-75 171h127q8 -53 36.5 -78t82.5 -25q111 0 126 103h123q-5 -101 -74 -168.5t-173 -67.5zM1321 0h-195l-159 428h-609l-157 -428h-197l561 1434h197zM580 1024l-160 -432h485l-162 432q-37 98 -81 231h-3q-50 -151 -79 -231z" />
    <glyph glyph-name="abreve" unicode="&#x103;" horiz-adv-x="1105" 
d="M541 1198q-102 0 -173 65t-75 171h127q8 -53 36.5 -78t82.5 -25q53 0 86.5 26t40.5 77h122q-5 -101 -74 -168.5t-173 -67.5zM1065 152l4 -152q-52 -8 -115 -8q-169 0 -184 160q-86 -177 -344 -177q-66 0 -126.5 18.5t-109.5 53.5t-78.5 92.5t-29.5 130.5q0 64 21.5 114.5
t53.5 82.5t81 56.5t92.5 37t99.5 23.5l338 65q0 76 -6.5 116.5t-28.5 70.5q-47 67 -186 67q-133 0 -191.5 -52t-58.5 -169l-180 25q6 186 127 266q115 76 313 76q193 0 291 -85.5t98 -252.5v-490q0 -24 1 -35t6.5 -23t18 -16t34.5 -4q18 0 59 9zM768 387v125l-309 -68
q-96 -22 -142.5 -57t-46.5 -115q0 -69 53 -109t132 -40q159 0 236 73t77 191z" />
    <glyph glyph-name="Aogonek" unicode="&#x104;" horiz-adv-x="1327" 
d="M1319 -221l6 -133q-57 -17 -111 -17q-87 0 -141.5 42.5t-54.5 115.5q0 71 50 125t124 88h-66l-159 428h-609l-157 -428h-197l561 1434h197l559 -1434q-143 -92 -143 -174q0 -62 73 -62q31 0 68 15zM580 1024l-160 -432h485l-162 432q-37 98 -81 231h-3q-50 -151 -79 -231
z" />
    <glyph glyph-name="aogonek" unicode="&#x105;" horiz-adv-x="1105" 
d="M1067 -221l6 -133q-57 -17 -110 -17q-87 0 -142 42.5t-55 115.5q0 125 160 207q-144 12 -156 158q-86 -177 -344 -177q-66 0 -126.5 18.5t-109.5 53.5t-78.5 92.5t-29.5 130.5q0 64 21.5 114.5t53.5 82.5t81 56.5t92.5 37t99.5 23.5l338 65q0 76 -6.5 116.5t-28.5 70.5
q-47 67 -186 67q-133 0 -191.5 -52t-58.5 -169l-180 25q6 186 127 266q115 76 313 76q193 0 291 -85.5t98 -252.5v-490q0 -24 1 -35t6.5 -23t18 -16t34.5 -4q18 0 59 9l4 -152q-143 -92 -143 -174q0 -62 73 -62q31 0 68 15zM768 387v125l-309 -68q-96 -22 -142.5 -57
t-46.5 -115q0 -69 53 -109t132 -40q159 0 236 73t77 191z" />
    <glyph glyph-name="Cacute" unicode="&#x106;" horiz-adv-x="1439" 
d="M831 1548h-151l129 221h205zM766 -25q-326 0 -503 192.5t-177 549.5q0 219 77 384.5t232.5 261t370.5 95.5q149 0 273 -49t216 -151t131 -248l-202 -39q-17 66 -51 124t-85 104t-122.5 72.5t-155.5 26.5q-258 0 -373 -161q-102 -143 -102 -420q0 -276 102 -422
q55 -78 150.5 -119t218.5 -41q164 0 269.5 84t152.5 219l211 -55q-87 -198 -248 -303t-385 -105z" />
    <glyph glyph-name="cacute" unicode="&#x107;" horiz-adv-x="1087" 
d="M635 1174h-152l133 260h207zM582 -25q-236 0 -372 143t-136 394q0 239 138 388t370 149q186 0 300.5 -97.5t147.5 -253.5l-172 -32q-13 50 -31 88t-49 73.5t-80.5 54.5t-115.5 19q-164 0 -238 -96q-68 -93 -68 -293q0 -93 13.5 -159.5t46 -120.5t94 -81.5t152.5 -27.5
q118 0 183.5 49t94.5 160l174 -19q-28 -155 -150.5 -246.5t-301.5 -91.5z" />
    <glyph glyph-name="Ccircumflex" unicode="&#x108;" horiz-adv-x="1439" 
d="M874 1548l-114 115l-119 -115h-154l191 207h170l190 -207h-164zM1188 438l211 -55q-87 -198 -248 -303t-385 -105q-326 0 -503 192.5t-177 549.5q0 219 77 384.5t232.5 261t370.5 95.5q149 0 273 -49t216 -151t131 -248l-202 -39q-17 66 -51 124t-85 104t-122.5 72.5
t-155.5 26.5q-258 0 -373 -161q-102 -143 -102 -420q0 -276 102 -422q55 -78 150.5 -119t218.5 -41q164 0 269.5 84t152.5 219z" />
    <glyph glyph-name="ccircumflex" unicode="&#x109;" horiz-adv-x="1087" 
d="M684 1198l-115 115l-118 -115h-154l190 207h170l191 -207h-164zM860 332l174 -19q-28 -155 -150.5 -246.5t-301.5 -91.5q-236 0 -372 143t-136 394q0 239 138 388t370 149q186 0 300.5 -97.5t147.5 -253.5l-172 -32q-13 50 -31 88t-49 73.5t-80.5 54.5t-115.5 19
q-164 0 -238 -96q-68 -93 -68 -293q0 -93 13.5 -159.5t46 -120.5t94 -81.5t152.5 -27.5q118 0 183.5 49t94.5 160z" />
    <glyph glyph-name="Cdotaccent" unicode="&#x10a;" horiz-adv-x="1439" 
d="M856 1548h-184v217h184v-217zM766 -25q-326 0 -503 192.5t-177 549.5q0 219 77 384.5t232.5 261t370.5 95.5q149 0 273 -49t216 -151t131 -248l-202 -39q-17 66 -51 124t-85 104t-122.5 72.5t-155.5 26.5q-258 0 -373 -161q-102 -143 -102 -420q0 -276 102 -422
q55 -78 150.5 -119t218.5 -41q164 0 269.5 84t152.5 219l211 -55q-87 -198 -248 -303t-385 -105z" />
    <glyph glyph-name="cdotaccent" unicode="&#x10b;" horiz-adv-x="1087" 
d="M666 1217h-185v217h185v-217zM582 -25q-236 0 -372 143t-136 394q0 239 138 388t370 149q186 0 300.5 -97.5t147.5 -253.5l-172 -32q-13 50 -31 88t-49 73.5t-80.5 54.5t-115.5 19q-164 0 -238 -96q-68 -93 -68 -293q0 -93 13.5 -159.5t46 -120.5t94 -81.5t152.5 -27.5
q118 0 183.5 49t94.5 160l174 -19q-28 -155 -150.5 -246.5t-301.5 -91.5z" />
    <glyph glyph-name="Ccaron" unicode="&#x10c;" horiz-adv-x="1439" 
d="M1038 1755l-190 -207h-170l-191 207h154l119 -115l114 115h164zM1188 438l211 -55q-87 -198 -248 -303t-385 -105q-326 0 -503 192.5t-177 549.5q0 219 77 384.5t232.5 261t370.5 95.5q149 0 273 -49t216 -151t131 -248l-202 -39q-17 66 -51 124t-85 104t-122.5 72.5
t-155.5 26.5q-258 0 -373 -161q-102 -143 -102 -420q0 -276 102 -422q55 -78 150.5 -119t218.5 -41q164 0 269.5 84t152.5 219z" />
    <glyph glyph-name="ccaron" unicode="&#x10d;" horiz-adv-x="1087" 
d="M848 1405l-191 -207h-170l-190 207h154l118 -115l115 115h164zM860 332l174 -19q-28 -155 -150.5 -246.5t-301.5 -91.5q-236 0 -372 143t-136 394q0 239 138 388t370 149q186 0 300.5 -97.5t147.5 -253.5l-172 -32q-13 50 -31 88t-49 73.5t-80.5 54.5t-115.5 19
q-164 0 -238 -96q-68 -93 -68 -293q0 -93 13.5 -159.5t46 -120.5t94 -81.5t152.5 -27.5q118 0 183.5 49t94.5 160z" />
    <glyph glyph-name="Dcaron" unicode="&#x10e;" horiz-adv-x="1423" 
d="M926 1755l-191 -207h-170l-190 207h153l119 -115l115 115h164zM170 1434h487q213 0 368 -90t233.5 -251t78.5 -376q0 -337 -180.5 -527t-499.5 -190h-487v1434zM1026 311q54 77 78 172t24 234q0 140 -24 233t-78 170q-52 75 -153.5 114.5t-235.5 39.5h-283v-1114h283
q139 0 239 39.5t150 111.5z" />
    <glyph glyph-name="dcaron" unicode="&#x10f;" horiz-adv-x="1230" 
d="M870 891v543h185v-1434h-185v150q-114 -175 -323 -175q-208 0 -339.5 145.5t-131.5 391.5q0 242 128.5 389.5t336.5 147.5q216 0 329 -158zM1169 1270v164h187v-154q0 -84 -49 -128.5t-138 -49.5v76q48 6 70.5 28t22.5 64h-93zM780 195q97 97 97 315q0 63 -6 114.5
t-25 105t-50.5 89.5t-85.5 59t-126 23q-153 0 -226 -86q-79 -94 -79 -303q0 -95 13.5 -163t46.5 -121.5t93 -80t148 -26.5q126 0 200 74z" />
    <glyph glyph-name="Dcroat" unicode="&#x110;" horiz-adv-x="1439" 
d="M186 1434h488q213 0 368 -90t233.5 -251t78.5 -376q0 -337 -180.5 -527t-499.5 -190h-488v639h-149v158h149v637zM1042 311q54 77 78.5 172t24.5 234t-24 232.5t-79 170.5q-52 75 -153.5 114.5t-235.5 39.5h-282v-477h354v-158h-354v-479h282q139 0 239 39.5t150 111.5z
" />
    <glyph glyph-name="dcroat" unicode="&#x111;" horiz-adv-x="1189" 
d="M1055 1278h143v-131h-143v-1147h-185v150q-114 -175 -323 -175q-208 0 -339.5 145.5t-131.5 391.5q0 242 128.5 389.5t336.5 147.5q216 0 329 -158v256h-311v131h311v156h185v-156zM780 195q97 97 97 315q0 63 -6 114.5t-25 105t-50.5 89.5t-85.5 59t-126 23
q-153 0 -226 -86q-79 -94 -79 -303q0 -95 13.5 -163t46.5 -121.5t93 -80t148 -26.5q126 0 200 74z" />
    <glyph glyph-name="Emacron" unicode="&#x112;" horiz-adv-x="1191" 
d="M903 1573h-524v143h524v-143zM1096 0h-926v1434h926v-166h-742v-461h666v-166h-666v-475h742v-166z" />
    <glyph glyph-name="emacron" unicode="&#x113;" horiz-adv-x="1126" 
d="M305 1366h524v-143h-524v143zM967 846q46 -74 69 -177.5t17 -211.5h-777q3 -169 74.5 -251.5t216.5 -82.5q131 0 202.5 56t90.5 173l178 -14q-34 -179 -153.5 -271t-315.5 -92q-239 0 -368 150q-125 140 -125 389q0 237 129 381q136 154 362 154q124 0 231 -52.5
t169 -150.5zM569 899q-85 0 -147.5 -29.5t-93.5 -81.5q-49 -81 -49 -182h585q-2 44 -16.5 95.5t-38.5 86.5q-75 111 -240 111z" />
    <glyph glyph-name="Ebreve" unicode="&#x114;" horiz-adv-x="1191" 
d="M641 1536q-102 0 -173 65t-75 171h127q8 -53 36.5 -78t82.5 -25q53 0 86.5 26t40.5 77h123q-5 -101 -74.5 -168.5t-173.5 -67.5zM1096 0h-926v1434h926v-166h-742v-461h666v-166h-666v-475h742v-166z" />
    <glyph glyph-name="ebreve" unicode="&#x115;" horiz-adv-x="1126" 
d="M567 1198q-102 0 -173 65t-75 171h127q8 -53 36.5 -78t82.5 -25q53 0 86.5 26t40.5 77h123q-5 -101 -74.5 -168.5t-173.5 -67.5zM967 846q46 -74 69 -177.5t17 -211.5h-777q3 -169 74.5 -251.5t216.5 -82.5q131 0 202.5 56t90.5 173l178 -14q-34 -179 -153.5 -271
t-315.5 -92q-239 0 -368 150q-125 140 -125 389q0 237 129 381q136 154 362 154q124 0 231 -52.5t169 -150.5zM569 899q-85 0 -147.5 -29.5t-93.5 -81.5q-49 -81 -49 -182h585q-2 44 -16.5 95.5t-38.5 86.5q-75 111 -240 111z" />
    <glyph glyph-name="Edotaccent" unicode="&#x116;" horiz-adv-x="1191" 
d="M733 1548h-184v217h184v-217zM1096 0h-926v1434h926v-166h-742v-461h666v-166h-666v-475h742v-166z" />
    <glyph glyph-name="edotaccent" unicode="&#x117;" horiz-adv-x="1126" 
d="M475 1434h184v-217h-184v217zM967 846q46 -74 69 -177.5t17 -211.5h-777q3 -169 74.5 -251.5t216.5 -82.5q131 0 202.5 56t90.5 173l178 -14q-34 -179 -153.5 -271t-315.5 -92q-239 0 -368 150q-125 140 -125 389q0 237 129 381q136 154 362 154q124 0 231 -52.5
t169 -150.5zM569 899q-85 0 -147.5 -29.5t-93.5 -81.5q-49 -81 -49 -182h585q-2 44 -16.5 95.5t-38.5 86.5q-75 111 -240 111z" />
    <glyph glyph-name="Eogonek" unicode="&#x118;" horiz-adv-x="1191" 
d="M1094 -221l6 -133q-57 -17 -111 -17q-87 0 -141.5 42.5t-54.5 115.5q0 71 50 125t124 88h-797v1434h926v-166h-742v-461h666v-166h-666v-475h742v-166q-144 -93 -144 -174q0 -30 20 -46t54 -16q30 0 68 15z" />
    <glyph glyph-name="eogonek" unicode="&#x119;" horiz-adv-x="1126" 
d="M967 846q46 -74 69 -177.5t17 -211.5h-777q3 -169 74.5 -251.5t216.5 -82.5q131 0 202.5 56t90.5 173l178 -14q-41 -211 -196 -299q-199 -127 -199 -211q0 -68 84 -68q35 0 78 15l6 -129q-56 -17 -115 -17q-105 0 -159 48t-54 124q0 95 115 174h-29q-239 0 -368 150
q-125 140 -125 389q0 237 129 381q136 154 362 154q124 0 231 -52.5t169 -150.5zM569 899q-85 0 -147.5 -29.5t-93.5 -81.5q-49 -81 -49 -182h585q-2 44 -16.5 95.5t-38.5 86.5q-75 111 -240 111z" />
    <glyph glyph-name="Ecaron" unicode="&#x11a;" horiz-adv-x="1191" 
d="M915 1755l-190 -207h-170l-190 207h153l119 -115l115 115h163zM1096 1434v-166h-742v-461h666v-166h-666v-475h742v-166h-926v1434h926z" />
    <glyph glyph-name="ecaron" unicode="&#x11b;" horiz-adv-x="1126" 
d="M842 1405l-191 -207h-170l-190 207h153l119 -115l115 115h164zM967 846q46 -74 69 -177.5t17 -211.5h-777q3 -169 74.5 -251.5t216.5 -82.5q131 0 202.5 56t90.5 173l178 -14q-34 -179 -153.5 -271t-315.5 -92q-239 0 -368 150q-125 140 -125 389q0 237 129 381
q136 154 362 154q124 0 231 -52.5t169 -150.5zM569 899q-85 0 -147.5 -29.5t-93.5 -81.5q-49 -81 -49 -182h585q-2 44 -16.5 95.5t-38.5 86.5q-75 111 -240 111z" />
    <glyph glyph-name="Gcircumflex" unicode="&#x11c;" horiz-adv-x="1501" 
d="M883 1548l-115 115l-119 -115h-153l190 207h170l191 -207h-164zM782 586v174h611v-760h-152l-16 197q-73 -109 -190.5 -165.5t-268.5 -56.5q-326 0 -503 192.5t-177 549.5q0 219 77 384.5t232.5 261t370.5 95.5q148 0 270.5 -49t212.5 -151t129 -248l-200 -39
q-39 140 -143 233.5t-265 93.5q-258 0 -373 -161q-104 -146 -104 -420q0 -277 104 -426q110 -156 389 -156q204 0 311.5 114.5t110.5 336.5h-426z" />
    <glyph glyph-name="gcircumflex" unicode="&#x11d;" horiz-adv-x="1187" 
d="M694 1198l-114 115l-119 -115h-154l191 207h170l190 -207h-164zM868 881v143h185v-1001q0 -205 -133 -324t-359 -119q-64 0 -123 11t-115.5 37t-98.5 64.5t-69 98.5t-30 135l176 13q6 -120 77 -167.5t204 -47.5q128 0 207 75t79 211v174q-112 -176 -323 -176
q-212 0 -340.5 145.5t-128.5 385.5q0 227 128.5 368.5t334.5 141.5q218 0 329 -168zM784 240q93 101 93 299q0 180 -76.5 271t-222.5 91q-152 0 -224 -84q-78 -83 -78 -278q0 -95 13.5 -162t46 -118.5t91.5 -77t146 -25.5q134 0 211 84z" />
    <glyph glyph-name="Gbreve" unicode="&#x11e;" horiz-adv-x="1501" 
d="M772 1536q-102 0 -173 65t-75 171h127q8 -53 36.5 -78t82.5 -25q53 0 86.5 26t40.5 77h123q-5 -101 -74.5 -168.5t-173.5 -67.5zM782 586v174h611v-760h-152l-16 197q-73 -109 -190.5 -165.5t-268.5 -56.5q-326 0 -503 192.5t-177 549.5q0 219 77 384.5t232.5 261
t370.5 95.5q148 0 270.5 -49t212.5 -151t129 -248l-200 -39q-39 140 -143 233.5t-265 93.5q-258 0 -373 -161q-104 -146 -104 -420q0 -277 104 -426q110 -156 389 -156q204 0 311.5 114.5t110.5 336.5h-426z" />
    <glyph glyph-name="gbreve" unicode="&#x11f;" horiz-adv-x="1187" 
d="M584 1198q-102 0 -173 65t-75 171h127q8 -53 36.5 -78t82.5 -25q53 0 86.5 26t40.5 77h122q-5 -101 -74 -168.5t-173 -67.5zM868 881v143h185v-1001q0 -205 -133 -324t-359 -119q-64 0 -123 11t-115.5 37t-98.5 64.5t-69 98.5t-30 135l176 13q6 -120 77 -167.5t204 -47.5
q128 0 207 75t79 211v174q-112 -176 -323 -176q-212 0 -340.5 145.5t-128.5 385.5q0 227 128.5 368.5t334.5 141.5q218 0 329 -168zM784 240q93 101 93 299q0 180 -76.5 271t-222.5 91q-152 0 -224 -84q-78 -83 -78 -278q0 -95 13.5 -162t46 -118.5t91.5 -77t146 -25.5
q134 0 211 84z" />
    <glyph glyph-name="Gdotaccent" unicode="&#x120;" horiz-adv-x="1501" 
d="M680 1765h184v-217h-184v217zM782 586v174h611v-760h-152l-16 197q-73 -109 -190.5 -165.5t-268.5 -56.5q-326 0 -503 192.5t-177 549.5q0 219 77 384.5t232.5 261t370.5 95.5q148 0 270.5 -49t212.5 -151t129 -248l-200 -39q-39 140 -143 233.5t-265 93.5
q-258 0 -373 -161q-104 -146 -104 -420q0 -277 104 -426q110 -156 389 -156q204 0 311.5 114.5t110.5 336.5h-426z" />
    <glyph glyph-name="gdotaccent" unicode="&#x121;" horiz-adv-x="1187" 
d="M492 1434h184v-217h-184v217zM868 881v143h185v-1001q0 -205 -133 -324t-359 -119q-64 0 -123 11t-115.5 37t-98.5 64.5t-69 98.5t-30 135l176 13q6 -120 77 -167.5t204 -47.5q128 0 207 75t79 211v174q-112 -176 -323 -176q-212 0 -340.5 145.5t-128.5 385.5
q0 227 128.5 368.5t334.5 141.5q218 0 329 -168zM784 240q93 101 93 299q0 180 -76.5 271t-222.5 91q-152 0 -224 -84q-78 -83 -78 -278q0 -95 13.5 -162t46 -118.5t91.5 -77t146 -25.5q134 0 211 84z" />
    <glyph glyph-name="uni0122" unicode="&#x122;" horiz-adv-x="1501" 
d="M782 586v174h611v-760h-152l-16 197q-73 -109 -190.5 -165.5t-268.5 -56.5q-326 0 -503 192.5t-177 549.5q0 219 77 384.5t232.5 261t370.5 95.5q148 0 270.5 -49t212.5 -151t129 -248l-200 -39q-39 140 -143 233.5t-265 93.5q-258 0 -373 -161q-104 -146 -104 -420
q0 -277 104 -426q110 -156 389 -156q204 0 311.5 114.5t110.5 336.5h-426zM762 -309h-96v174h194v-162q0 -89 -51.5 -136t-144.5 -52v79q51 6 74.5 29.5t23.5 67.5z" />
    <glyph glyph-name="uni0123" unicode="&#x123;" horiz-adv-x="1187" 
d="M567 1348h97v-174h-195v161q0 89 52 136.5t145 52.5v-80q-51 -6 -75 -29t-24 -67zM868 881v143h185v-1001q0 -205 -133 -324t-359 -119q-64 0 -123 11t-115.5 37t-98.5 64.5t-69 98.5t-30 135l176 13q6 -120 77 -167.5t204 -47.5q128 0 207 75t79 211v174
q-112 -176 -323 -176q-212 0 -340.5 145.5t-128.5 385.5q0 227 128.5 368.5t334.5 141.5q218 0 329 -168zM784 240q93 101 93 299q0 180 -76.5 271t-222.5 91q-152 0 -224 -84q-78 -83 -78 -278q0 -95 13.5 -162t46 -118.5t91.5 -77t146 -25.5q134 0 211 84z" />
    <glyph glyph-name="Hcircumflex" unicode="&#x124;" horiz-adv-x="1431" 
d="M827 1548l-114 115l-119 -115h-154l191 207h170l190 -207h-164zM1075 807v627h187v-1434h-187v641h-719v-641h-186v1434h186v-627h719z" />
    <glyph glyph-name="hcircumflex" unicode="&#x125;" horiz-adv-x="1144" 
d="M727 1548l-115 115l-118 -115h-154l190 207h170l191 -207h-164zM940 934q28 -30 45.5 -68t24 -86t8.5 -81.5t2 -86.5v-612h-191v602q0 50 -1 70.5t-6 57t-18 61t-36 45.5q-26 26 -61 40t-59.5 16.5t-61.5 2.5q-24 0 -44.5 -2t-48.5 -9.5t-51 -20.5t-46.5 -37.5t-39.5 -57
t-26.5 -82.5t-10.5 -111v-575h-184v1434h184v-564q42 90 123.5 134.5t192.5 44.5q196 0 305 -115z" />
    <glyph glyph-name="Hbar" unicode="&#x126;" horiz-adv-x="1474" 
d="M1282 1182h154v-154h-154v-1028h-186v641h-719v-641h-187v1028h-151v154h151v252h187v-252h719v252h186v-252zM377 807h719v221h-719v-221z" />
    <glyph glyph-name="hbar" unicode="&#x127;" horiz-adv-x="1144" 
d="M940 934q28 -30 45.5 -68t24 -86t8.5 -81.5t2 -86.5v-612h-191v602q0 50 -1 70.5t-6 57t-18 61t-36 45.5q-26 26 -61 40t-59.5 16.5t-61.5 2.5q-24 0 -44.5 -2t-48.5 -9.5t-51 -20.5t-46.5 -37.5t-39.5 -57t-26.5 -82.5t-10.5 -111v-575h-184v1147h-147v131h147v156h184
v-156h279v-131h-279v-277q42 90 123.5 134.5t192.5 44.5q196 0 305 -115z" />
    <glyph glyph-name="Itilde" unicode="&#x128;" horiz-adv-x="526" 
d="M383 1542q-50 0 -93 21t-79 42t-68 21q-73 0 -84 -78h-112q0 34 14.5 75.5t40.5 68.5q60 63 154 63q43 0 85 -21.5t78.5 -43t63.5 -21.5q20 0 33 5t22 19t12 21.5t11 30.5h121q-14 -105 -62 -150q-56 -53 -137 -53zM356 0h-186v1434h186v-1434z" />
    <glyph glyph-name="itilde" unicode="&#x129;" horiz-adv-x="454" 
d="M346 1167q-50 0 -93 21t-79 42t-68 21q-72 0 -83 -77h-113q0 34 14.5 75t40.5 68q60 63 154 63q43 0 85 -21.5t78.5 -43t63.5 -21.5q20 0 33 5t22 19t12 21.5t11 30.5h121q-14 -104 -62 -149q-57 -54 -137 -54zM319 0h-184v1024h184v-1024z" />
    <glyph glyph-name="Imacron" unicode="&#x12a;" horiz-adv-x="526" 
d="M526 1573h-524v143h524v-143zM356 0h-186v1434h186v-1434z" />
    <glyph glyph-name="imacron" unicode="&#x12b;" horiz-adv-x="454" 
d="M489 1223h-524v143h524v-143zM319 0h-184v1024h184v-1024z" />
    <glyph glyph-name="Ibreve" unicode="&#x12c;" horiz-adv-x="526" 
d="M264 1536q-102 0 -173 65t-75 171h127q8 -53 36.5 -78t82.5 -25q53 0 86.5 26t40.5 77h123q-5 -101 -74.5 -168.5t-173.5 -67.5zM356 0h-186v1434h186v-1434z" />
    <glyph glyph-name="ibreve" unicode="&#x12d;" horiz-adv-x="454" 
d="M227 1198q-102 0 -172.5 64.5t-74.5 171.5h126q8 -53 36.5 -78t82.5 -25q53 0 86.5 26t40.5 77h123q-5 -101 -74.5 -168.5t-173.5 -67.5zM319 0h-184v1024h184v-1024z" />
    <glyph glyph-name="Iogonek" unicode="&#x12e;" horiz-adv-x="526" 
d="M354 -221l6 -133q-57 -17 -110 -17q-87 0 -142 42.5t-55 115.5q0 71 50 125t124 88h-57v1434h186v-1434q-143 -92 -143 -174q0 -30 20 -46t54 -16q29 0 67 15z" />
    <glyph glyph-name="iogonek" unicode="&#x12f;" horiz-adv-x="454" 
d="M135 1434h184v-217h-184v217zM317 -221l7 -133q-57 -17 -111 -17q-87 0 -142 42.5t-55 115.5q0 71 50 125t124 88h-55v1024h184v-1024q-143 -92 -143 -174q0 -30 20 -46t54 -16q30 0 67 15z" />
    <glyph glyph-name="Idotaccent" unicode="&#x130;" horiz-adv-x="526" 
d="M356 1548h-184v217h184v-217zM356 0h-186v1434h186v-1434z" />
    <glyph glyph-name="dotlessi" unicode="&#x131;" horiz-adv-x="454" 
d="M319 0h-184v1024h184v-1024z" />
    <glyph glyph-name="IJ" unicode="&#x132;" horiz-adv-x="1556" 
d="M356 0h-186v1434h186v-1434zM995 -25q-198 0 -307.5 112.5t-109.5 313.5v121h186v-92q0 -53 4.5 -92.5t19 -79.5t40 -65.5t68.5 -41.5t103 -16q52 0 91 14.5t62 38t37 59t18.5 72.5t4.5 84v1031h187v-1059q0 -58 -11 -111t-39.5 -107t-73 -93.5t-116.5 -64t-164 -24.5z
" />
    <glyph glyph-name="ij" unicode="&#x133;" horiz-adv-x="909" 
d="M319 1217h-184v217h184v-217zM774 1217h-184v217h184v-217zM319 0h-184v1024h184v-1024zM522 -420q-51 0 -100 10l4 172q44 -12 86 -12q47 0 62.5 34t15.5 114v1126h184v-1149q0 -142 -65 -218.5t-187 -76.5z" />
    <glyph glyph-name="Jcircumflex" unicode="&#x134;" horiz-adv-x="1030" 
d="M696 1755h170l191 -207h-164l-115 115l-119 -115h-153zM686 403v1031h186v-1059q0 -58 -11 -111t-39.5 -107t-72.5 -93.5t-116 -64t-164 -24.5q-198 0 -308 112.5t-110 313.5v121h187v-92q0 -53 4.5 -92.5t19 -79.5t40 -65.5t68.5 -41.5t103 -16q52 0 91 14.5t62 38
t37 59t18.5 72.5t4.5 84z" />
    <glyph glyph-name="jcircumflex" unicode="&#x135;" horiz-adv-x="466" 
d="M154 1405h170l190 -207h-164l-114 115l-119 -115h-154zM147 -102v1126h185v-1149q0 -142 -65 -218.5t-187 -76.5q-51 0 -100 10l4 172q43 -12 86 -12q47 0 62 33.5t15 114.5z" />
    <glyph glyph-name="uni0136" unicode="&#x136;" horiz-adv-x="1284" 
d="M1286 1434l-592 -594l606 -840h-231l-508 705l-205 -207v-498h-186v1434h186v-691l682 691h248zM657 -309h-96v174h195v-162q0 -89 -52 -136t-145 -52v79q51 6 74.5 29.5t23.5 67.5z" />
    <glyph glyph-name="uni0137" unicode="&#x137;" horiz-adv-x="1017" 
d="M997 1024l-405 -375l424 -649h-215l-338 526l-144 -135v-391h-184v1434h184v-834l429 424h249zM551 -309h-96v174h194v-162q0 -89 -51.5 -136t-144.5 -52v79q51 6 74.5 29.5t23.5 67.5z" />
    <glyph glyph-name="Lacute" unicode="&#x139;" horiz-adv-x="1116" 
d="M338 1548h-152l129 221h205zM1096 0h-926v1434h184v-1272h742v-162z" />
    <glyph glyph-name="lacute" unicode="&#x13a;" horiz-adv-x="454" 
d="M297 1548h-152l129 221h205zM319 0h-184v1434h184v-1434z" />
    <glyph glyph-name="uni013B" unicode="&#x13b;" horiz-adv-x="1116" 
d="M1096 0h-926v1434h184v-1272h742v-162zM535 -485v79q51 6 74.5 29.5t23.5 67.5h-96v174h194v-162q0 -89 -51.5 -136t-144.5 -52z" />
    <glyph glyph-name="uni013C" unicode="&#x13c;" horiz-adv-x="454" 
d="M319 0h-184v1434h184v-1434zM129 -485v79q51 6 74.5 29.5t23.5 67.5h-96v174h195v-162q0 -89 -52 -136t-145 -52z" />
    <glyph glyph-name="Lcaron" unicode="&#x13d;" horiz-adv-x="1118" 
d="M1096 0h-926v1434h184v-1272h742v-162zM604 1083v80q51 6 74.5 29.5t23.5 67.5h-96v174h195v-162q0 -89 -52 -136.5t-145 -52.5z" />
    <glyph glyph-name="lcaron" unicode="&#x13e;" horiz-adv-x="495" 
d="M319 0h-184v1434h184v-1434zM434 1102v76q48 6 70 28t22 64h-92v164h187v-154q0 -84 -49 -128.5t-138 -49.5z" />
    <glyph glyph-name="Ldot" unicode="&#x13f;" horiz-adv-x="1124" 
d="M1096 0h-926v1434h184v-1272h742v-162zM891 557h-207v217h207v-217z" />
    <glyph glyph-name="ldot" unicode="&#x140;" horiz-adv-x="747" 
d="M319 0h-184v1434h184v-1434zM705 557h-207v217h207v-217z" />
    <glyph glyph-name="Lslash" unicode="&#x141;" horiz-adv-x="1171" 
d="M410 553v-391h741v-162h-926v451l-145 -82v157l145 82v826h185v-723l221 123v-158z" />
    <glyph glyph-name="lslash" unicode="&#x142;" horiz-adv-x="610" 
d="M397 868l156 121v-158l-156 -120v-711h-184v567l-152 -118v157l152 119v709h184v-566z" />
    <glyph glyph-name="Nacute" unicode="&#x143;" horiz-adv-x="1431" 
d="M788 1548h-151l129 221h205zM352 0h-182v1434h199l538 -867q72 -117 180 -323h3q-11 218 -11 364v826h183v-1434h-209l-533 866q-66 106 -176 324h-2q10 -228 10 -365v-825z" />
    <glyph glyph-name="nacute" unicode="&#x144;" horiz-adv-x="1144" 
d="M629 1434h207l-189 -260h-151zM940 934q28 -30 45.5 -69t24 -87t8.5 -82.5t2 -87.5v-608h-191v598q0 50 -1 71t-6 58.5t-18 62.5t-36 46q-26 26 -61 40t-59.5 16.5t-61.5 2.5q-32 0 -62.5 -6t-69.5 -26.5t-67.5 -54.5t-48 -96.5t-19.5 -146.5v-565h-184v1024h184v-156
q80 181 316 181q196 0 305 -115z" />
    <glyph glyph-name="uni0145" unicode="&#x145;" horiz-adv-x="1431" 
d="M352 0h-182v1434h199l538 -867q72 -117 180 -323h3q-11 218 -11 364v826h183v-1434h-209l-533 866q-66 106 -176 324h-2q10 -228 10 -365v-825zM623 -485v79q51 6 74.5 29.5t23.5 67.5h-96v174h194v-162q0 -89 -51.5 -136t-144.5 -52z" />
    <glyph glyph-name="uni0146" unicode="&#x146;" horiz-adv-x="1144" 
d="M940 934q28 -30 45.5 -69t24 -87t8.5 -82.5t2 -87.5v-608h-191v598q0 50 -1 71t-6 58.5t-18 62.5t-36 46q-26 26 -61 40t-59.5 16.5t-61.5 2.5q-32 0 -62.5 -6t-69.5 -26.5t-67.5 -54.5t-48 -96.5t-19.5 -146.5v-565h-184v1024h184v-156q80 181 316 181q196 0 305 -115z
M578 -309h-97v174h195v-162q0 -89 -52 -136t-145 -52v79q51 6 75 29.5t24 67.5z" />
    <glyph glyph-name="Ncaron" unicode="&#x147;" horiz-adv-x="1431" 
d="M995 1755l-190 -207h-170l-191 207h154l119 -115l114 115h164zM1079 608v826h183v-1434h-209l-533 866q-66 106 -176 324h-2q10 -228 10 -365v-825h-182v1434h199l538 -867q72 -117 180 -323h3q-11 218 -11 364z" />
    <glyph glyph-name="ncaron" unicode="&#x148;" horiz-adv-x="1144" 
d="M860 1405l-190 -207h-170l-191 207h154l119 -115l114 115h164zM940 934q28 -30 45.5 -69t24 -87t8.5 -82.5t2 -87.5v-608h-191v598q0 50 -1 71t-6 58.5t-18 62.5t-36 46q-26 26 -61 40t-59.5 16.5t-61.5 2.5q-32 0 -62.5 -6t-69.5 -26.5t-67.5 -54.5t-48 -96.5
t-19.5 -146.5v-565h-184v1024h184v-156q80 181 316 181q196 0 305 -115z" />
    <glyph glyph-name="Eng" unicode="&#x14a;" horiz-adv-x="1431" 
d="M1079 623v811h183v-1434q0 -161 -84 -248q-99 -104 -297 -104q-63 0 -101 10v160q32 -4 70 -4q98 0 156.5 48t58.5 130l-545 874q-70 116 -176 324h-2q10 -228 10 -365v-825h-182v1434h199l538 -852q69 -111 180 -324h3q-11 218 -11 365z" />
    <glyph glyph-name="eng" unicode="&#x14b;" horiz-adv-x="1144" 
d="M940 934q28 -30 45.5 -69t24 -87t8.5 -82.5t2 -87.5v-714q0 -136 -82 -203q-58 -47 -176 -47q-32 0 -100 10v143q27 -6 61 -6q54 2 80 25.5t26 77.5v704q0 50 -1 71t-6 58.5t-18 62.5t-36 46q-26 26 -61 40t-59.5 16.5t-61.5 2.5q-32 0 -62.5 -6t-69.5 -26.5t-67.5 -54.5
t-48 -96.5t-19.5 -146.5v-565h-184v1024h184v-156q80 181 316 181q196 0 305 -115z" />
    <glyph glyph-name="Omacron" unicode="&#x14c;" horiz-adv-x="1527" 
d="M1032 1573h-524v143h524v-143zM766 -25q-326 0 -503 192.5t-177 549.5q0 219 77 384.5t232.5 261t370.5 95.5q212 0 367 -95.5t233 -262t78 -383.5q0 -220 -78 -386.5t-232.5 -261t-367.5 -94.5zM766 135q246 0 358 160q111 157 111 422q0 263 -111 420
q-112 161 -350 161q-131 0 -225.5 -43.5t-145.5 -109.5q-108 -142 -108 -428q0 -142 29 -253t73 -169q125 -160 369 -160z" />
    <glyph glyph-name="omacron" unicode="&#x14d;" horiz-adv-x="1169" 
d="M852 1223h-524v143h524v-143zM586 -25q-239 0 -375.5 143t-136.5 394q0 237 139 387t373 150q231 0 370.5 -151t139.5 -386q0 -242 -140 -389.5t-370 -147.5zM586 121q150 0 227 86q84 97 84 305q0 211 -86 307q-78 84 -225 84q-149 0 -224 -78q-90 -93 -90 -313t90 -313
q75 -78 224 -78z" />
    <glyph glyph-name="Obreve" unicode="&#x14e;" horiz-adv-x="1527" 
d="M770 1536q-102 0 -173 65t-75 171h127q8 -53 36.5 -78t82.5 -25q53 0 86.5 26t40.5 77h123q-5 -101 -74.5 -168.5t-173.5 -67.5zM766 -25q-326 0 -503 192.5t-177 549.5q0 219 77 384.5t232.5 261t370.5 95.5q212 0 367 -95.5t233 -262t78 -383.5q0 -220 -78 -386.5
t-232.5 -261t-367.5 -94.5zM766 135q246 0 358 160q111 157 111 422q0 263 -111 420q-112 161 -350 161q-131 0 -225.5 -43.5t-145.5 -109.5q-108 -142 -108 -428q0 -142 29 -253t73 -169q125 -160 369 -160z" />
    <glyph glyph-name="obreve" unicode="&#x14f;" horiz-adv-x="1169" 
d="M590 1198q-102 0 -173 65t-75 171h127q8 -53 36.5 -78t82.5 -25q53 0 86.5 26t40.5 77h123q-5 -101 -74.5 -168.5t-173.5 -67.5zM586 -25q-239 0 -375.5 143t-136.5 394q0 237 139 387t373 150q231 0 370.5 -151t139.5 -386q0 -242 -140 -389.5t-370 -147.5zM586 121
q150 0 227 86q84 97 84 305q0 211 -86 307q-78 84 -225 84q-149 0 -224 -78q-90 -93 -90 -313t90 -313q75 -78 224 -78z" />
    <glyph glyph-name="Ohungarumlaut" unicode="&#x150;" horiz-adv-x="1527" 
d="M678 1548h-125l68 224h167zM934 1548h-125l68 224h167zM766 -25q-326 0 -503 192.5t-177 549.5q0 219 77 384.5t232.5 261t370.5 95.5q212 0 367 -95.5t233 -262t78 -383.5q0 -220 -78 -386.5t-232.5 -261t-367.5 -94.5zM766 135q246 0 358 160q111 157 111 422
q0 263 -111 420q-112 161 -350 161q-131 0 -225.5 -43.5t-145.5 -109.5q-108 -142 -108 -428q0 -142 29 -253t73 -169q125 -160 369 -160z" />
    <glyph glyph-name="ohungarumlaut" unicode="&#x151;" horiz-adv-x="1169" 
d="M512 1174h-125l64 260h167zM768 1174h-125l64 260h167zM586 -25q-239 0 -375.5 143t-136.5 394q0 237 139 387t373 150q231 0 370.5 -151t139.5 -386q0 -242 -140 -389.5t-370 -147.5zM586 121q150 0 227 86q84 97 84 305q0 211 -86 307q-78 84 -225 84q-149 0 -224 -78
q-90 -93 -90 -313t90 -313q75 -78 224 -78z" />
    <glyph glyph-name="OE" unicode="&#x152;" horiz-adv-x="2097" 
d="M2001 1434v-166h-741v-461h665v-166h-665v-475h741v-166h-926v143q-49 -66 -149.5 -117t-233.5 -51q-280 0 -443 204.5t-163 537.5q0 217 73 384t213.5 262t329.5 95q76 0 144 -19t113 -47.5t74.5 -57.5t41.5 -54v154h926zM711 133q144 0 254 85.5t110 201.5v606
q-15 117 -119.5 193.5t-238.5 76.5q-117 0 -193.5 -42t-130.5 -119q-98 -146 -98 -418q0 -137 26.5 -248.5t71.5 -175.5q58 -80 133 -120t185 -40z" />
    <glyph glyph-name="oe" unicode="&#x153;" horiz-adv-x="1875" 
d="M1802 508q0 -8 -1 -25.5t-1 -25.5h-741q3 -169 71.5 -251.5t206.5 -82.5q250 0 279 229l170 -14q-32 -179 -146 -271t-301 -92q-266 0 -389 201q-64 -96 -163.5 -148.5t-225.5 -52.5q-227 0 -356 143t-129 394q0 237 131.5 387t353.5 150q128 0 228 -54t163 -153
q132 207 385 207q116 0 216.5 -51.5t160.5 -143.5q88 -137 88 -346zM760 190q94 91 94 322q0 191 -68.5 291t-224.5 100q-124 0 -196 -63q-101 -93 -101 -328q0 -192 68 -291.5t229 -99.5q127 0 199 69zM1061 606h559q-2 43 -16.5 95t-36.5 87q-70 111 -228 111
q-82 0 -141.5 -29.5t-89.5 -81.5q-47 -80 -47 -182z" />
    <glyph glyph-name="Racute" unicode="&#x154;" horiz-adv-x="1355" 
d="M686 1769h205l-182 -221h-152zM1186 358q0 -135 16 -212.5t66 -139.5l-2 -6h-203q-36 55 -49 123.5t-13 214.5q0 144 -70 200t-257 56h-320v-594h-184v1434h485q63 0 112 -3t110.5 -13t107.5 -27.5t92.5 -49.5t76.5 -75.5t48.5 -108t18.5 -145.5q0 -128 -62.5 -222.5
t-159.5 -127.5q187 -71 187 -304zM354 752h299q53 0 90.5 2.5t86.5 10t82.5 24.5t64 43.5t46 70t15.5 101.5q0 44 -8 80.5t-19.5 62.5t-33.5 47t-40.5 34t-50.5 22t-53.5 14t-59.5 7t-58.5 2.5t-59.5 0.5h-301v-522z" />
    <glyph glyph-name="racute" unicode="&#x155;" horiz-adv-x="722" 
d="M422 1434h207l-189 -260h-151zM637 1047q16 2 70 2l-5 -175q-18 3 -47 3q-63 0 -110.5 -9t-91.5 -34t-72 -68t-45 -113.5t-17 -167.5v-485h-184v1024h184v-180q23 77 110 135.5t208 67.5z" />
    <glyph glyph-name="uni0156" unicode="&#x156;" horiz-adv-x="1355" 
d="M1186 358q0 -135 16 -212.5t66 -139.5l-2 -6h-203q-36 55 -49 123.5t-13 214.5q0 144 -70 200t-257 56h-320v-594h-184v1434h485q63 0 112 -3t110.5 -13t107.5 -27.5t92.5 -49.5t76.5 -75.5t48.5 -108t18.5 -145.5q0 -128 -62.5 -222.5t-159.5 -127.5q187 -71 187 -304z
M354 752h299q53 0 90.5 2.5t86.5 10t82.5 24.5t64 43.5t46 70t15.5 101.5q0 44 -8 80.5t-19.5 62.5t-33.5 47t-40.5 34t-50.5 22t-53.5 14t-59.5 7t-58.5 2.5t-59.5 0.5h-301v-522zM709 -309h-97v174h195v-162q0 -89 -52 -136t-145 -52v79q51 6 75 29.5t24 67.5z" />
    <glyph glyph-name="uni0157" unicode="&#x157;" horiz-adv-x="722" 
d="M637 1047q16 2 70 2l-5 -175q-18 3 -47 3q-63 0 -110.5 -9t-91.5 -34t-72 -68t-45 -113.5t-17 -167.5v-485h-184v1024h184v-180q23 77 110 135.5t208 67.5zM227 -309h-96v174h195v-162q0 -89 -52 -136t-145 -52v79q51 6 74.5 29.5t23.5 67.5z" />
    <glyph glyph-name="Rcaron" unicode="&#x158;" horiz-adv-x="1355" 
d="M915 1755l-190 -207h-170l-190 207h153l119 -115l115 115h163zM1186 358q0 -135 16 -212.5t66 -139.5l-2 -6h-203q-36 55 -49 123.5t-13 214.5q0 144 -70 200t-257 56h-320v-594h-184v1434h485q63 0 112 -3t110.5 -13t107.5 -27.5t92.5 -49.5t76.5 -75.5t48.5 -108
t18.5 -145.5q0 -128 -62.5 -222.5t-159.5 -127.5q187 -71 187 -304zM354 752h299q53 0 90.5 2.5t86.5 10t82.5 24.5t64 43.5t46 70t15.5 101.5q0 44 -8 80.5t-19.5 62.5t-33.5 47t-40.5 34t-50.5 22t-53.5 14t-59.5 7t-58.5 2.5t-59.5 0.5h-301v-522z" />
    <glyph glyph-name="rcaron" unicode="&#x159;" horiz-adv-x="722" 
d="M653 1405l-190 -207h-170l-191 207h154l119 -115l114 115h164zM637 1047q16 2 70 2l-5 -175q-18 3 -47 3q-63 0 -110.5 -9t-91.5 -34t-72 -68t-45 -113.5t-17 -167.5v-485h-184v1024h184v-180q23 77 110 135.5t208 67.5z" />
    <glyph glyph-name="Sacute" unicode="&#x15a;" horiz-adv-x="1308" 
d="M731 1548h-151l129 221h204zM662 -25q-120 0 -225.5 30.5t-188 89.5t-130.5 155t-48 217l196 20q0 -167 109 -261.5t280 -94.5q84 0 151 13.5t123 43.5t87 84.5t31 130.5q0 48 -21 84t-51.5 57t-82.5 38t-95.5 25t-110.5 20t-108 22q-65 16 -113 30t-107 37.5t-99.5 53
t-76.5 69.5t-54.5 95t-18.5 121q0 85 30.5 154t80.5 114.5t117 76.5t136.5 44.5t142.5 13.5q92 0 171 -14.5t149.5 -48.5t122.5 -86t86 -130t43 -178l-193 -34q-3 161 -104 249.5t-279 88.5q-54 0 -107.5 -14.5t-100.5 -43t-76 -76.5t-29 -108q0 -39 16.5 -72t48 -57t68 -42
t87 -32t93.5 -23t99 -18t93.5 -15.5t87.5 -18t83 -23t72.5 -29t65.5 -37.5t52 -48.5t41 -61.5t24 -75.5t9 -92.5q0 -101 -34 -179.5t-89 -127t-132 -80t-155.5 -44t-166.5 -12.5z" />
    <glyph glyph-name="sacute" unicode="&#x15b;" horiz-adv-x="997" 
d="M565 1174h-151l133 260h207zM504 -25q-70 0 -133.5 13t-119 41t-95.5 69.5t-63.5 102.5t-22.5 135l168 16q-1 -107 70 -169t192 -62q252 0 252 166q0 28 -15.5 50.5t-37.5 36.5t-60 27t-68 20t-76.5 17t-72.5 17q-44 11 -71.5 19t-66 22.5t-62.5 29t-51.5 37t-43 48
t-25.5 61.5t-10 78q0 77 33 136t88.5 93.5t121 52t136.5 17.5q85 0 156 -18t130 -56t96.5 -104.5t45.5 -157.5l-172 -27q-3 105 -69.5 161t-188.5 56q-82 0 -143.5 -37.5t-61.5 -103.5q0 -23 8.5 -41.5t29 -33t38.5 -24.5t52.5 -20t55.5 -15t62 -14q8 -2 24 -5
q79 -16 119 -26t102 -34.5t92.5 -54t54.5 -80t24 -117.5q0 -90 -36 -155t-98.5 -100t-133.5 -51t-154 -16z" />
    <glyph glyph-name="Scircumflex" unicode="&#x15c;" horiz-adv-x="1308" 
d="M766 1548l-115 115l-119 -115h-153l190 207h170l191 -207h-164zM711 819q56 -9 93.5 -15.5t87.5 -18t83 -23t72.5 -29t65.5 -37.5t52 -48.5t41 -61.5t24 -75.5t9 -92.5q0 -101 -34 -179.5t-89 -127t-132 -80t-155.5 -44t-166.5 -12.5q-120 0 -225.5 30.5t-188 89.5
t-130.5 155t-48 217l196 20q0 -167 109 -261.5t280 -94.5q84 0 151 13.5t123 43.5t87 84.5t31 130.5q0 48 -21 84t-51.5 57t-82.5 38t-95.5 25t-110.5 20t-108 22q-65 16 -113 30t-107 37.5t-99.5 53t-76.5 69.5t-54.5 95t-18.5 121q0 85 30.5 154t80.5 114.5t117 76.5
t136.5 44.5t142.5 13.5q92 0 171 -14.5t149.5 -48.5t122.5 -86t86 -130t43 -178l-193 -34q-3 161 -104 249.5t-279 88.5q-54 0 -107.5 -14.5t-100.5 -43t-76 -76.5t-29 -108q0 -39 16.5 -72t48 -57t68 -42t87 -32t93.5 -23t99 -18z" />
    <glyph glyph-name="scircumflex" unicode="&#x15d;" horiz-adv-x="997" 
d="M608 1198l-114 115l-119 -115h-154l191 207h170l190 -207h-164zM510 614q8 -2 24 -5q79 -16 119 -26t102 -34.5t92.5 -54t54.5 -80t24 -117.5q0 -90 -36 -155t-98.5 -100t-133.5 -51t-154 -16q-70 0 -133.5 13t-119 41t-95.5 69.5t-63.5 102.5t-22.5 135l168 16
q-1 -107 70 -169t192 -62q252 0 252 166q0 28 -15.5 50.5t-37.5 36.5t-60 27t-68 20t-76.5 17t-72.5 17q-44 11 -71.5 19t-66 22.5t-62.5 29t-51.5 37t-43 48t-25.5 61.5t-10 78q0 77 33 136t88.5 93.5t121 52t136.5 17.5q85 0 156 -18t130 -56t96.5 -104.5t45.5 -157.5
l-172 -27q-3 105 -69.5 161t-188.5 56q-82 0 -143.5 -37.5t-61.5 -103.5q0 -23 8.5 -41.5t29 -33t38.5 -24.5t52.5 -20t55.5 -15t62 -14z" />
    <glyph glyph-name="Scedilla" unicode="&#x15e;" horiz-adv-x="1308" 
d="M1239 418q0 -93 -29.5 -167.5t-77.5 -123t-116 -81.5t-139.5 -49t-153.5 -20l-82 -79q12 2 37 2q72 0 130 -37t58 -105q0 -49 -22 -86t-58.5 -57t-77.5 -29.5t-85 -9.5q-108 0 -203 55l41 84q80 -32 149 -32q111 0 111 65q0 62 -105 62q-33 0 -88 -19l-41 51l119 135
q-89 5 -168.5 27t-147 62.5t-116.5 97t-76.5 134t-27.5 169.5l196 20q0 -167 109 -261.5t280 -94.5q84 0 151 13.5t123 43.5t87 84.5t31 130.5q0 48 -21 84t-51.5 57t-82.5 38t-95.5 25t-110.5 20t-108 22q-65 16 -113 30t-107 37.5t-99.5 53t-76.5 69.5t-54.5 95t-18.5 121
q0 85 30.5 154t80.5 114.5t117 76.5t136.5 44.5t142.5 13.5q92 0 171 -14.5t149.5 -48.5t122.5 -86t86 -130t43 -178l-193 -34q-3 161 -104 249.5t-279 88.5q-54 0 -107.5 -14.5t-100.5 -43t-76 -76.5t-29 -108q0 -39 16.5 -72t48 -57t68 -42t87 -32t93.5 -23t99 -18
t93.5 -15.5t87.5 -18t83 -23t72.5 -29t65.5 -37.5t52 -48.5t41 -61.5t24 -75.5t9 -92.5z" />
    <glyph glyph-name="scedilla" unicode="&#x15f;" horiz-adv-x="997" 
d="M926 297q0 -65 -20 -118t-53.5 -88t-80.5 -60t-98 -37.5t-109 -16.5l-84 -79q12 2 37 2q72 0 130.5 -37t58.5 -105q0 -49 -22 -86t-59 -57t-78 -29.5t-85 -9.5q-108 0 -203 55l41 84q80 -32 150 -32q110 0 110 65q0 62 -104 62q-33 0 -88 -19l-41 51l118 135
q-166 13 -271.5 103.5t-104.5 255.5l168 16q-1 -107 70 -169t192 -62q252 0 252 166q0 28 -15.5 50.5t-37.5 36.5t-60 27t-68 20t-76.5 17t-72.5 17q-44 11 -71.5 19t-66 22.5t-62.5 29t-51.5 37t-43 48t-25.5 61.5t-10 78q0 77 33 136t88.5 93.5t121 52t136.5 17.5
q85 0 156 -18t130 -56t96.5 -104.5t45.5 -157.5l-172 -27q-3 105 -69.5 161t-188.5 56q-82 0 -143.5 -37.5t-61.5 -103.5q0 -23 8.5 -41.5t29 -33t38.5 -24.5t52.5 -20t55.5 -15t62 -14q8 -2 24 -5q79 -16 119 -26t102 -34.5t92.5 -54t54.5 -80t24 -117.5z" />
    <glyph glyph-name="Scaron" unicode="&#x160;" horiz-adv-x="1308" 
d="M938 1755l-190 -207h-170l-191 207h154l118 -115l115 115h164zM711 819q56 -9 93.5 -15.5t87.5 -18t83 -23t72.5 -29t65.5 -37.5t52 -48.5t41 -61.5t24 -75.5t9 -92.5q0 -101 -34 -179.5t-89 -127t-132 -80t-155.5 -44t-166.5 -12.5q-120 0 -225.5 30.5t-188 89.5
t-130.5 155t-48 217l196 20q0 -167 109 -261.5t280 -94.5q84 0 151 13.5t123 43.5t87 84.5t31 130.5q0 48 -21 84t-51.5 57t-82.5 38t-95.5 25t-110.5 20t-108 22q-65 16 -113 30t-107 37.5t-99.5 53t-76.5 69.5t-54.5 95t-18.5 121q0 85 30.5 154t80.5 114.5t117 76.5
t136.5 44.5t142.5 13.5q92 0 171 -14.5t149.5 -48.5t122.5 -86t86 -130t43 -178l-193 -34q-3 161 -104 249.5t-279 88.5q-54 0 -107.5 -14.5t-100.5 -43t-76 -76.5t-29 -108q0 -39 16.5 -72t48 -57t68 -42t87 -32t93.5 -23t99 -18z" />
    <glyph glyph-name="scaron" unicode="&#x161;" horiz-adv-x="997" 
d="M778 1405l-190 -207h-170l-191 207h154l119 -115l114 115h164zM510 614q8 -2 24 -5q79 -16 119 -26t102 -34.5t92.5 -54t54.5 -80t24 -117.5q0 -90 -36 -155t-98.5 -100t-133.5 -51t-154 -16q-70 0 -133.5 13t-119 41t-95.5 69.5t-63.5 102.5t-22.5 135l168 16
q-1 -107 70 -169t192 -62q252 0 252 166q0 28 -15.5 50.5t-37.5 36.5t-60 27t-68 20t-76.5 17t-72.5 17q-44 11 -71.5 19t-66 22.5t-62.5 29t-51.5 37t-43 48t-25.5 61.5t-10 78q0 77 33 136t88.5 93.5t121 52t136.5 17.5q85 0 156 -18t130 -56t96.5 -104.5t45.5 -157.5
l-172 -27q-3 105 -69.5 161t-188.5 56q-82 0 -143.5 -37.5t-61.5 -103.5q0 -23 8.5 -41.5t29 -33t38.5 -24.5t52.5 -20t55.5 -15t62 -14z" />
    <glyph glyph-name="uni0162" unicode="&#x162;" horiz-adv-x="1173" 
d="M680 1272v-1272h-27l-106 -102q12 2 37 2q72 0 130 -37t58 -105q0 -49 -22 -86t-59 -57t-78 -29.5t-85 -9.5q-107 0 -202 55l41 84q80 -32 149 -32q111 0 111 65q0 62 -105 62q-33 0 -88 -19l-41 51l139 158h-38v1272h-478v162h1141v-162h-477z" />
    <glyph glyph-name="uni0163" unicode="&#x163;" horiz-adv-x="628" 
d="M416 -100q72 0 130 -37t58 -105q0 -49 -22 -86t-59 -57t-78 -29.5t-85 -9.5q-107 0 -202 55l41 84q80 -32 149 -32q111 0 111 65q0 62 -105 62q-33 0 -88 -19l-41 51l137 158q-87 19 -128 74.5t-41 154.5v641h-148v154h148v285h182v-285h209v-154h-209v-634
q0 -49 23 -64.5t83 -15.5q36 0 94 10l5 -166q-52 -10 -105 -10l-96 -92q12 2 37 2z" />
    <glyph glyph-name="Tcaron" unicode="&#x164;" horiz-adv-x="1173" 
d="M864 1755l-190 -207h-170l-191 207h154l119 -115l114 115h164zM16 1272v162h1141v-162h-477v-1272h-186v1272h-478z" />
    <glyph glyph-name="tcaron" unicode="&#x165;" horiz-adv-x="628" 
d="M500 1122v76q48 6 70 28t22 64h-92v164h186v-154q0 -84 -48.5 -128.5t-137.5 -49.5zM467 -10q-143 0 -208.5 57.5t-65.5 181.5v641h-148v154h148v285h182v-285h209v-154h-209v-634q0 -49 23 -64.5t83 -15.5q36 0 94 10l5 -166q-55 -10 -113 -10z" />
    <glyph glyph-name="Tbar" unicode="&#x166;" horiz-adv-x="1206" 
d="M1174 1434v-162h-478v-449h289v-151h-289v-672h-186v672h-287v151h287v449h-477v162h1141z" />
    <glyph glyph-name="tbar" unicode="&#x167;" horiz-adv-x="643" 
d="M590 1024v-154h-209v-182h209v-153h-209v-299q0 -49 23 -64.5t83 -15.5q37 0 95 10l4 -166q-55 -10 -113 -10q-143 0 -208.5 57.5t-65.5 181.5v306h-146v153h146v182h-148v154h148v285h182v-285h209z" />
    <glyph glyph-name="Utilde" unicode="&#x168;" horiz-adv-x="1431" 
d="M836 1542q-50 0 -93 21t-79 42t-68 21q-73 0 -84 -78h-113q0 34 15 75t41 69q60 63 153 63q43 0 85.5 -21.5t79 -43t63.5 -21.5q16 0 28 5t18 8.5t14 19.5t8.5 18.5t8.5 24.5h121q-14 -106 -61 -150q-56 -53 -137 -53zM715 -25q-273 0 -416 128t-143 370v961h186v-961
q0 -83 30 -148t82 -105t118.5 -60.5t142.5 -20.5t142.5 20.5t119 60.5t83 105.5t30.5 147.5v961h186v-961q0 -242 -144 -370t-417 -128z" />
    <glyph glyph-name="utilde" unicode="&#x169;" horiz-adv-x="1144" 
d="M453 1251q-73 0 -84 -77h-113q0 34 14.5 75t40.5 68q60 63 154 63q43 0 85 -21.5t78.5 -43t63.5 -21.5q20 0 33 5t22 19t12 21.5t11 30.5h121q-14 -104 -62 -149q-57 -54 -137 -54q-50 0 -92.5 21t-78.5 42t-68 21zM825 449v575h185v-1024h-185v154q-41 -87 -123 -133
t-192 -46q-194 0 -303 115q-37 39 -56.5 100t-22.5 105.5t-3 116.5v612h190v-602q0 -63 2 -93t15.5 -71.5t42.5 -69.5q27 -27 62.5 -40.5t60.5 -16t63 -2.5q35 0 64 4.5t68 23t66 51t46.5 94.5t19.5 147z" />
    <glyph glyph-name="Umacron" unicode="&#x16a;" horiz-adv-x="1431" 
d="M979 1573h-524v143h524v-143zM715 -25q-273 0 -416 128t-143 370v961h186v-961q0 -83 30 -148t82 -105t118.5 -60.5t142.5 -20.5t142.5 20.5t119 60.5t83 105.5t30.5 147.5v961h186v-961q0 -242 -144 -370t-417 -128z" />
    <glyph glyph-name="umacron" unicode="&#x16b;" horiz-adv-x="1144" 
d="M311 1366h525v-143h-525v143zM825 449v575h185v-1024h-185v154q-41 -87 -123 -133t-192 -46q-194 0 -303 115q-37 39 -56.5 100t-22.5 105.5t-3 116.5v612h190v-602q0 -63 2 -93t15.5 -71.5t42.5 -69.5q27 -27 62.5 -40.5t60.5 -16t63 -2.5q35 0 64 4.5t68 23t66 51
t46.5 94.5t19.5 147z" />
    <glyph glyph-name="Ubreve" unicode="&#x16c;" horiz-adv-x="1431" 
d="M717 1536q-102 0 -173 65t-75 171h127q8 -53 36.5 -78t82.5 -25q53 0 86.5 26t40.5 77h123q-5 -101 -74.5 -168.5t-173.5 -67.5zM715 -25q-273 0 -416 128t-143 370v961h186v-961q0 -83 30 -148t82 -105t118.5 -60.5t142.5 -20.5t142.5 20.5t119 60.5t83 105.5
t30.5 147.5v961h186v-961q0 -242 -144 -370t-417 -128z" />
    <glyph glyph-name="ubreve" unicode="&#x16d;" horiz-adv-x="1144" 
d="M573 1198q-102 0 -172.5 64.5t-74.5 171.5h127q8 -53 36 -78t82 -25q53 0 86.5 26t40.5 77h123q-5 -101 -74.5 -168.5t-173.5 -67.5zM825 449v575h185v-1024h-185v154q-41 -87 -123 -133t-192 -46q-194 0 -303 115q-37 39 -56.5 100t-22.5 105.5t-3 116.5v612h190v-602
q0 -63 2 -93t15.5 -71.5t42.5 -69.5q27 -27 62.5 -40.5t60.5 -16t63 -2.5q35 0 64 4.5t68 23t66 51t46.5 94.5t19.5 147z" />
    <glyph glyph-name="Uring" unicode="&#x16e;" horiz-adv-x="1431" 
d="M717 1513q-83 0 -140 55.5t-57 133.5t57 133t140 55t139.5 -55t56.5 -133q0 -79 -56.5 -134t-139.5 -55zM717 1591q46 0 74 31.5t28 79.5q0 46 -28 77t-74 31q-44 0 -74.5 -31.5t-30.5 -76.5q0 -47 30.5 -79t74.5 -32zM715 -25q-273 0 -416 128t-143 370v961h186v-961
q0 -83 30 -148t82 -105t118.5 -60.5t142.5 -20.5t142.5 20.5t119 60.5t83 105.5t30.5 147.5v961h186v-961q0 -242 -144 -370t-417 -128z" />
    <glyph glyph-name="uring" unicode="&#x16f;" horiz-adv-x="1144" 
d="M573 1133q-83 0 -139.5 55t-56.5 133t56.5 133t139.5 55t140 -55t57 -133t-57 -133t-140 -55zM573 1430q-44 0 -74 -32t-30 -77q0 -47 30 -79t74 -32q46 0 74.5 31.5t28.5 79.5q0 46 -28.5 77.5t-74.5 31.5zM825 449v575h185v-1024h-185v154q-41 -87 -123 -133t-192 -46
q-194 0 -303 115q-37 39 -56.5 100t-22.5 105.5t-3 116.5v612h190v-602q0 -63 2 -93t15.5 -71.5t42.5 -69.5q27 -27 62.5 -40.5t60.5 -16t63 -2.5q35 0 64 4.5t68 23t66 51t46.5 94.5t19.5 147z" />
    <glyph glyph-name="Uhungarumlaut" unicode="&#x170;" horiz-adv-x="1431" 
d="M625 1548h-125l67 224h168zM881 1548h-125l67 224h168zM715 -25q-273 0 -416 128t-143 370v961h186v-961q0 -83 30 -148t82 -105t118.5 -60.5t142.5 -20.5t142.5 20.5t119 60.5t83 105.5t30.5 147.5v961h186v-961q0 -242 -144 -370t-417 -128z" />
    <glyph glyph-name="uhungarumlaut" unicode="&#x171;" horiz-adv-x="1144" 
d="M434 1434h168l-106 -260h-125zM690 1434h168l-106 -260h-125zM825 449v575h185v-1024h-185v154q-41 -87 -123 -133t-192 -46q-194 0 -303 115q-37 39 -56.5 100t-22.5 105.5t-3 116.5v612h190v-602q0 -63 2 -93t15.5 -71.5t42.5 -69.5q27 -27 62.5 -40.5t60.5 -16
t63 -2.5q35 0 64 4.5t68 23t66 51t46.5 94.5t19.5 147z" />
    <glyph glyph-name="Uogonek" unicode="&#x172;" horiz-adv-x="1431" 
d="M1090 473v961h186v-961q0 -193 -93 -314.5t-272 -162.5q-98 -25 -158.5 -71.5t-60.5 -96.5q0 -68 84 -68q40 0 78 15l6 -127q-64 -19 -115 -19q-105 0 -159 48t-54 124q0 95 127 176q-246 12 -374.5 139.5t-128.5 356.5v961h186v-961q0 -83 30 -148t82 -105t118.5 -60.5
t142.5 -20.5t142.5 20.5t119 60.5t83 105.5t30.5 147.5z" />
    <glyph glyph-name="uogonek" unicode="&#x173;" horiz-adv-x="1144" 
d="M1008 -221l6 -133q-57 -17 -111 -17q-87 0 -141.5 42.5t-54.5 115.5q0 71 50 125t124 88h-56v154q-41 -87 -123 -133t-192 -46q-194 0 -303 115q-37 39 -56.5 100t-22.5 105.5t-3 116.5v612h190v-602q0 -63 2 -93t15.5 -71.5t42.5 -69.5q27 -27 62.5 -40.5t60.5 -16
t63 -2.5q35 0 64 4.5t68 23t66 51t46.5 94.5t19.5 147v575h185v-1024q-144 -93 -144 -174q0 -30 20 -46t54 -16q31 0 68 15z" />
    <glyph glyph-name="Wcircumflex" unicode="&#x174;" horiz-adv-x="1845" 
d="M1040 1548l-114 115l-119 -115h-154l191 207h170l190 -207h-164zM1427 571l195 863h197l-373 -1434h-195l-241 844q-27 94 -88 332h-2q-54 -221 -86 -334l-238 -842h-197l-372 1434h196l199 -863q29 -126 78 -352h2q7 26 25.5 98.5t35.5 137.5t31 116l235 863h189
l239 -863q42 -152 93 -352h2q39 190 75 352z" />
    <glyph glyph-name="wcircumflex" unicode="&#x175;" horiz-adv-x="1495" 
d="M858 1198l-115 115l-118 -115h-154l191 207h169l191 -207h-164zM1118 477l164 547h199l-342 -1024h-199l-137 528q-22 87 -58 269q-33 -174 -55 -269l-133 -528h-201l-342 1024h199l160 -547q21 -70 82 -301q8 36 24 106.5t28 121.5t17 73l138 547h172l135 -547
q7 -31 67 -301q57 220 82 301z" />
    <glyph glyph-name="Ycircumflex" unicode="&#x176;" horiz-adv-x="1239" 
d="M733 1548l-115 115l-118 -115h-154l191 207h170l190 -207h-164zM768 1024l242 410h217l-514 -822v-612h-187v612l-514 822h215l242 -410q3 -6 30.5 -54.5t61.5 -108t57 -101.5q63 114 150 264z" />
    <glyph glyph-name="ycircumflex" unicode="&#x177;" horiz-adv-x="989" 
d="M610 1198l-114 115l-119 -115h-154l191 207h170l190 -207h-164zM588 471l196 553h193l-418 -1118q-66 -176 -131.5 -251t-167.5 -75q-80 0 -156 21l5 172q71 -23 127 -23q23 0 42 11.5t33.5 27.5t33 54.5t31.5 69.5t38 95l-400 1016h197l195 -553q21 -59 90 -272
q54 163 92 272z" />
    <glyph glyph-name="Ydieresis" unicode="&#x178;" horiz-adv-x="1239" 
d="M520 1548h-168v199h168v-199zM895 1548h-168v199h168v-199zM713 0h-187v612l-514 822h215l242 -410q3 -6 30.5 -54.5t61.5 -108t57 -101.5q63 114 150 264l242 410h217l-514 -822v-612z" />
    <glyph glyph-name="Zacute" unicode="&#x179;" horiz-adv-x="1206" 
d="M690 1548h-151l129 221h204zM1151 0h-1110v137l676 889q75 99 196 242v2q-31 -1 -85 -2.5t-99.5 -2.5t-89.5 -1h-537v170h1035v-138l-686 -909q-68 -91 -177 -221v-2q150 6 310 6h567v-170z" />
    <glyph glyph-name="zacute" unicode="&#x17a;" horiz-adv-x="948" 
d="M535 1174h-152l133 260h207zM901 0h-846v143l488 594q51 61 114 131v2q-118 -4 -172 -4h-397v158h780v-127l-475 -586q-21 -28 -129 -151v-2h637v-158z" />
    <glyph glyph-name="Zdotaccent" unicode="&#x17b;" horiz-adv-x="1206" 
d="M715 1548h-185v217h185v-217zM1151 0h-1110v137l676 889q75 99 196 242v2q-31 -1 -85 -2.5t-99.5 -2.5t-89.5 -1h-537v170h1035v-138l-686 -909q-68 -91 -177 -221v-2q150 6 310 6h567v-170z" />
    <glyph glyph-name="zdotaccent" unicode="&#x17c;" horiz-adv-x="948" 
d="M565 1217h-184v217h184v-217zM901 0h-846v143l488 594q51 61 114 131v2q-118 -4 -172 -4h-397v158h780v-127l-475 -586q-21 -28 -129 -151v-2h637v-158z" />
    <glyph glyph-name="Zcaron" unicode="&#x17d;" horiz-adv-x="1206" 
d="M897 1755l-190 -207h-170l-191 207h154l118 -115l115 115h164zM584 170h567v-170h-1110v137l676 889q75 99 196 242v2q-31 -1 -85 -2.5t-99.5 -2.5t-89.5 -1h-537v170h1035v-138l-686 -909q-68 -91 -177 -221v-2q150 6 310 6z" />
    <glyph glyph-name="zcaron" unicode="&#x17e;" horiz-adv-x="948" 
d="M748 1405l-191 -207h-170l-190 207h153l119 -115l115 115h164zM264 160v-2h637v-158h-846v143l488 594q51 61 114 131v2q-118 -4 -172 -4h-397v158h780v-127l-475 -586q-21 -28 -129 -151z" />
    <glyph glyph-name="florin" unicode="&#x192;" horiz-adv-x="937" 
d="M782 1446q50 0 105 -6l-4 -160q-54 4 -74 4q-88 0 -128 -30.5t-50 -106.5l-43 -305h211v-154h-234l-116 -831q-18 -133 -82 -197q-63 -63 -207 -63q-52 0 -107 6l4 153q16 -2 45 -2q66 0 103 25.5t47 91.5l119 817h-205v154h227l47 329q19 124 78 189q80 86 264 86z" />
    <glyph glyph-name="uni01E3" unicode="&#x1e3;" horiz-adv-x="1779" 
d="M627 1366h524v-143h-524v143zM1618 854q48 -76 71 -186.5t15 -210.5h-750q3 -169 72.5 -251.5t208.5 -82.5q254 0 283 229l172 -14q-32 -179 -147.5 -271t-305.5 -92q-252 0 -383 195q-58 -96 -163.5 -145.5t-246.5 -49.5q-55 0 -105 8.5t-100 29.5t-86 53.5t-58.5 85
t-22.5 118.5q0 64 22 114.5t54.5 82.5t82 56.5t92 37t97.5 23.5l338 65q0 76 -6.5 116.5t-28.5 70.5q-47 67 -186 67q-133 0 -193 -53.5t-57 -167.5l-181 25q6 185 127 266q115 76 314 76q244 0 340 -158q136 158 348 158q118 0 220 -51.5t163 -143.5zM956 606h566
q-2 44 -16 95.5t-38 86.5q-73 111 -231 111q-82 0 -142.5 -29.5t-90.5 -81.5q-48 -82 -48 -182zM758 387v125l-309 -68q-96 -22 -142.5 -57t-46.5 -115q0 -69 53 -109t131 -40q159 0 236.5 73t77.5 191z" />
    <glyph glyph-name="aringacute" unicode="&#x1fb;" horiz-adv-x="1105" 
d="M600 1815h207l-189 -261h-151zM541 1133q-83 0 -140 55t-57 133t57 133t140 55t139.5 -55t56.5 -133t-56.5 -133t-139.5 -55zM541 1430q-44 0 -74.5 -32t-30.5 -77q0 -47 30.5 -79t74.5 -32q46 0 74 31.5t28 79.5q0 46 -28 77.5t-74 31.5zM1065 152l4 -152
q-52 -8 -115 -8q-169 0 -184 160q-86 -177 -344 -177q-66 0 -126.5 18.5t-109.5 53.5t-78.5 92.5t-29.5 130.5q0 64 21.5 114.5t53.5 82.5t81 56.5t92.5 37t99.5 23.5l338 65q0 76 -6.5 116.5t-28.5 70.5q-47 67 -186 67q-133 0 -191.5 -52t-58.5 -169l-180 25
q6 186 127 266q115 76 313 76q193 0 291 -85.5t98 -252.5v-490q0 -24 1 -35t6.5 -23t18 -16t34.5 -4q18 0 59 9zM768 387v125l-309 -68q-96 -22 -142.5 -57t-46.5 -115q0 -69 53 -109t132 -40q159 0 236 73t77 191z" />
    <glyph glyph-name="AEacute" unicode="&#x1fc;" horiz-adv-x="1902" 
d="M1280 1769h205l-182 -221h-152zM1806 1434v-166h-741v-461h666v-166h-666v-475h741v-166h-925v428h-492l-207 -428h-209l721 1434h1112zM469 592h412v676h-82z" />
    <glyph glyph-name="aeacute" unicode="&#x1fd;" horiz-adv-x="1779" 
d="M948 1434h207l-188 -260h-152zM1618 854q48 -76 71 -186.5t15 -210.5h-750q3 -169 72.5 -251.5t208.5 -82.5q254 0 283 229l172 -14q-32 -179 -147.5 -271t-305.5 -92q-252 0 -383 195q-58 -96 -163.5 -145.5t-246.5 -49.5q-55 0 -105 8.5t-100 29.5t-86 53.5t-58.5 85
t-22.5 118.5q0 64 22 114.5t54.5 82.5t82 56.5t92 37t97.5 23.5l338 65q0 76 -6.5 116.5t-28.5 70.5q-47 67 -186 67q-133 0 -193 -53.5t-57 -167.5l-181 25q6 185 127 266q115 76 314 76q244 0 340 -158q136 158 348 158q118 0 220 -51.5t163 -143.5zM956 606h566
q-2 44 -16 95.5t-38 86.5q-73 111 -231 111q-82 0 -142.5 -29.5t-90.5 -81.5q-48 -82 -48 -182zM758 387v125l-309 -68q-96 -22 -142.5 -57t-46.5 -115q0 -69 53 -109t131 -40q159 0 236.5 73t77.5 191z" />
    <glyph glyph-name="Oslashacute" unicode="&#x1fe;" horiz-adv-x="1556" 
d="M829 1769h205l-182 -221h-152zM1397 1458l84 -78l-164 -176q141 -195 141 -487q0 -220 -78 -386.5t-232.5 -261t-367.5 -94.5q-291 0 -465 154l-155 -166l-84 74l164 176q-140 187 -140 504q0 219 77 384.5t232.5 261t370.5 95.5q281 0 461 -166zM309 717q0 -220 66 -359
l745 803q-113 137 -332 137q-130 0 -224.5 -43.5t-145.5 -109.5q-109 -143 -109 -428zM1249 717q0 208 -65 344l-744 -799q124 -127 340 -127q247 0 359 160q110 156 110 422z" />
    <glyph glyph-name="oslashacute" unicode="&#x1ff;" horiz-adv-x="1181" 
d="M641 1434h207l-189 -260h-151zM1102 1001l-117 -124q119 -147 119 -365q0 -242 -140 -389.5t-370 -147.5q-213 0 -344 113l-109 -117l-65 60l112 121q-106 136 -106 360q0 237 139 387t373 150q190 0 328 -109l114 123zM281 512q0 -142 34 -225l500 538q-78 78 -221 78
q-148 0 -223 -78q-90 -93 -90 -313zM821 207q84 97 84 305q0 147 -41 236l-502 -539q1 -2 9 -10q75 -78 223 -78q150 0 227 86z" />
    <glyph glyph-name="uni0218" unicode="&#x218;" horiz-adv-x="1308" 
d="M662 -25q-120 0 -225.5 30.5t-188 89.5t-130.5 155t-48 217l196 20q0 -167 109 -261.5t280 -94.5q84 0 151 13.5t123 43.5t87 84.5t31 130.5q0 48 -21 84t-51.5 57t-82.5 38t-95.5 25t-110.5 20t-108 22q-65 16 -113 30t-107 37.5t-99.5 53t-76.5 69.5t-54.5 95
t-18.5 121q0 85 30.5 154t80.5 114.5t117 76.5t136.5 44.5t142.5 13.5q92 0 171 -14.5t149.5 -48.5t122.5 -86t86 -130t43 -178l-193 -34q-3 161 -104 249.5t-279 88.5q-54 0 -107.5 -14.5t-100.5 -43t-76 -76.5t-29 -108q0 -39 16.5 -72t48 -57t68 -42t87 -32t93.5 -23
t99 -18t93.5 -15.5t87.5 -18t83 -23t72.5 -29t65.5 -37.5t52 -48.5t41 -61.5t24 -75.5t9 -92.5q0 -101 -34 -179.5t-89 -127t-132 -80t-155.5 -44t-166.5 -12.5zM565 -485v79q51 6 75 29.5t24 67.5h-97v174h195v-162q0 -89 -52 -136t-145 -52z" />
    <glyph glyph-name="uni0219" unicode="&#x219;" horiz-adv-x="997" 
d="M504 -25q-70 0 -133.5 13t-119 41t-95.5 69.5t-63.5 102.5t-22.5 135l168 16q-1 -107 70 -169t192 -62q252 0 252 166q0 28 -15.5 50.5t-37.5 36.5t-60 27t-68 20t-76.5 17t-72.5 17q-44 11 -71.5 19t-66 22.5t-62.5 29t-51.5 37t-43 48t-25.5 61.5t-10 78q0 77 33 136
t88.5 93.5t121 52t136.5 17.5q85 0 156 -18t130 -56t96.5 -104.5t45.5 -157.5l-172 -27q-3 105 -69.5 161t-188.5 56q-82 0 -143.5 -37.5t-61.5 -103.5q0 -23 8.5 -41.5t29 -33t38.5 -24.5t52.5 -20t55.5 -15t62 -14q8 -2 24 -5q79 -16 119 -26t102 -34.5t92.5 -54t54.5 -80
t24 -117.5q0 -90 -36 -155t-98.5 -100t-133.5 -51t-154 -16zM406 -485v79q51 6 74.5 29.5t23.5 67.5h-96v174h194v-162q0 -89 -51.5 -136t-144.5 -52z" />
    <glyph glyph-name="uni021A" unicode="&#x21a;" horiz-adv-x="1173" 
d="M680 0h-186v1272h-478v162h1141v-162h-477v-1272zM489 -485v79q51 6 75 29.5t24 67.5h-96v174h194v-162q0 -89 -52 -136t-145 -52z" />
    <glyph glyph-name="uni021B" unicode="&#x21b;" horiz-adv-x="628" 
d="M467 -10q-143 0 -208.5 57.5t-65.5 181.5v641h-148v154h148v285h182v-285h209v-154h-209v-634q0 -49 23 -64.5t83 -15.5q36 0 94 10l5 -166q-55 -10 -113 -10zM303 -485v79q51 6 74.5 29.5t23.5 67.5h-96v174h195v-162q0 -89 -52 -136t-145 -52z" />
    <glyph glyph-name="uni0226" unicode="&#x226;" horiz-adv-x="1327" 
d="M571 1765h185v-217h-185v217zM1321 0h-195l-159 428h-609l-157 -428h-197l561 1434h197zM580 1024l-160 -432h485l-162 432q-37 98 -81 231h-3q-50 -151 -79 -231z" />
    <glyph glyph-name="uni0227" unicode="&#x227;" horiz-adv-x="1105" 
d="M430 1434h184v-217h-184v217zM1065 152l4 -152q-52 -8 -115 -8q-169 0 -184 160q-86 -177 -344 -177q-66 0 -126.5 18.5t-109.5 53.5t-78.5 92.5t-29.5 130.5q0 64 21.5 114.5t53.5 82.5t81 56.5t92.5 37t99.5 23.5l338 65q0 76 -6.5 116.5t-28.5 70.5q-47 67 -186 67
q-133 0 -191.5 -52t-58.5 -169l-180 25q6 186 127 266q115 76 313 76q193 0 291 -85.5t98 -252.5v-490q0 -24 1 -35t6.5 -23t18 -16t34.5 -4q18 0 59 9zM768 387v125l-309 -68q-96 -22 -142.5 -57t-46.5 -115q0 -69 53 -109t132 -40q159 0 236 73t77 191z" />
    <glyph glyph-name="uni0232" unicode="&#x232;" horiz-adv-x="1239" 
d="M885 1573h-525v143h525v-143zM713 0h-187v612l-514 822h215l242 -410q3 -6 30.5 -54.5t61.5 -108t57 -101.5q63 114 150 264l242 410h217l-514 -822v-612z" />
    <glyph glyph-name="uni0233" unicode="&#x233;" horiz-adv-x="989" 
d="M238 1366h524v-143h-524v143zM588 471l196 553h193l-418 -1118q-66 -176 -131.5 -251t-167.5 -75q-80 0 -156 21l5 172q71 -23 127 -23q23 0 42 11.5t33.5 27.5t33 54.5t31.5 69.5t38 95l-400 1016h197l195 -553q21 -59 90 -272q54 163 92 272z" />
    <glyph glyph-name="uni0237" unicode="&#x237;" horiz-adv-x="466" 
d="M80 -420q-51 0 -100 10l4 172q43 -12 86 -12q47 0 62 33.5t15 114.5v1126h185v-1149q0 -142 -65 -218.5t-187 -76.5z" />
    <glyph glyph-name="circumflex" unicode="&#x2c6;" horiz-adv-x="755" 
d="M463 1405l190 -207h-164l-114 115l-119 -115h-154l191 207h170z" />
    <glyph glyph-name="caron" unicode="&#x2c7;" horiz-adv-x="768" 
d="M381 1290l115 115h163l-190 -207h-170l-190 207h153z" />
    <glyph glyph-name="breve" unicode="&#x2d8;" horiz-adv-x="700" 
d="M350 1198q-102 0 -173 65t-75 171h127q8 -53 36.5 -78t82.5 -25q53 0 86.5 26t40.5 77h123q-5 -101 -74.5 -168.5t-173.5 -67.5z" />
    <glyph glyph-name="dotaccent" unicode="&#x2d9;" horiz-adv-x="389" 
d="M287 1217h-185v217h185v-217z" />
    <glyph glyph-name="ring" unicode="&#x2da;" horiz-adv-x="598" 
d="M299 1133q-83 0 -140 55t-57 133t57 133t140 55t140 -55t57 -133t-57 -133t-140 -55zM299 1210q46 0 74 31.5t28 79.5q0 46 -28 77.5t-74 31.5q-44 0 -74 -32t-30 -77q0 -47 30 -79t74 -32z" />
    <glyph glyph-name="ogonek" unicode="&#x2db;" horiz-adv-x="532" 
d="M279 -371q-87 0 -142 42.5t-55 115.5q0 71 50 125t124 88h129q-143 -92 -143 -174q0 -62 73 -62q31 0 68 15l6 -133q-57 -17 -110 -17z" />
    <glyph glyph-name="tilde" unicode="&#x2dc;" horiz-adv-x="839" 
d="M539 1167q-50 0 -93 21t-79 42t-68 21q-73 0 -84 -77h-113q0 33 15 74t41 69q60 63 153 63q43 0 85.5 -21.5t79 -43t63.5 -21.5q16 0 28 5t18 8.5t14 19.5t8.5 18.5t8.5 24.5h121q-14 -105 -61 -149q-57 -54 -137 -54z" />
    <glyph glyph-name="hungarumlaut" unicode="&#x2dd;" horiz-adv-x="696" 
d="M231 1174h-125l64 260h168zM487 1174h-125l64 260h168z" />
    <glyph glyph-name="uni0394" unicode="&#x394;" horiz-adv-x="1308" 
d="M580 1434h149l582 -1434h-1313zM1057 166l-404 995l-401 -995h805z" />
    <glyph glyph-name="uni0394" unicode="&#x3b4;" horiz-adv-x="1308" 
d="M580 1434h149l582 -1434h-1313zM1057 166l-404 995l-401 -995h805z" />
    <glyph glyph-name="uni03A9" unicode="&#x3a9;" horiz-adv-x="1572" 
d="M1466 723q0 -376 -288 -561h260v-162h-566v162q200 47 292.5 185.5t92.5 375.5q0 273 -102 412q-50 71 -146.5 116t-222.5 45t-220.5 -44.5t-147.5 -116.5q-103 -141 -103 -412q0 -237 92.5 -375.5t292.5 -185.5v-162h-565v162h260q-289 185 -289 561q0 163 45 298
t129.5 232t214 151t291.5 54t291.5 -54t214 -151t129.5 -232t45 -298z" />
    <glyph glyph-name="uni03A9" unicode="&#x3c9;" horiz-adv-x="1572" 
d="M1466 723q0 -376 -288 -561h260v-162h-566v162q200 47 292.5 185.5t92.5 375.5q0 273 -102 412q-50 71 -146.5 116t-222.5 45t-220.5 -44.5t-147.5 -116.5q-103 -141 -103 -412q0 -237 92.5 -375.5t292.5 -185.5v-162h-565v162h260q-289 185 -289 561q0 163 45 298
t129.5 232t214 151t291.5 54t291.5 -54t214 -151t129.5 -232t45 -298z" />
    <glyph glyph-name="uni03BC" unicode="&#x3bc;" horiz-adv-x="1146" 
d="M829 449v575h183v-1024h-183v154q-41 -87 -123.5 -133t-193.5 -46q-121 0 -197 64q4 -66 4 -98v-351h-184v1434h184v-602q0 -63 2 -93t15.5 -71.5t42.5 -69.5q27 -27 62 -40.5t59.5 -16t62.5 -2.5q35 0 64 4.5t68.5 23t67 51t47 94.5t19.5 147z" />
    <glyph glyph-name="pi" unicode="&#x3c0;" horiz-adv-x="1214" 
d="M1004 -8q-100 0 -162 56.5t-62 168.5v662h-399v-879h-174v879h-176v145h1120v-145h-195v-637q0 -53 22.5 -76t70.5 -23q37 0 88 17l4 -152q-62 -16 -137 -16z" />
    <glyph glyph-name="Wgrave" unicode="&#x1e80;" horiz-adv-x="1845" 
d="M1008 1548h-152l-182 221h205zM596 0h-197l-372 1434h196l199 -863q29 -126 78 -352h2q7 26 25.5 98.5t35.5 137.5t31 116l235 863h189l239 -863q42 -152 93 -352h2q39 190 75 352l195 863h197l-373 -1434h-195l-241 844q-27 94 -88 332h-2q-54 -221 -86 -334z" />
    <glyph glyph-name="wgrave" unicode="&#x1e81;" horiz-adv-x="1495" 
d="M821 1174h-151l-189 260h207zM557 0h-201l-342 1024h199l160 -547q21 -70 82 -301q8 36 24 106.5t28 121.5t17 73l138 547h172l135 -547q7 -31 67 -301q57 220 82 301l164 547h199l-342 -1024h-199l-137 528q-22 87 -58 269q-33 -174 -55 -269z" />
    <glyph glyph-name="Wacute" unicode="&#x1e82;" horiz-adv-x="1845" 
d="M997 1548h-151l129 221h205zM596 0h-197l-372 1434h196l199 -863q29 -126 78 -352h2q7 26 25.5 98.5t35.5 137.5t31 116l235 863h189l239 -863q42 -152 93 -352h2q39 190 75 352l195 863h197l-373 -1434h-195l-241 844q-27 94 -88 332h-2q-54 -221 -86 -334z" />
    <glyph glyph-name="wacute" unicode="&#x1e83;" horiz-adv-x="1495" 
d="M819 1174h-151l133 260h207zM557 0h-201l-342 1024h199l160 -547q21 -70 82 -301q8 36 24 106.5t28 121.5t17 73l138 547h172l135 -547q7 -31 67 -301q57 220 82 301l164 547h199l-342 -1024h-199l-137 528q-22 87 -58 269q-33 -174 -55 -269z" />
    <glyph glyph-name="Wdieresis" unicode="&#x1e84;" horiz-adv-x="1845" 
d="M827 1548h-168v199h168v-199zM1202 1548h-168v199h168v-199zM596 0h-197l-372 1434h196l199 -863q29 -126 78 -352h2q7 26 25.5 98.5t35.5 137.5t31 116l235 863h189l239 -863q42 -152 93 -352h2q39 190 75 352l195 863h197l-373 -1434h-195l-241 844q-27 94 -88 332h-2
q-54 -221 -86 -334z" />
    <glyph glyph-name="wdieresis" unicode="&#x1e85;" horiz-adv-x="1495" 
d="M643 1198h-168v199h168v-199zM1018 1198h-168v199h168v-199zM557 0h-201l-342 1024h199l160 -547q21 -70 82 -301q8 36 24 106.5t28 121.5t17 73l138 547h172l135 -547q7 -31 67 -301q57 220 82 301l164 547h199l-342 -1024h-199l-137 528q-22 87 -58 269
q-33 -174 -55 -269z" />
    <glyph glyph-name="uni1E9E" unicode="&#x1e9e;" horiz-adv-x="1341" 
d="M1020 750v-5q112 -44 174.5 -132.5t62.5 -219.5q0 -206 -133.5 -305.5t-373.5 -99.5q-99 0 -234 22l4 168q150 -22 228 -22q319 0 319 243q0 134 -89 202.5t-237 68.5h-202v166h204q132 0 197.5 52.5t65.5 170.5q0 209 -250 209h-400v-1268h-186v1434h592
q203 0 315.5 -98.5t112.5 -266.5q0 -109 -42 -192.5t-128 -126.5z" />
    <glyph glyph-name="Ygrave" unicode="&#x1ef2;" horiz-adv-x="1239" 
d="M700 1548h-151l-182 221h204zM713 0h-187v612l-514 822h215l242 -410q3 -6 30.5 -54.5t61.5 -108t57 -101.5q63 114 150 264l242 410h217l-514 -822v-612z" />
    <glyph glyph-name="ygrave" unicode="&#x1ef3;" horiz-adv-x="989" 
d="M465 1434l133 -260h-152l-188 260h207zM588 471l196 553h193l-418 -1118q-66 -176 -131.5 -251t-167.5 -75q-80 0 -156 21l5 172q71 -23 127 -23q23 0 42 11.5t33.5 27.5t33 54.5t31.5 69.5t38 95l-400 1016h197l195 -553q21 -59 90 -272q54 163 92 272z" />
    <glyph glyph-name="uni2002" unicode="&#x2002;" horiz-adv-x="1024" 
 />
    <glyph glyph-name="uni2003" unicode="&#x2003;" horiz-adv-x="2048" 
 />
    <glyph glyph-name="uni2009" unicode="&#x2009;" horiz-adv-x="256" 
 />
    <glyph glyph-name="uni200A" unicode="&#x200a;" horiz-adv-x="86" 
 />
    <glyph glyph-name="endash" unicode="&#x2013;" horiz-adv-x="1222" 
d="M1104 498h-985v164h985v-164z" />
    <glyph glyph-name="emdash" unicode="&#x2014;" horiz-adv-x="1748" 
d="M1630 498h-1511v164h1511v-164z" />
    <glyph glyph-name="quoteleft" unicode="&#x2018;" horiz-adv-x="405" 
d="M293 1438v-95q-86 -34 -86 -153h88v-203h-191v207q0 99 49.5 162t139.5 82z" />
    <glyph glyph-name="quoteright" unicode="&#x2019;" horiz-adv-x="387" 
d="M113 981v94q86 34 86 154h-88v203h190v-207q0 -99 -49 -162t-139 -82z" />
    <glyph glyph-name="quotesinglbase" unicode="&#x201a;" horiz-adv-x="432" 
d="M123 -248v94q86 34 86 154h-88v203h190v-207q0 -99 -49 -162t-139 -82z" />
    <glyph glyph-name="quotedblleft" unicode="&#x201c;" horiz-adv-x="714" 
d="M293 1438v-95q-86 -34 -86 -153h88v-203h-191v207q0 99 49.5 162t139.5 82zM602 1438v-95q-86 -34 -86 -153h88v-203h-190v207q0 99 49 162t139 82z" />
    <glyph glyph-name="quotedblright" unicode="&#x201d;" horiz-adv-x="696" 
d="M113 981v94q86 34 86 154h-88v203h190v-207q0 -99 -49 -162t-139 -82zM422 981v94q86 34 86 154h-88v203h190v-207q0 -99 -49 -162t-139 -82z" />
    <glyph glyph-name="quotedblbase" unicode="&#x201e;" horiz-adv-x="741" 
d="M123 -248v94q86 34 86 154h-88v203h190v-207q0 -99 -49 -162t-139 -82zM432 -248v94q86 34 86 154h-88v203h191v-207q0 -99 -49.5 -162t-139.5 -82z" />
    <glyph glyph-name="dagger" unicode="&#x2020;" horiz-adv-x="1003" 
d="M584 -225h-176v1124h-355v150h355v385h176v-385h366v-150h-366v-1124z" />
    <glyph glyph-name="daggerdbl" unicode="&#x2021;" horiz-adv-x="1101" 
d="M633 -225h-176v385h-355v149h355v590h-355v150h355v385h176v-385h366v-150h-366v-590h366v-149h-366v-385z" />
    <glyph glyph-name="bullet" unicode="&#x2022;" horiz-adv-x="714" 
d="M358 446q-95 0 -154 61t-59 155q0 93 59 151.5t154 58.5q92 0 151.5 -59t59.5 -151q0 -94 -59.5 -155t-151.5 -61z" />
    <glyph glyph-name="ellipsis" unicode="&#x2026;" horiz-adv-x="1435" 
d="M322 0h-207v217h207v-217zM821 0h-207v217h207v-217zM1321 0h-207v217h207v-217z" />
    <glyph glyph-name="perthousand" unicode="&#x2030;" horiz-adv-x="2363" 
d="M381 621q-149 0 -228 105.5t-79 295.5q0 185 81.5 295t225.5 110q141 0 224 -111t83 -294q0 -181 -82 -291t-225 -110zM530 0h-172l787 1403h170zM381 752q71 0 104 47q43 60 43 223q0 147 -32.5 209.5t-114.5 62.5q-72 0 -109 -49q-43 -64 -43 -223q0 -143 35.5 -206.5
t116.5 -63.5zM1303 -25q-149 0 -228.5 106t-79.5 296q0 185 81.5 295t226.5 110q141 0 224 -111t83 -294q0 -181 -82 -291.5t-225 -110.5zM1997 -25q-149 0 -228 106t-79 296q0 185 81.5 295t225.5 110q141 0 224 -111t83 -294q0 -181 -82 -291.5t-225 -110.5zM1303 106
q71 0 104 48q43 60 43 223q0 147 -32.5 209.5t-114.5 62.5q-72 0 -109 -49q-43 -64 -43 -223q0 -143 35.5 -207t116.5 -64zM1997 106q71 0 104 48q43 60 43 223q0 147 -32.5 209.5t-114.5 62.5q-72 0 -109 -49q-43 -64 -43 -223q0 -143 35.5 -207t116.5 -64z" />
    <glyph glyph-name="minute" unicode="&#x2032;" horiz-adv-x="479" 
d="M227 866h-155l159 537h218z" />
    <glyph glyph-name="second" unicode="&#x2033;" horiz-adv-x="868" 
d="M227 866h-155l159 537h218zM616 866h-155l160 537h217z" />
    <glyph glyph-name="guilsinglleft" unicode="&#x2039;" horiz-adv-x="532" 
d="M88 653l315 252v-192l-186 -148l186 -147v-195l-315 250v180z" />
    <glyph glyph-name="guilsinglright" unicode="&#x203a;" horiz-adv-x="532" 
d="M129 713v192l315 -252v-180l-315 -250v195l186 147z" />
    <glyph glyph-name="fraction" unicode="&#x2044;" horiz-adv-x="491" 
d="M-195 0h-170l1045 1434h170z" />
    <glyph glyph-name="uni2070" unicode="&#x2070;" horiz-adv-x="849" 
d="M424 664q-170 0 -260 127t-90 368q0 232 92.5 363t257.5 131q167 0 260.5 -131t93.5 -363q0 -235 -93.5 -365t-260.5 -130zM424 801q99 0 147 80q47 86 47 278q0 193 -46 275t-148 82q-95 0 -139 -70q-52 -82 -52 -287q0 -196 44.5 -277t146.5 -81z" />
    <glyph glyph-name="uni2074" unicode="&#x2074;" horiz-adv-x="757" 
d="M590 676h-146v219h-405v135l430 612h121v-616h123v-131h-123v-219zM193 1024q37 2 114 2h139v229q0 41 5 144q-47 -84 -95 -148l-75 -108q-4 -6 -37 -51t-51 -68z" />
    <glyph glyph-name="uni2075" unicode="&#x2075;" horiz-adv-x="776" 
d="M397 1325q146 0 234 -88t88 -238q0 -154 -92.5 -244.5t-249.5 -90.5q-132 0 -224 87t-92 216l146 20q0 -87 50 -138.5t124 -51.5q90 0 142 51.5t52 150.5q0 87 -52.5 140t-141.5 53q-117 0 -178 -88l-129 8l76 530h509v-135h-395l-31 -225q61 43 164 43z" />
    <glyph glyph-name="uni2076" unicode="&#x2076;" horiz-adv-x="802" 
d="M436 1317q134 0 217.5 -88t83.5 -232q0 -45 -10 -89t-34.5 -89t-61 -78.5t-93.5 -55t-128 -21.5q-167 0 -251.5 118.5t-84.5 350.5q0 266 87.5 393t270.5 127q117 0 188.5 -65.5t88.5 -188.5l-136 -23q-6 70 -44.5 108t-100.5 38q-103 0 -154.5 -77.5t-56.5 -234.5
q83 107 219 107zM408 797q95 0 140.5 49t45.5 153q0 93 -45.5 141t-134.5 48q-85 0 -134 -53t-49 -144q0 -92 47.5 -143t129.5 -51z" />
    <glyph glyph-name="uni2077" unicode="&#x2077;" horiz-adv-x="679" 
d="M39 1503v139h614v-133q-154 -147 -251 -374.5t-103 -458.5h-160q11 223 99.5 439.5t240.5 387.5h-440z" />
    <glyph glyph-name="uni2078" unicode="&#x2078;" horiz-adv-x="808" 
d="M406 664q-156 0 -247 83t-91 224q0 81 38.5 142t104.5 91q-102 66 -102 189q0 121 79.5 190.5t219.5 69.5q137 -2 214.5 -70.5t77.5 -189.5t-102 -191q69 -29 106 -89.5t37 -143.5q0 -140 -90 -222.5t-245 -82.5zM406 1247q71 0 112 36.5t41 100.5q0 66 -40 103t-113 37
q-74 0 -115 -37t-41 -103q0 -64 42 -100.5t114 -36.5zM406 795q86 0 138 47.5t52 124.5q0 74 -51 118.5t-139 44.5q-89 0 -141 -44.5t-52 -118.5q0 -77 52.5 -124.5t140.5 -47.5z" />
    <glyph glyph-name="uni2079" unicode="&#x2079;" horiz-adv-x="802" 
d="M393 1653q167 0 251.5 -118t84.5 -349q0 -266 -87.5 -394t-270.5 -128q-116 0 -193 68.5t-94 189.5l137 22q7 -70 49 -108.5t105 -38.5q201 0 213 309q-82 -105 -221 -105q-134 0 -217.5 88t-83.5 230q0 45 10 89t34.5 89t61 79t93.5 55.5t128 21.5zM389 1130
q86 0 134 52t48 143q0 92 -46.5 144.5t-129.5 52.5q-95 0 -140.5 -49.5t-45.5 -155.5q0 -187 180 -187z" />
    <glyph glyph-name="uni2080" unicode="&#x2080;" horiz-adv-x="849" 
d="M424 -221q-170 0 -260 127t-90 368q0 232 92.5 363t257.5 131q167 0 260.5 -131t93.5 -363q0 -235 -93.5 -365t-260.5 -130zM424 -84q99 0 147 80q47 86 47 278q0 193 -46 275t-148 82q-95 0 -139 -70q-52 -82 -52 -287q0 -196 44.5 -277t146.5 -81z" />
    <glyph glyph-name="uni2081" unicode="&#x2081;" horiz-adv-x="540" 
d="M414 -209h-154v721q-34 -30 -101 -48t-134 -15v139q112 0 181.5 46t80.5 124h127v-967z" />
    <glyph glyph-name="uni2082" unicode="&#x2082;" horiz-adv-x="794" 
d="M227 -70h488v-139h-664q4 89 28.5 159.5t68.5 123.5t83.5 86t100.5 73q10 6 46 28t53.5 33.5t47 35.5t44.5 44t27.5 48.5t12.5 58.5q0 79 -39.5 120.5t-113.5 41.5q-88 0 -128 -52.5t-40 -158.5l-154 27q0 41 8 81t31 83.5t58.5 76t95 53.5t135.5 21q135 0 216 -80.5
t81 -214.5q0 -48 -16 -92t-37 -75t-58 -63.5t-64 -51t-69 -45.5q-44 -27 -63 -39.5t-56 -38.5t-56 -45t-39 -45.5t-28 -53.5z" />
    <glyph glyph-name="uni2083" unicode="&#x2083;" horiz-adv-x="790" 
d="M592 317q61 -28 97 -91t36 -144q0 -138 -91.5 -220.5t-242.5 -82.5q-153 0 -240.5 87.5t-87.5 235.5l148 21q0 -99 46.5 -155t133.5 -56q89 0 136.5 44t47.5 124q0 147 -176 147h-86v140h70q70 0 112 36t42 93q0 70 -39.5 109.5t-108.5 39.5q-160 0 -160 -194l-153 22
q0 126 88.5 213.5t224.5 87.5q137 0 217 -74.5t80 -203.5q0 -52 -25.5 -100t-68.5 -79z" />
    <glyph glyph-name="uni2084" unicode="&#x2084;" horiz-adv-x="757" 
d="M578 -209h-146v219h-405v135l430 613h121v-617h122v-131h-122v-219zM180 139q37 2 115 2h139v230q0 61 4 143q-48 -85 -94 -147l-76 -109q-4 -6 -37 -51t-51 -68z" />
    <glyph glyph-name="uni2085" unicode="&#x2085;" horiz-adv-x="776" 
d="M395 440q146 0 234 -87.5t88 -237.5q0 -154 -92.5 -245t-249.5 -91q-132 0 -224 87t-92 216l146 20q0 -87 50 -138.5t124 -51.5q90 0 142 52t52 151q0 87 -52.5 139.5t-141.5 52.5q-117 0 -178 -88l-129 8l75 531h510v-135h-395l-31 -226q61 43 164 43z" />
    <glyph glyph-name="uni2086" unicode="&#x2086;" horiz-adv-x="802" 
d="M434 432q134 0 217.5 -87.5t83.5 -231.5q0 -45 -10 -89t-34.5 -89t-61 -79t-93.5 -55.5t-128 -21.5q-167 0 -251.5 118.5t-84.5 350.5q0 266 87.5 393t270.5 127q117 0 188.5 -65.5t88.5 -188.5l-136 -22q-6 70 -44.5 107.5t-100.5 37.5q-103 0 -154.5 -77t-56.5 -234
q83 106 219 106zM406 -88q95 0 140.5 49.5t45.5 153.5q0 188 -180 188q-85 0 -134 -53t-49 -144q0 -92 47.5 -143t129.5 -51z" />
    <glyph glyph-name="uni2087" unicode="&#x2087;" horiz-adv-x="679" 
d="M47 618v140h615v-133q-154 -147 -251.5 -375t-103.5 -459h-160q11 223 99.5 439.5t240.5 387.5h-440z" />
    <glyph glyph-name="uni2088" unicode="&#x2088;" horiz-adv-x="808" 
d="M406 -221q-156 0 -247 83t-91 224q0 81 38.5 142t104.5 91q-102 66 -102 189q0 121 79.5 190.5t219.5 69.5q137 -2 214.5 -70.5t77.5 -189.5t-102 -191q69 -29 106 -89.5t37 -143.5q0 -140 -90 -222.5t-245 -82.5zM406 362q71 0 112 37t41 101q0 66 -40 102.5t-113 36.5
q-74 0 -115 -36.5t-41 -102.5q0 -64 42 -101t114 -37zM406 -90q86 0 138 47.5t52 124.5q0 74 -51 119t-139 45q-89 0 -141 -45t-52 -119q0 -77 52.5 -124.5t140.5 -47.5z" />
    <glyph glyph-name="uni2089" unicode="&#x2089;" horiz-adv-x="802" 
d="M395 768q167 0 251.5 -118t84.5 -349q0 -266 -87.5 -394t-270.5 -128q-116 0 -193 68.5t-94 189.5l137 22q7 -70 49 -108.5t105 -38.5q201 0 213 309q-81 -104 -221 -104q-134 0 -217.5 87.5t-83.5 229.5q0 45 10 89t34.5 89t61 79t93.5 55.5t128 21.5zM391 246
q86 0 134 51.5t48 142.5q0 92 -46.5 144.5t-129.5 52.5q-95 0 -140.5 -49.5t-45.5 -155.5q0 -186 180 -186z" />
    <glyph glyph-name="uni20A9" unicode="&#x20a9;" horiz-adv-x="2013" 
d="M1931 905v-121h-196l-45 -170h241v-120h-272l-129 -494h-195l-141 494h-375l-139 -494h-197l-129 494h-272v120h242l-45 170h-197v121h166l-137 529h196l121 -529h342l143 529h189l147 -529h338l119 529h197l-138 -529h166zM1006 1176h-2q-25 -110 -68 -271h141
q-37 128 -71 271zM735 784h-278l39 -170h194zM901 784l-47 -170h305l-49 170h-209zM1329 614h193l37 170h-277zM584 219h2q67 259 71 275h-133q21 -97 38 -173.5t22 -101.5zM1434 219h2q23 117 59 275h-133q34 -117 72 -275z" />
    <glyph glyph-name="Euro" unicode="&#x20ac;" horiz-adv-x="1251" 
d="M1006 420l182 -47q-57 -193 -175 -295.5t-315 -102.5q-96 0 -174.5 26.5t-135.5 74.5t-98.5 117.5t-66.5 152t-37 182.5h-108v121h100q-2 23 -2 70t2 72h-100v120h110q16 122 55 220t100.5 172t152 114.5t202.5 40.5q177 0 301.5 -97t169.5 -265l-180 -35
q-30 120 -99.5 178.5t-191.5 58.5q-162 0 -237 -116q-59 -97 -74 -271h424v-120h-432v-72v-70h432v-121h-424q18 -197 89 -295t222 -98q131 0 204.5 71.5t103.5 213.5z" />
    <glyph glyph-name="uni20B9" unicode="&#x20b9;" horiz-adv-x="1128" 
d="M1065 1432v-144h-283q73 -80 90 -201h193v-143h-191q-6 -67 -27.5 -120.5t-51 -90t-72.5 -63t-85.5 -41.5t-98.5 -23.5t-101.5 -11t-103.5 -2.5l567 -588l-2 -6h-237l-547 571v174h196q41 0 71 1t69.5 6t68.5 13t60 23t52 36t37.5 52t22.5 70h-577v143h573
q-8 41 -26 72.5t-37.5 51.5t-52.5 34.5t-58 21.5t-67 10.5t-65.5 4t-68.5 0.5h-198v150h950z" />
    <glyph glyph-name="uni20BA" unicode="&#x20ba;" horiz-adv-x="1196" 
d="M963 543l182 -47q-58 -234 -241 -365t-472 -131h-164v508l-162 -90v147l162 90v162l-162 -90v147l162 91v469h185v-367l411 227v-147l-411 -227v-162l411 227v-147l-411 -228v-450q225 6 347.5 105t162.5 278z" />
    <glyph glyph-name="uni20BD" unicode="&#x20bd;" horiz-adv-x="1284" 
d="M676 584h-236v-181h459v-135h-459v-268h-184v268h-162v135h162v183h-162v149h162v699h422q59 0 108 -3.5t107 -15t103.5 -30t89 -52t72.5 -78t47 -110t18 -146.5q0 -78 -18 -141t-46.5 -105.5t-73 -74t-89.5 -49.5t-103.5 -28.5t-107.5 -13.5t-109 -3zM678 1276h-238
v-539h236q43 0 73 1.5t71.5 7t70 16t59 29.5t49.5 46.5t31 68.5t12 93q0 57 -12.5 101t-30.5 73t-49.5 49t-58.5 30.5t-70 16t-70.5 6.5t-72.5 1z" />
    <glyph glyph-name="uni20BF" unicode="&#x20bf;" horiz-adv-x="1298" 
d="M1221 395q0 -98 -27.5 -170t-79.5 -115t-112.5 -66t-139.5 -34v-149h-147v139h-72h-82v-139h-147v139h-244v1434h244v139h147v-139h68q57 0 86 -2v141h147v-158q67 -13 118.5 -37.5t94.5 -67t66.5 -111t23.5 -159.5q0 -102 -48 -182t-132 -125q122 -45 179 -125t57 -213z
M614 1274h-260v-463h258q38 0 59.5 0.5t58 2.5t58 6t52 12t48.5 19t39 28.5t32 40t18.5 53t7.5 67.5q0 48 -12.5 85.5t-30 62t-49.5 41.5t-59 25.5t-71.5 13t-72.5 5.5t-76 1zM354 158h289q168 0 235 17q129 32 155 149q7 32 7 71q0 38 -6 69.5t-19.5 55.5t-28 43t-38 32.5
t-43 23.5t-49.5 15.5t-50 9.5t-53.5 5t-50.5 1.5t-49 0.5h-299v-493z" />
    <glyph glyph-name="uni2116" unicode="&#x2116;" horiz-adv-x="2265" 
d="M1819 702q-165 0 -260 100.5t-95 272.5q0 165 96.5 270t258.5 105t259 -105.5t97 -269.5q0 -167 -97.5 -270t-258.5 -103zM352 0h-182v1434h199l538 -867q72 -117 180 -323h3q-11 218 -11 364v826h183v-1434h-209l-533 866q-66 106 -176 324h-2q10 -228 10 -365v-825z
M1819 815q86 0 137 45q67 62 67 215q0 130 -47.5 197t-156.5 67q-93 0 -142 -49q-63 -63 -63 -215q0 -127 47.5 -193.5t157.5 -66.5zM2181 455h-725v127h725v-127z" />
    <glyph glyph-name="uni2117" unicode="&#x2117;" horiz-adv-x="1615" 
d="M805 -23q-152 0 -286 56.5t-230.5 154t-152.5 235.5t-56 294q0 158 56 296t152.5 235.5t230.5 153.5t286 56t287 -56t232.5 -153.5t154.5 -235.5t57 -296q0 -156 -57 -294t-154.5 -235.5t-232.5 -154t-287 -56.5zM805 72q177 0 319 83.5t222.5 231t80.5 330.5
q0 184 -80.5 333t-223 233.5t-318.5 84.5q-175 0 -317 -84.5t-223 -233.5t-81 -333q0 -183 81 -330.5t223 -231t317 -83.5zM680 291h-152v854h344q44 0 85 -8t80.5 -28t68 -49.5t46 -76t17.5 -104.5q0 -70 -25.5 -121t-69 -78.5t-92.5 -40t-105 -12.5h-197v-336zM680 1012
v-252h164q88 0 130 25.5t42 99.5q0 127 -172 127h-164z" />
    <glyph glyph-name="trademark" unicode="&#x2122;" horiz-adv-x="1611" 
d="M410 719h-125v604h-226v111h576v-111h-225v-604zM856 719h-123v715h170l141 -404l56 -168l55 168l139 404h170v-715h-125v385q0 39 4 125q-7 -19 -22 -58.5t-21 -58.5l-137 -393h-129l-145 407q-4 13 -17 47.5t-20 55.5q4 -74 4 -115v-395z" />
    <glyph glyph-name="uni2126" unicode="&#x2126;" horiz-adv-x="1572" 
d="M1466 723q0 -376 -288 -561h260v-162h-566v162q200 47 292.5 185.5t92.5 375.5q0 273 -102 412q-50 71 -146.5 116t-222.5 45t-220.5 -44.5t-147.5 -116.5q-103 -141 -103 -412q0 -237 92.5 -375.5t292.5 -185.5v-162h-565v162h260q-289 185 -289 561q0 163 45 298
t129.5 232t214 151t291.5 54t291.5 -54t214 -151t129.5 -232t45 -298z" />
    <glyph glyph-name="uni2153" unicode="&#x2153;" horiz-adv-x="1726" 
d="M410 563h-138v649q-31 -27 -92 -43.5t-121 -13.5v125q101 0 164 41.5t72 112.5h115v-871zM154 0l1044 1434h170l-1044 -1434h-170zM1536 473q55 -25 88 -82t33 -129q0 -124 -82.5 -198t-218.5 -74q-137 0 -216 79t-79 212l133 18q0 -90 42 -140t120 -50q79 0 122.5 39.5
t43.5 111.5q0 66 -40.5 99.5t-117.5 33.5h-78v125h62q64 0 101.5 32t37.5 85q0 63 -35 98t-98 35q-144 0 -144 -174l-139 20q0 114 80 192.5t203 78.5t195.5 -67.5t72.5 -182.5q0 -47 -23 -90.5t-63 -71.5z" />
    <glyph glyph-name="uni2154" unicode="&#x2154;" horiz-adv-x="1935" 
d="M317 961q9 6 50 30.5t59.5 38.5t46.5 40t40.5 54t12.5 60q0 71 -36 108t-103 37q-78 0 -114.5 -46.5t-36.5 -141.5l-138 22q0 37 7.5 73t27.5 75.5t52 69t85.5 48.5t122.5 19q121 0 193.5 -72t72.5 -194q0 -53 -18.5 -99t-55 -83t-67.5 -60t-78 -53q-42 -26 -57 -35.5
t-49.5 -34t-50.5 -40.5t-34 -40.5t-26 -48.5h439v-125h-596q3 65 19 120t38 93.5t57 75t65 59.5t72 50zM369 0l1044 1434h170l-1044 -1434h-170zM1751 473q55 -25 88 -82t33 -129q0 -124 -82.5 -198t-218.5 -74q-137 0 -216 79t-79 212l133 18q0 -90 42 -140t120 -50
q79 0 122.5 39.5t43.5 111.5q0 66 -40.5 99.5t-117.5 33.5h-78v125h62q64 0 101.5 32t37.5 85q0 63 -35 98t-98 35q-144 0 -144 -174l-139 20q0 114 80 192.5t203 78.5t195.5 -67.5t72.5 -182.5q0 -47 -23 -90.5t-63 -71.5z" />
    <glyph glyph-name="uni2155" unicode="&#x2155;" horiz-adv-x="1726" 
d="M410 563h-138v649q-31 -27 -92 -43.5t-121 -13.5v125q101 0 164 41.5t72 112.5h115v-871zM154 0l1044 1434h170l-1044 -1434h-170zM1364 584q130 0 209.5 -79.5t79.5 -213.5q0 -138 -83.5 -219.5t-223.5 -81.5q-120 0 -202.5 77.5t-82.5 194.5l131 19q0 -78 45 -125
t111 -47q82 0 129 46.5t47 135.5q0 79 -47.5 126.5t-128.5 47.5q-104 0 -160 -80l-117 8l70 477h458v-122h-356l-29 -203q53 39 150 39z" />
    <glyph glyph-name="uni2156" unicode="&#x2156;" horiz-adv-x="1933" 
d="M317 961q9 6 50 30.5t59.5 38.5t46.5 40t40.5 54t12.5 60q0 71 -36 108t-103 37q-78 0 -114.5 -46.5t-36.5 -141.5l-138 22q0 37 7.5 73t27.5 75.5t52 69t85.5 48.5t122.5 19q121 0 193.5 -72t72.5 -194q0 -53 -18.5 -99t-55 -83t-67.5 -60t-78 -53q-42 -26 -57 -35.5
t-49.5 -34t-50.5 -40.5t-34 -40.5t-26 -48.5h439v-125h-596q3 65 19 120t38 93.5t57 75t65 59.5t72 50zM369 0l1044 1434h170l-1044 -1434h-170zM1579 584q130 0 209.5 -79.5t79.5 -213.5q0 -138 -83.5 -219.5t-223.5 -81.5q-120 0 -202.5 77.5t-82.5 194.5l131 19
q0 -78 45 -125t111 -47q82 0 129 46.5t47 135.5q0 79 -47.5 126.5t-128.5 47.5q-104 0 -160 -80l-117 8l70 477h459v-122h-357l-28 -203q53 39 149 39z" />
    <glyph glyph-name="uni2157" unicode="&#x2157;" horiz-adv-x="1923" 
d="M659 825q0 -124 -82.5 -198t-218.5 -74q-137 0 -216 79t-79 212l134 18q0 -90 42 -140t119 -50q79 0 122.5 39.5t43.5 111.5q0 133 -157 133h-78v125h61q64 0 101.5 32t37.5 85q0 63 -35 98t-98 35q-143 0 -143 -174l-139 21q0 114 79.5 192t202.5 78t196 -67.5
t73 -182.5q0 -47 -23 -90.5t-63 -71.5q55 -25 87.5 -82t32.5 -129zM358 0l1045 1434h170l-1045 -1434h-170zM1569 584q130 0 209.5 -79.5t79.5 -213.5q0 -138 -84 -219.5t-224 -81.5q-120 0 -202 77.5t-82 194.5l131 19q0 -78 44.5 -125t110.5 -47q82 0 129.5 46.5
t47.5 135.5q0 79 -48 126.5t-129 47.5q-103 0 -159 -80l-117 8l70 477h458v-122h-356l-29 -203q53 39 150 39z" />
    <glyph glyph-name="uni2158" unicode="&#x2158;" horiz-adv-x="1921" 
d="M553 563h-131v197h-365v123l387 551h109v-555h111v-119h-111v-197zM342 0l1044 1434h170l-1044 -1434h-170zM299 879h125v206q0 55 4 129q-43 -77 -84 -133l-70 -98q-60 -83 -77 -106q33 2 102 2zM1552 584q130 0 209.5 -79.5t79.5 -213.5q0 -138 -83.5 -219.5
t-223.5 -81.5q-120 0 -202.5 77.5t-82.5 194.5l131 19q0 -78 45 -125t111 -47q82 0 129 46.5t47 135.5q0 79 -47.5 126.5t-128.5 47.5q-104 0 -160 -80l-116 8l69 477h459v-122h-356l-29 -203q53 39 149 39z" />
    <glyph glyph-name="uni2159" unicode="&#x2159;" horiz-adv-x="1699" 
d="M410 563h-138v649q-31 -27 -92 -43.5t-121 -13.5v125q101 0 164 41.5t72 112.5h115v-871zM154 0l1044 1434h170l-1044 -1434h-170zM1358 578q120 0 195 -79.5t75 -209.5q0 -40 -9 -80t-31.5 -80t-55 -70.5t-84 -49.5t-115.5 -19q-303 0 -303 422q0 237 80 352t244 115
q104 0 169.5 -59.5t80.5 -168.5l-123 -20q-6 63 -40.5 97t-90.5 34q-182 0 -191 -281q78 97 199 97zM1331 109q86 0 127 44t41 138q0 83 -41.5 126.5t-120.5 43.5q-76 0 -119.5 -47t-43.5 -129q0 -83 41.5 -129.5t115.5 -46.5z" />
    <glyph glyph-name="uni215A" unicode="&#x215a;" horiz-adv-x="1865" 
d="M655 854q0 -138 -83.5 -219.5t-223.5 -81.5q-120 0 -202.5 77.5t-82.5 194.5l132 19q0 -78 44.5 -125t110.5 -47q82 0 129 46.5t47 135.5q0 79 -47.5 126.5t-128.5 47.5q-104 0 -160 -80l-116 8l69 478h459v-123h-356l-29 -203q53 39 150 39q130 0 209 -79.5t79 -213.5z
M326 0l1044 1434h170l-1044 -1434h-170zM1530 578q120 0 195 -79.5t75 -209.5q0 -40 -9 -80t-31.5 -80t-55 -70.5t-84 -49.5t-115.5 -19q-303 0 -303 422q0 237 80 352t244 115q104 0 169.5 -59.5t80.5 -168.5l-123 -20q-6 63 -40.5 97t-90.5 34q-182 0 -191 -281
q78 97 199 97zM1503 109q86 0 127 44t41 138q0 83 -41.5 126.5t-120.5 43.5q-76 0 -119.5 -47t-43.5 -129q0 -83 41.5 -129.5t115.5 -46.5z" />
    <glyph glyph-name="oneeighth" unicode="&#x215b;" horiz-adv-x="1742" 
d="M410 563h-138v649q-31 -27 -92 -43.5t-121 -13.5v125q101 0 164 41.5t72 112.5h115v-871zM324 0h-170l1044 1434h170zM1370 -10q-141 0 -222 74t-81 202q0 72 34.5 127t94.5 82q-92 60 -92 170q0 109 71 171.5t197 62.5q123 -2 193.5 -64t70.5 -170q0 -109 -92 -172
q62 -26 95.5 -81t33.5 -128q0 -126 -82 -200t-221 -74zM1370 514q64 0 101.5 33t37.5 90q0 60 -36.5 93.5t-102.5 33.5t-102.5 -33.5t-36.5 -93.5q0 -57 37.5 -90t101.5 -33zM1370 106q78 0 125 43.5t47 112.5q0 67 -46.5 107.5t-125.5 40.5t-125.5 -40.5t-46.5 -107.5
q0 -70 46.5 -113t125.5 -43z" />
    <glyph glyph-name="threeeighths" unicode="&#x215c;" horiz-adv-x="1945" 
d="M664 825q0 -124 -83 -198t-219 -74q-137 0 -215.5 79t-78.5 212l133 18q0 -90 42 -140t119 -50q79 0 122.5 39.5t43.5 111.5q0 133 -157 133h-78v125h61q64 0 102 32t38 85q0 63 -35.5 98t-98.5 35q-143 0 -143 -174l-139 21q0 114 79.5 192t202.5 78t196 -67.5
t73 -182.5q0 -47 -23 -90.5t-63 -71.5q55 -25 88 -82t33 -129zM362 0l1045 1434h170l-1045 -1434h-170zM1753 473q62 -26 95.5 -81t33.5 -128q0 -126 -82 -200t-221 -74q-141 0 -222 74t-81 202q0 72 34.5 127t94.5 82q-92 60 -92 170q0 109 71 171.5t197 62.5
q123 -2 193.5 -64t70.5 -170q0 -109 -92 -172zM1579 764q-66 0 -102.5 -33.5t-36.5 -93.5q0 -57 37.5 -90t101.5 -33t101.5 33t37.5 90q0 60 -36.5 93.5t-102.5 33.5zM1579 106q78 0 125 43.5t47 112.5q0 67 -46.5 107.5t-125.5 40.5t-125.5 -40.5t-46.5 -107.5
q0 -70 46.5 -113t125.5 -43z" />
    <glyph glyph-name="fiveeighths" unicode="&#x215d;" horiz-adv-x="1910" 
d="M657 854q0 -138 -83.5 -219.5t-223.5 -81.5q-120 0 -202 77.5t-82 194.5l131 19q0 -78 44.5 -125t110.5 -47q82 0 129 46.5t47 135.5q0 79 -47.5 126.5t-128.5 47.5q-103 0 -159 -80l-117 8l69 478h459v-123h-356l-29 -203q53 39 150 39q130 0 209 -79.5t79 -213.5z
M328 0l1044 1434h170l-1044 -1434h-170zM1718 473q62 -26 95.5 -81t33.5 -128q0 -126 -82 -200t-221 -74q-141 0 -222 74t-81 202q0 72 34.5 127t94.5 82q-92 60 -92 170q0 109 71 171.5t197 62.5q123 -2 193.5 -64t70.5 -170q0 -109 -92 -172zM1544 764q-66 0 -102.5 -33.5
t-36.5 -93.5q0 -57 37.5 -90t101.5 -33t101.5 33t37.5 90q0 60 -36.5 93.5t-102.5 33.5zM1544 106q78 0 125 43.5t47 112.5q0 67 -46.5 107.5t-125.5 40.5t-125.5 -40.5t-46.5 -107.5q0 -70 46.5 -113t125.5 -43z" />
    <glyph glyph-name="seveneighths" unicode="&#x215e;" horiz-adv-x="1693" 
d="M301 563h-143q11 202 91 397.5t216 348.5h-397v125h553v-121q-138 -131 -226 -336t-94 -414zM111 0l1044 1434h170l-1044 -1434h-170zM1501 473q62 -26 95.5 -81t33.5 -128q0 -126 -82 -200t-221 -74q-141 0 -222 74t-81 202q0 72 34.5 127t94.5 82q-92 60 -92 170
q0 109 71 171.5t197 62.5q123 -2 193.5 -64t70.5 -170q0 -109 -92 -172zM1327 764q-66 0 -102.5 -33.5t-36.5 -93.5q0 -57 37.5 -90t101.5 -33t101.5 33t37.5 90q0 60 -36.5 93.5t-102.5 33.5zM1327 106q78 0 125 43.5t47 112.5q0 67 -46.5 107.5t-125.5 40.5t-125.5 -40.5
t-46.5 -107.5q0 -70 46.5 -113t125.5 -43z" />
    <glyph glyph-name="uni215F" unicode="&#x215f;" horiz-adv-x="946" 
d="M442 563h-137v649q-31 -27 -92 -43.5t-121 -13.5v125q101 0 164 41.5t72 112.5h114v-871zM356 0h-170l1045 1434h170z" />
    <glyph glyph-name="arrowleft" unicode="&#x2190;" horiz-adv-x="1568" 
d="M526 1024h234l-307 -317q-16 -16 -36 -35.5t-46 -43.5l-39 -36q86 2 168 2h991v-164h-991q-80 0 -168 2q39 -37 123 -121l305 -311h-234l-479 512z" />
    <glyph glyph-name="arrowup" unicode="&#x2191;" horiz-adv-x="1089" 
d="M627 0h-164v1001q0 119 2 185q-65 -75 -111 -121l-297 -309v235l488 488l487 -488v-235l-293 305q-82 86 -114 125q2 -66 2 -185v-1001z" />
    <glyph glyph-name="arrowright" unicode="&#x2192;" horiz-adv-x="1568" 
d="M1042 0h-233l307 317q16 16 36 35.5t46 43.5l39 36q-86 -2 -168 -2h-991v164h991q80 0 168 -2q-39 37 -123 121l-305 311h233l480 -512z" />
    <glyph glyph-name="arrowdown" unicode="&#x2193;" horiz-adv-x="1089" 
d="M463 1438h164v-1002q0 -118 -2 -184q71 83 110 121l297 309v-236l-487 -487l-488 487v236l293 -305q90 -95 115 -125q-2 66 -2 184v1002z" />
    <glyph glyph-name="uni2196" unicode="&#x2196;" horiz-adv-x="1265" 
d="M1223 37l-117 -117l-709 709q-84 84 -127 131q6 -88 6 -164l9 -428l-166 166v690h690l166 -166l-424 8q-6 0 -69.5 2t-98.5 4q92 -88 131 -129z" />
    <glyph glyph-name="uni2197" unicode="&#x2197;" horiz-adv-x="1265" 
d="M160 -80l-117 117l709 708q84 84 131 127q-88 -6 -164 -6l-428 -8l166 166h690v-690l-166 -166l8 424q0 6 2 69.5t4 98.5q-88 -92 -129 -131z" />
    <glyph glyph-name="uni2198" unicode="&#x2198;" horiz-adv-x="1265" 
d="M43 987l117 117l708 -709q84 -84 127 -131q-6 88 -6 164l-8 428l166 -166v-690h-690l-166 166l424 -8q6 0 69.5 -2t98.5 -4q-92 88 -131 129z" />
    <glyph glyph-name="uni2199" unicode="&#x2199;" horiz-adv-x="1265" 
d="M1106 1104l117 -117l-709 -708q-84 -84 -131 -127q89 6 164 6l428 8l-166 -166h-690v690l166 166l-9 -424q0 -6 -2 -69.5t-4 -98.5q88 92 129 131z" />
    <glyph glyph-name="partialdiff" unicode="&#x2202;" horiz-adv-x="1097" 
d="M285 1294l12 162q715 -91 715 -870q0 -92 -19 -178.5t-60.5 -165.5t-101 -138t-147 -94t-192.5 -35q-203 0 -325 122t-122 306q0 147 63.5 267t178 189t258.5 69q87 0 164 -32t122 -91q-33 219 -166 332.5t-380 156.5zM496 125q101 0 177.5 57t113 143.5t36.5 186.5
q0 131 -67.5 199.5t-200.5 68.5q-148 0 -238 -104t-90 -273q0 -129 69 -203.5t200 -74.5z" />
    <glyph glyph-name="emptyset" unicode="&#x2205;" horiz-adv-x="1263" 
d="M1102 1102l78 -74l-148 -158q135 -151 135 -358q0 -146 -70.5 -269.5t-194 -195.5t-271.5 -72q-189 0 -330 113l-141 -151l-78 71l141 152q-129 152 -129 352q0 146 71 269.5t194.5 195.5t271.5 72q183 0 321 -107zM238 512q0 -139 81 -250l541 582q-99 74 -229 74
q-165 0 -279 -118.5t-114 -287.5zM1024 512q0 142 -86 256l-545 -582q108 -80 238 -80q166 0 279.5 119.5t113.5 286.5z" />
    <glyph glyph-name="uni2206" unicode="&#x2206;" horiz-adv-x="1398" 
d="M625 1434h149l582 -1434h-1313zM1102 166l-404 995l-401 -995h805z" />
    <glyph glyph-name="product" unicode="&#x220f;" horiz-adv-x="1372" 
d="M356 -197h-186v1631h1032v-1631h-186v1465h-660v-1465z" />
    <glyph glyph-name="summation" unicode="&#x2211;" horiz-adv-x="1185" 
d="M289 -23v-2h833v-172h-1050v191l544 641v2l-544 616v181h1032v-166h-801v-2l518 -584v-80z" />
    <glyph glyph-name="minus" unicode="&#x2212;" horiz-adv-x="1161" 
d="M1038 588h-915v137h915v-137z" />
    <glyph glyph-name="uni2215" unicode="&#x2215;" horiz-adv-x="491" 
d="M-195 0h-170l1045 1434h170z" />
    <glyph glyph-name="radical" unicode="&#x221a;" horiz-adv-x="1191" 
d="M909 1434h299v-168h-159l-414 -1463h-225l-250 654h-152v168h275l131 -355q27 -71 102 -319q15 53 42 159.5t42 159.5z" />
    <glyph glyph-name="infinity" unicode="&#x221e;" horiz-adv-x="1501" 
d="M410 283q-146 0 -234 99.5t-88 242.5q0 141 89 240.5t233 99.5q110 0 192.5 -60.5t153.5 -165.5q45 68 88 114t107 79t136 33q140 0 233 -95t93 -245q0 -153 -93 -247.5t-233 -94.5q-105 0 -184 60t-147 167q-70 -106 -152.5 -166.5t-193.5 -60.5zM420 434q128 0 246 189
q-114 190 -246 190q-78 0 -125 -53.5t-47 -134.5q0 -82 47 -136.5t125 -54.5zM1079 434q78 0 126 55t48 136t-48 134.5t-126 53.5q-65 0 -119.5 -50.5t-109.5 -139.5q57 -88 111 -138.5t118 -50.5z" />
    <glyph glyph-name="integral" unicode="&#x222b;" horiz-adv-x="696" 
d="M143 -408q-81 0 -153 21l4 156q52 -23 121 -23q141 0 141 145v1264q0 295 297 295q89 0 154 -18l-5 -156q-58 20 -122 20q-140 0 -140 -147v-1258q0 -154 -81 -226.5t-216 -72.5z" />
    <glyph glyph-name="approxequal" unicode="&#x2248;" horiz-adv-x="1179" 
d="M264 702h-133q3 107 62 166.5t155 59.5q86 0 259 -38t218 -38q90 0 93 88h137q-3 -104 -59 -163.5t-158 -59.5q-83 0 -260 38t-228 38q-83 0 -86 -91zM264 377h-133q3 107 62 166t155 59q86 0 259 -38t218 -38q90 0 93 88h137q-3 -104 -59 -163.5t-158 -59.5
q-83 0 -260 38t-228 38q-83 0 -86 -90z" />
    <glyph glyph-name="notequal" unicode="&#x2260;" horiz-adv-x="1165" 
d="M1040 893v-137h-362l-98 -191h460v-137h-530l-102 -201h-121l102 201h-264v137h334l96 191h-430v137h500l104 205h123l-104 -205h292z" />
    <glyph glyph-name="lessequal" unicode="&#x2264;" horiz-adv-x="1032" 
d="M918 383v-152l-818 324v152l818 323v-151l-437 -168q-69 -25 -248 -80q154 -46 246 -80zM918 137v-137h-818v137h818z" />
    <glyph glyph-name="greaterequal" unicode="&#x2265;" horiz-adv-x="1032" 
d="M932 555l-817 -324v152l438 168q92 34 246 80q-179 55 -248 80l-436 168v151l817 -323v-152zM932 0h-817v137h817v-137z" />
    <glyph glyph-name="angleleft" unicode="&#x2329;" horiz-adv-x="647" 
d="M633 1516l-426 -912l436 -932h-186l-441 926l430 918h187z" />
    <glyph glyph-name="angleright" unicode="&#x232a;" horiz-adv-x="647" 
d="M14 1516h187l430 -918l-441 -926h-186l436 932z" />
    <glyph glyph-name="uni2460" unicode="&#x2460;" horiz-adv-x="1615" 
d="M805 -23q-152 0 -286 56.5t-230.5 154t-152.5 235.5t-56 294q0 158 56 296t152.5 235.5t230.5 153.5t286 56t287 -56t232.5 -153.5t154.5 -235.5t57 -296q0 -156 -57 -294t-154.5 -235.5t-232.5 -154t-287 -56.5zM805 72q177 0 319 83.5t222.5 231t80.5 330.5
q0 184 -80.5 333t-223 233.5t-318.5 84.5q-175 0 -317 -84.5t-223 -233.5t-81 -333q0 -183 81 -330.5t223 -231t317 -83.5zM903 291h-137v649q-31 -27 -92 -43.5t-121 -13.5v125q101 0 163.5 41t71.5 112h115v-870z" />
    <glyph glyph-name="uni2461" unicode="&#x2461;" horiz-adv-x="1615" 
d="M805 1458q152 0 287 -56t232.5 -153.5t154.5 -235.5t57 -296q0 -156 -57 -294t-154.5 -235.5t-232.5 -154t-287 -56.5t-286 56.5t-230.5 154t-152.5 235.5t-56 294q0 158 56 296t152.5 235.5t230.5 153.5t286 56zM805 72q177 0 319 83.5t222.5 231t80.5 330.5
q0 184 -80.5 333t-223 233.5t-318.5 84.5q-175 0 -317 -84.5t-223 -233.5t-81 -333q0 -183 81 -330.5t223 -231t317 -83.5zM874 614q-114 -71 -152 -105q-50 -46 -65 -93h439v-125h-596q4 80 25.5 143.5t60.5 111t75.5 77.5t90.5 65q9 6 50 30.5t59.5 38.5t46.5 40t40.5 54
t12.5 60q0 71 -36.5 108.5t-103.5 37.5q-78 0 -114.5 -47t-36.5 -142l-138 23q0 37 7.5 73t27.5 75.5t52 69t85.5 48.5t122.5 19q121 0 194 -73t73 -194q0 -43 -14 -82.5t-33.5 -67.5t-52.5 -57.5t-57.5 -46.5t-62.5 -41z" />
    <glyph glyph-name="uni2462" unicode="&#x2462;" horiz-adv-x="1615" 
d="M805 1458q152 0 287 -56t232.5 -153.5t154.5 -235.5t57 -296q0 -156 -57 -294t-154.5 -235.5t-232.5 -154t-287 -56.5t-286 56.5t-230.5 154t-152.5 235.5t-56 294q0 158 56 296t152.5 235.5t230.5 153.5t286 56zM805 72q177 0 319 83.5t222.5 231t80.5 330.5
q0 184 -80.5 333t-223 233.5t-318.5 84.5q-175 0 -317 -84.5t-223 -233.5t-81 -333q0 -183 81 -330.5t223 -231t317 -83.5zM983 764q55 -25 88 -82t33 -129q0 -124 -82.5 -198t-218.5 -74q-137 0 -216 78.5t-79 211.5l133 19q0 -90 42.5 -140.5t119.5 -50.5q79 0 122.5 40
t43.5 112q0 66 -40.5 99.5t-117.5 33.5h-78v125h62q64 0 101.5 32t37.5 85q0 63 -35 98t-98 35q-144 0 -144 -174l-139 20q0 114 80 192.5t203 78.5t195.5 -67.5t72.5 -182.5q0 -47 -23 -90.5t-63 -71.5z" />
    <glyph glyph-name="uni2463" unicode="&#x2463;" horiz-adv-x="1615" 
d="M805 -23q-152 0 -286 56.5t-230.5 154t-152.5 235.5t-56 294q0 158 56 296t152.5 235.5t230.5 153.5t286 56t287 -56t232.5 -153.5t154.5 -235.5t57 -296q0 -156 -57 -294t-154.5 -235.5t-232.5 -154t-287 -56.5zM805 72q177 0 319 83.5t222.5 231t80.5 330.5
q0 184 -80.5 333t-223 233.5t-318.5 84.5q-175 0 -317 -84.5t-223 -233.5t-81 -333q0 -183 81 -330.5t223 -231t317 -83.5zM958 291h-131v196h-364v123l387 551h108v-555h111v-119h-111v-196zM602 604q33 2 103 2h124v207q0 37 5 129q-43 -77 -84 -133l-70 -98
q-57 -80 -78 -107z" />
    <glyph glyph-name="uni2464" unicode="&#x2464;" horiz-adv-x="1615" 
d="M805 1458q152 0 287 -56t232.5 -153.5t154.5 -235.5t57 -296q0 -156 -57 -294t-154.5 -235.5t-232.5 -154t-287 -56.5t-286 56.5t-230.5 154t-152.5 235.5t-56 294q0 158 56 296t152.5 235.5t230.5 153.5t286 56zM805 72q177 0 319 83.5t222.5 231t80.5 330.5
q0 184 -80.5 333t-223 233.5t-318.5 84.5q-175 0 -317 -84.5t-223 -233.5t-81 -333q0 -183 81 -330.5t223 -231t317 -83.5zM803 874q130 0 209.5 -79t79.5 -213q0 -138 -84 -219.5t-224 -81.5q-120 0 -202 77.5t-82 194.5l131 18q0 -78 44.5 -125t110.5 -47q82 0 129.5 47
t47.5 136q0 79 -48 126.5t-129 47.5q-103 0 -159 -80l-117 8l70 477h458v-123h-356l-29 -202q52 38 150 38z" />
    <glyph glyph-name="uni2465" unicode="&#x2465;" horiz-adv-x="1615" 
d="M805 1458q152 0 287 -56t232.5 -153.5t154.5 -235.5t57 -296q0 -156 -57 -294t-154.5 -235.5t-232.5 -154t-287 -56.5t-286 56.5t-230.5 154t-152.5 235.5t-56 294q0 158 56 296t152.5 235.5t230.5 153.5t286 56zM805 72q177 0 319 83.5t222.5 231t80.5 330.5
q0 184 -80.5 333t-223 233.5t-318.5 84.5q-175 0 -317 -84.5t-223 -233.5t-81 -333q0 -183 81 -330.5t223 -231t317 -83.5zM817 868q121 0 195.5 -79t74.5 -209q0 -51 -15.5 -101t-48 -95.5t-92 -74t-138.5 -28.5q-304 0 -304 421q0 237 80 352t244 115q104 0 169.5 -59
t80.5 -168l-123 -20q-6 63 -40.5 97t-90.5 34q-182 0 -191 -281q77 96 199 96zM791 399q86 0 126.5 44.5t40.5 138.5q0 83 -41 126.5t-120 43.5q-76 0 -120 -47.5t-44 -129.5q0 -83 42 -129.5t116 -46.5z" />
    <glyph glyph-name="uni2466" unicode="&#x2466;" horiz-adv-x="1615" 
d="M805 1458q152 0 287 -56t232.5 -153.5t154.5 -235.5t57 -296q0 -156 -57 -294t-154.5 -235.5t-232.5 -154t-287 -56.5t-286 56.5t-230.5 154t-152.5 235.5t-56 294q0 158 56 296t152.5 235.5t230.5 153.5t286 56zM805 72q177 0 319 83.5t222.5 231t80.5 330.5
q0 184 -80.5 333t-223 233.5t-318.5 84.5q-175 0 -317 -84.5t-223 -233.5t-81 -333q0 -183 81 -330.5t223 -231t317 -83.5zM946 1026h-397v125h553v-121q-138 -131 -226 -335.5t-94 -413.5h-143q11 202 91 397t216 348z" />
    <glyph glyph-name="uni2467" unicode="&#x2467;" horiz-adv-x="1615" 
d="M805 -23q-152 0 -286 56.5t-230.5 154t-152.5 235.5t-56 294q0 158 56 296t152.5 235.5t230.5 153.5t286 56t287 -56t232.5 -153.5t154.5 -235.5t57 -296q0 -156 -57 -294t-154.5 -235.5t-232.5 -154t-287 -56.5zM805 72q177 0 319 83.5t222.5 231t80.5 330.5
q0 184 -80.5 333t-223 233.5t-318.5 84.5q-175 0 -317 -84.5t-223 -233.5t-81 -333q0 -183 81 -330.5t223 -231t317 -83.5zM807 281q-141 0 -222 74t-81 202q0 72 34.5 127t94.5 82q-92 60 -92 170q0 109 71 171t197 62q123 -2 193.5 -63.5t70.5 -169.5q0 -109 -92 -172
q62 -26 95.5 -81t33.5 -128q0 -126 -82 -200t-221 -74zM807 805q64 0 101.5 33t37.5 90q0 60 -36.5 93.5t-102.5 33.5t-102.5 -33.5t-36.5 -93.5q0 -57 37.5 -90t101.5 -33zM807 397q78 0 125 43.5t47 112.5q0 66 -46.5 106.5t-125.5 40.5t-125.5 -40.5t-46.5 -106.5
q0 -70 46.5 -113t125.5 -43z" />
    <glyph glyph-name="uni2468" unicode="&#x2468;" horiz-adv-x="1615" 
d="M805 1458q152 0 287 -56t232.5 -153.5t154.5 -235.5t57 -296q0 -156 -57 -294t-154.5 -235.5t-232.5 -154t-287 -56.5t-286 56.5t-230.5 154t-152.5 235.5t-56 294q0 158 56 296t152.5 235.5t230.5 153.5t286 56zM805 72q177 0 319 83.5t222.5 231t80.5 330.5
q0 184 -80.5 333t-223 233.5t-318.5 84.5q-175 0 -317 -84.5t-223 -233.5t-81 -333q0 -183 81 -330.5t223 -231t317 -83.5zM805 1169q301 0 301 -419q0 -239 -79 -354t-243 -115q-105 0 -174 61.5t-84 169.5l123 20q7 -63 44.5 -98t94.5 -35q182 0 191 279q-76 -94 -199 -94
q-120 0 -195 78.5t-75 207.5q0 40 9 80t31.5 80t55 70.5t84 49.5t115.5 19zM801 700q77 0 120.5 46t43.5 128q0 83 -42.5 131t-115.5 48q-86 0 -127 -45t-41 -140q0 -168 162 -168z" />
    <glyph glyph-name="uni24EA" unicode="&#x24ea;" horiz-adv-x="1615" 
d="M805 -23q-152 0 -286 56.5t-230.5 154t-152.5 235.5t-56 294q0 158 56 296t152.5 235.5t230.5 153.5t286 56t287 -56t232.5 -153.5t154.5 -235.5t57 -296q0 -156 -57 -294t-154.5 -235.5t-232.5 -154t-287 -56.5zM805 72q177 0 319 83.5t222.5 231t80.5 330.5
q0 184 -80.5 333t-223 233.5t-318.5 84.5q-175 0 -317 -84.5t-223 -233.5t-81 -333q0 -183 81 -330.5t223 -231t317 -83.5zM805 281q-154 0 -235 113.5t-81 330.5q0 209 83.5 326.5t232.5 117.5q151 0 235 -117.5t84 -326.5q0 -211 -84 -327.5t-235 -116.5zM805 403
q90 0 133 72q43 76 43 250q0 175 -41.5 248.5t-134.5 73.5q-84 0 -125 -64q-45 -71 -45 -258q0 -177 39.5 -249.5t130.5 -72.5z" />
    <glyph glyph-name="lozenge" unicode="&#x25ca;" horiz-adv-x="1128" 
d="M668 0h-205l-402 719l400 715h205l401 -721zM567 145q55 109 113 220l184 344l-188 358q-30 57 -113 229q-7 -13 -50 -98.5t-67 -130.5l-184 -344l189 -358z" />
    <glyph glyph-name="uni25CF" unicode="&#x25cf;" horiz-adv-x="1638" 
d="M819 -25q-151 0 -288.5 58.5t-236.5 157.5t-157.5 236.5t-58.5 289.5q0 151 59 288.5t158 236.5t236.5 157.5t287.5 58.5q152 0 289.5 -58.5t236.5 -157.5t157.5 -236.5t58.5 -288.5q0 -202 -99 -372.5t-269.5 -270t-373.5 -99.5z" />
    <glyph glyph-name="uni300A" unicode="&#x300a;" horiz-adv-x="1077" 
d="M446 1516h183l-426 -912l436 -932h-182l-441 926zM1063 1516l-426 -912l436 -932h-182l-440 926l430 918h182z" />
    <glyph glyph-name="uni300B" unicode="&#x300b;" horiz-adv-x="1077" 
d="M14 1516h183l430 -918l-441 -926h-182l436 932zM449 1516h182l430 -918l-440 -926h-183l436 932z" />
    <glyph glyph-name="uni300C" unicode="&#x300c;" horiz-adv-x="686" 
d="M332 610h-178v906h522v-144h-344v-762z" />
    <glyph glyph-name="uni300D" unicode="&#x300d;" horiz-adv-x="636" 
d="M336 578h178v-906h-522v144h344v762z" />
    <glyph glyph-name="uni300E" unicode="&#x300e;" horiz-adv-x="954" 
d="M575 428h-417v1088h743v-414h-326v-674zM305 1393v-842h123v674h326v168h-449z" />
    <glyph glyph-name="uni300F" unicode="&#x300f;" horiz-adv-x="929" 
d="M377 760h418v-1088h-744v414h326v674zM647 -205v842h-123v-674h-325v-168h448z" />
    <glyph glyph-name="uni3010" unicode="&#x3010;" horiz-adv-x="669" 
d="M676 -328h-516v1844h516v-7q-190 -219 -276.5 -429t-86.5 -484t85.5 -485t277.5 -433v-6z" />
    <glyph glyph-name="uni3011" unicode="&#x3011;" horiz-adv-x="669" 
d="M510 1516v-1844h-516v6q192 221 277 432.5t85 485.5t-86 484t-276 429v7h516z" />
    <glyph glyph-name="uni3014" unicode="&#x3014;" horiz-adv-x="550" 
d="M532 1450l-243 -320v-1067l241 -319l-131 -94l-288 379v1132l292 383z" />
    <glyph glyph-name="uni3015" unicode="&#x3015;" horiz-adv-x="550" 
d="M18 1450l129 94l293 -383v-1132l-288 -379l-132 94l242 319v1067z" />
    <glyph glyph-name="uniE000" unicode="&#xe000;" horiz-adv-x="1509" 
d="M850 0h-186v641h-607v166h607v627h186v-627h602v-166h-602v-641z" />
    <glyph glyph-name="uniE001" unicode="&#xe001;" horiz-adv-x="1644" 
d="M1520 641h-1395v166h1395v-166z" />
    <glyph glyph-name="uniE002" unicode="&#xe002;" horiz-adv-x="1548" 
d="M1364 1413l121 -127l-586 -586l584 -583l-125 -123l-584 584l-584 -584l-124 123l583 583l-586 586l123 125l588 -588z" />
    <glyph glyph-name="uniF8FF" unicode="&#xf8ff;" horiz-adv-x="1380" 
d="M1268 891q28 -201 28 -238v-131q0 -53 -6 -96q-8 -53 -8 -102v-88q0 -121 -22 -211q-4 -17 -7 -25t-11 -16.5t-21 -8.5q-31 0 -76 138q-26 82 -27 84q-20 99 -33 204q-8 62 -16 62q-14 0 -14 -103q0 -90 -23 -235q-7 -43 -28 -78q-24 -41 -52 -41q-33 0 -45 72
q-6 40 -8 86q-6 120 -27 239q-14 75 -14 134q0 57 14 143q9 62 9 129q0 21 4 53q5 29 -21 39q0 -97 -20 -147q-22 -58 -62 -58q-34 4 -43 33q-10 40 -10 76q0 45 14 76q-12 -5 -22.5 -23.5t-11.5 -46.5q2 -12 2 -35q0 -49 -21 -76q-17 -28 -39 -28q-16 0 -32.5 16t-16.5 41
q-22 37 -29 53q-18 37 -18 115q0 14 -6.5 22.5t-12.5 10.5t-12 2q-10 0 -15 -10.5t-11 -42.5q-1 -9 -21 -56q-26 -53 -39 -102q-12 -46 -79 -79.5t-121 -33.5q-67 0 -129 72q-48 55 -48 135q0 40 11 72q4 12 20 45q20 40 25 55q7 21 22 21q11 0 19 -7.5t8 -15.5
q0 -12 -31 -76q-17 -33 -20 -47q-4 -16 -4 -45q0 -62 32 -102q47 -58 99 -58q34 0 85 21.5t62 56.5q15 51 43 109q16 37 19 49q3 18 6.5 30t11 27t21.5 23t34 8q33 0 56 -21.5t24 -62.5q0 -77 10 -90l11 -16q24 -39 26 -66q8 27 8 51v41q7 48 30 80.5t63 32.5q43 0 43 -37
q0 -17 -11 -39q-6 -21 -6 -51q0 -33 6 -51q5 3 13 22q14 35 14 107q4 49 27 65q12 8 26 8q27 0 49.5 -25.5t22.5 -58.5q0 -30 -6 -65q-6 -28 -10 -133q-13 -101 -13 -137q0 -40 15 -121q10 -49 15 -84.5t6 -52.5t2 -51.5t3 -59.5q3 -49 13 -94q15 23 24 69q18 85 21 219
q0 5 0.5 19.5t1 22l1.5 22.5t2.5 23.5t4.5 20.5t7.5 19t10.5 14t14.5 10t18.5 3q55 0 68 -108q16 -139 30 -197q4 -20 27 -76q22 -54 25 -67q16 101 16 172q0 46 -2 75q0 15 10 117q6 55 6 180v43q-3 72 -30 232q-14 100 -46 202q-22 71 -38 103.5t-50 69.5
q-95 103 -194 126q-94 23 -164 23q-20 0 -51 -4q-37 -5 -59 -15.5t-52 -43.5q-72 -80 -96 -154q-1 -4 -7 -24t-9 -29t-11 -26.5t-16.5 -28.5t-22 -23t-30.5 -19l-41 -18q-121 -52 -125 -53q-5 -2 -13.5 5t-9.5 15q-2 4 -2 10q0 12 17 19q36 12 110 49q54 27 74.5 50t38.5 83
l6 21q9 31 42 80.5t71 87.5q35 35 79 51t119 16t156 -24q117 -17 225 -138q39 -42 62.5 -92.5t50.5 -146.5q29 -110 37 -166zM313 899q0 -7 -4.5 -13.5t-11.5 -6.5q-9 0 -15 12.5t1 21.5q5 5 10 5q6 0 13 -5t7 -14zM240 881q8 -5 8 -15q0 -9 -15 -12h-6q-11 0 -18 10.5
t-2 16.5q10 10 16 10q7 0 17 -10zM250 782q12 -6 24 6q17 17 25 48q5 22 20 22q21 0 21 -20q-12 -57 -49 -82q-19 -13 -29 -13q-14 0 -37 13q-14 7 -14 16q0 7 4.5 13t11.5 6q5 0 23 -9z" />
    <glyph glyph-name="a.ss01" horiz-adv-x="1189" 
d="M870 874v150h185v-1024h-185v133q-113 -158 -329 -158q-208 0 -336.5 147.5t-128.5 389.5q0 247 131.5 393t339.5 146t323 -177zM782 193q95 95 95 321q0 391 -297 391q-150 0 -224 -84q-77 -89 -77 -309q0 -194 70 -291.5t235 -97.5q125 0 198 70z" />
    <glyph glyph-name="aacute.ss01" horiz-adv-x="1189" 
d="M627 1434h207l-189 -260h-151zM870 874v150h185v-1024h-185v133q-113 -158 -329 -158q-208 0 -336.5 147.5t-128.5 389.5q0 247 131.5 393t339.5 146t323 -177zM782 193q95 95 95 321q0 391 -297 391q-150 0 -224 -84q-77 -89 -77 -309q0 -194 70 -291.5t235 -97.5
q125 0 198 70z" />
    <glyph glyph-name="abreve.ss01" horiz-adv-x="1189" 
d="M584 1198q-102 0 -173 65t-75 171h127q8 -53 36.5 -78t82.5 -25q53 0 86.5 26t40.5 77h122q-5 -101 -74 -168.5t-173 -67.5zM870 874v150h185v-1024h-185v133q-113 -158 -329 -158q-208 0 -336.5 147.5t-128.5 389.5q0 247 131.5 393t339.5 146t323 -177zM782 193
q95 95 95 321q0 391 -297 391q-150 0 -224 -84q-77 -89 -77 -309q0 -194 70 -291.5t235 -97.5q125 0 198 70z" />
    <glyph glyph-name="acircumflex.ss01" horiz-adv-x="1189" 
d="M694 1198l-114 115l-119 -115h-154l191 207h170l190 -207h-164zM870 874v150h185v-1024h-185v133q-113 -158 -329 -158q-208 0 -336.5 147.5t-128.5 389.5q0 247 131.5 393t339.5 146t323 -177zM782 193q95 95 95 321q0 391 -297 391q-150 0 -224 -84q-77 -89 -77 -309
q0 -194 70 -291.5t235 -97.5q125 0 198 70z" />
    <glyph glyph-name="adieresis.ss01" horiz-adv-x="1189" 
d="M311 1397h168v-199h-168v199zM686 1397h168v-199h-168v199zM870 874v150h185v-1024h-185v133q-113 -158 -329 -158q-208 0 -336.5 147.5t-128.5 389.5q0 247 131.5 393t339.5 146t323 -177zM782 193q95 95 95 321q0 391 -297 391q-150 0 -224 -84q-77 -89 -77 -309
q0 -194 70 -291.5t235 -97.5q125 0 198 70z" />
    <glyph glyph-name="uni0227.ss01" horiz-adv-x="1189" 
d="M492 1434h184v-217h-184v217zM870 874v150h185v-1024h-185v133q-113 -158 -329 -158q-208 0 -336.5 147.5t-128.5 389.5q0 247 131.5 393t339.5 146t323 -177zM782 193q95 95 95 321q0 391 -297 391q-150 0 -224 -84q-77 -89 -77 -309q0 -194 70 -291.5t235 -97.5
q125 0 198 70z" />
    <glyph glyph-name="agrave.ss01" horiz-adv-x="1189" 
d="M549 1434l133 -260h-152l-188 260h207zM870 874v150h185v-1024h-185v133q-113 -158 -329 -158q-208 0 -336.5 147.5t-128.5 389.5q0 247 131.5 393t339.5 146t323 -177zM782 193q95 95 95 321q0 391 -297 391q-150 0 -224 -84q-77 -89 -77 -309q0 -194 70 -291.5
t235 -97.5q125 0 198 70z" />
    <glyph glyph-name="amacron.ss01" horiz-adv-x="1189" 
d="M322 1366h524v-143h-524v143zM870 874v150h185v-1024h-185v133q-113 -158 -329 -158q-208 0 -336.5 147.5t-128.5 389.5q0 247 131.5 393t339.5 146t323 -177zM782 193q95 95 95 321q0 391 -297 391q-150 0 -224 -84q-77 -89 -77 -309q0 -194 70 -291.5t235 -97.5
q125 0 198 70z" />
    <glyph glyph-name="aogonek.ss01" horiz-adv-x="1189" 
d="M1053 -221l6 -133q-57 -17 -111 -17q-87 0 -141.5 42.5t-54.5 115.5q0 71 50 125t124 88h-56v133q-113 -158 -329 -158q-208 0 -336.5 147.5t-128.5 389.5q0 247 131.5 393t339.5 146t323 -177v150h185v-1024q-144 -93 -144 -174q0 -30 20 -46t54 -16q31 0 68 15z
M782 193q95 95 95 321q0 391 -297 391q-150 0 -224 -84q-77 -89 -77 -309q0 -194 70 -291.5t235 -97.5q125 0 198 70z" />
    <glyph glyph-name="aring.ss01" horiz-adv-x="1189" 
d="M584 1133q-83 0 -140 55t-57 133t57 133t140 55t139.5 -55t56.5 -133t-56.5 -133t-139.5 -55zM584 1430q-44 0 -74.5 -32t-30.5 -77q0 -47 30.5 -79t74.5 -32q46 0 74 31.5t28 79.5q0 46 -28 77.5t-74 31.5zM870 874v150h185v-1024h-185v133q-113 -158 -329 -158
q-208 0 -336.5 147.5t-128.5 389.5q0 247 131.5 393t339.5 146t323 -177zM782 193q95 95 95 321q0 391 -297 391q-150 0 -224 -84q-77 -89 -77 -309q0 -194 70 -291.5t235 -97.5q125 0 198 70z" />
    <glyph glyph-name="aringacute.ss01" horiz-adv-x="1189" 
d="M643 1815h207l-188 -261h-152zM584 1133q-83 0 -140 55t-57 133t57 133t140 55t139.5 -55t56.5 -133t-56.5 -133t-139.5 -55zM584 1430q-44 0 -74.5 -32t-30.5 -77q0 -47 30.5 -79t74.5 -32q46 0 74 31.5t28 79.5q0 46 -28 77.5t-74 31.5zM870 874v150h185v-1024h-185
v133q-113 -158 -329 -158q-208 0 -336.5 147.5t-128.5 389.5q0 247 131.5 393t339.5 146t323 -177zM782 193q95 95 95 321q0 391 -297 391q-150 0 -224 -84q-77 -89 -77 -309q0 -194 70 -291.5t235 -97.5q125 0 198 70z" />
    <glyph glyph-name="atilde.ss01" horiz-adv-x="1189" 
d="M463 1251q-73 0 -84 -77h-113q0 33 15 74t41 69q60 63 153 63q43 0 85 -21.5t78.5 -43t63.5 -21.5q20 0 33 5t22 19t12 21.5t11 30.5h121q-14 -105 -61 -149q-57 -54 -138 -54q-50 0 -92.5 21t-78.5 42t-68 21zM870 874v150h185v-1024h-185v133q-113 -158 -329 -158
q-208 0 -336.5 147.5t-128.5 389.5q0 247 131.5 393t339.5 146t323 -177zM782 193q95 95 95 321q0 391 -297 391q-150 0 -224 -84q-77 -89 -77 -309q0 -194 70 -291.5t235 -97.5q125 0 198 70z" />
    <glyph glyph-name="i.loclTRK" horiz-adv-x="454" 
d="M319 1217h-184v217h184v-217zM319 0h-184v1024h184v-1024z" />
    <glyph glyph-name="r.ss02" horiz-adv-x="835" 
d="M702 1049q60 0 127 -23l-41 -180q-46 14 -92 14q-116 0 -202 -79t-130.5 -216.5t-44.5 -314.5v-250h-184v1024h184v-334q38 156 146 257.5t237 101.5z" />
    <glyph glyph-name="r.ss03" horiz-adv-x="897" 
d="M678 1051q110 0 211 -45l-37 -191q-79 59 -205 59q-88 0 -153.5 -40t-102.5 -111.5t-54.5 -159t-17.5 -192.5v-371h-184v1024h184v-236q42 119 137 191t222 72z" />
    <glyph glyph-name="racute.ss02" horiz-adv-x="835" 
d="M444 1434h207l-188 -260h-152zM702 1049q60 0 127 -23l-41 -180q-46 14 -92 14q-116 0 -202 -79t-130.5 -216.5t-44.5 -314.5v-250h-184v1024h184v-334q38 156 146 257.5t237 101.5z" />
    <glyph glyph-name="racute.ss03" horiz-adv-x="897" 
d="M446 1434h207l-188 -260h-152zM678 1051q110 0 211 -45l-37 -191q-79 59 -205 59q-88 0 -153.5 -40t-102.5 -111.5t-54.5 -159t-17.5 -192.5v-371h-184v1024h184v-236q42 119 137 191t222 72z" />
    <glyph glyph-name="rcaron.ss02" horiz-adv-x="835" 
d="M676 1405l-191 -207h-170l-190 207h154l118 -115l115 115h164zM702 1049q60 0 127 -23l-41 -180q-46 14 -92 14q-116 0 -202 -79t-130.5 -216.5t-44.5 -314.5v-250h-184v1024h184v-334q38 156 146 257.5t237 101.5z" />
    <glyph glyph-name="rcaron.ss03" horiz-adv-x="897" 
d="M678 1405l-191 -207h-170l-190 207h154l118 -115l115 115h164zM678 1051q110 0 211 -45l-37 -191q-79 59 -205 59q-88 0 -153.5 -40t-102.5 -111.5t-54.5 -159t-17.5 -192.5v-371h-184v1024h184v-236q42 119 137 191t222 72z" />
    <glyph glyph-name="uni0157.ss02" horiz-adv-x="835" 
d="M702 1049q60 0 127 -23l-41 -180q-46 14 -92 14q-116 0 -202 -79t-130.5 -216.5t-44.5 -314.5v-250h-184v1024h184v-334q38 156 146 257.5t237 101.5zM227 -309h-96v174h195v-162q0 -89 -52 -136t-145 -52v79q51 6 74.5 29.5t23.5 67.5z" />
    <glyph glyph-name="uni0157.ss03" horiz-adv-x="897" 
d="M678 1051q110 0 211 -45l-37 -191q-79 59 -205 59q-88 0 -153.5 -40t-102.5 -111.5t-54.5 -159t-17.5 -192.5v-371h-184v1024h184v-236q42 119 137 191t222 72zM227 -309h-96v174h195v-162q0 -89 -52 -136t-145 -52v79q51 6 74.5 29.5t23.5 67.5z" />
    <glyph glyph-name="ordfeminine.lf" horiz-adv-x="858" 
d="M774 827l4 -104q-33 -8 -82 -8q-55 0 -91.5 25.5t-43.5 72.5q-65 -111 -235 -111q-99 0 -170.5 54.5t-71.5 154.5q0 44 15 79.5t37 57t57 38.5t65 25.5t70 16.5l227 46q0 48 -4.5 71.5t-18.5 44.5q-29 45 -118 45t-128.5 -34.5t-39.5 -108.5l-137 20q3 129 90 187
q74 51 221 51q134 0 203 -59t69 -174v-345q0 -28 7.5 -40.5t31.5 -12.5q22 0 43 8zM555 991v80l-203 -47q-65 -14 -95 -36.5t-30 -76.5q0 -46 34.5 -72t88.5 -26q102 0 153.5 49t51.5 129z" />
    <glyph glyph-name="ordmasculine.lf" horiz-adv-x="860" 
d="M430 702q-165 0 -259.5 100.5t-94.5 272.5q0 165 96 270t258 105t259 -105.5t97 -269.5q0 -167 -97.5 -270t-258.5 -103zM430 815q86 0 137 45q68 62 68 215q0 129 -47.5 196.5t-157.5 67.5q-92 0 -141 -49q-64 -64 -64 -215q0 -127 47.5 -193.5t157.5 -66.5z" />
    <glyph glyph-name="zero.lf" horiz-adv-x="1222" 
d="M610 -25q-253 0 -384.5 188t-131.5 556q0 221 55.5 384.5t173 259t287.5 95.5q171 0 289.5 -95.5t174.5 -259.5t56 -384q0 -224 -56 -389t-174.5 -260t-289.5 -95zM610 131q137 0 215 88q57 69 81 192t24 308q0 117 -8.5 203.5t-30 160t-57.5 119t-92 71t-132 25.5
q-178 0 -250 -145q-65 -130 -65 -434q0 -152 14.5 -256t49.5 -181.5t96.5 -114t154.5 -36.5z" />
    <glyph glyph-name="zero.tf" 
d="M635 -25q-254 0 -386 188t-132 556q0 221 55.5 384.5t173.5 259t289 95.5q170 0 288 -95.5t174 -259.5t56 -384q0 -224 -56 -389t-174 -260t-288 -95zM635 131q138 0 213 88q57 69 80.5 191.5t23.5 308.5q0 117 -8 203.5t-29 160t-56.5 119t-91.5 71t-132 25.5
q-164 0 -238 -118q-80 -133 -80 -461q0 -152 14.5 -256.5t50 -181.5t98 -113.5t155.5 -36.5z" />
    <glyph glyph-name="zero.tosf" 
d="M635 -25q-248 0 -377 184.5t-129 542.5q0 217 54 377.5t169.5 254t282.5 93.5t283 -94t170.5 -254.5t54.5 -376.5q0 -219 -55 -380t-170.5 -254t-282.5 -93zM635 129q136 0 209 86q56 67 79 186.5t23 300.5q0 115 -8 200t-29 157t-56 117t-89 69.5t-129 24.5
q-161 0 -232 -115q-77 -125 -77 -453q0 -118 8.5 -205t29.5 -159t56 -116.5t88.5 -68.5t126.5 -24z" />
    <glyph glyph-name="one.lf" horiz-adv-x="749" 
d="M434 1434h146v-1434h-187v1102q-78 -96 -303 -96q-21 0 -57 4v159q352 0 401 265z" />
    <glyph glyph-name="one.tf" 
d="M784 1434v-1272h338v-162h-895v162h371v940q-78 -96 -303 -96q-21 0 -57 4v159q352 0 401 265h145z" />
    <glyph glyph-name="one.tosf" 
d="M768 1403v-1241h348v-162h-895v162h365v915q-76 -94 -297 -94q-24 0 -56 4v158q346 0 392 258h143z" />
    <glyph glyph-name="two.lf" horiz-adv-x="1103" 
d="M266 166h746v-166h-957q7 101 34 188.5t63.5 149.5t91.5 119.5t104.5 95t116.5 80.5q19 12 61.5 38t69.5 43.5t66 46t63.5 55t49 60.5t36.5 73.5t12 82.5q0 131 -64 201t-186 70q-71 0 -124 -23.5t-81.5 -56.5t-45 -80t-21 -82.5t-4.5 -75.5l-186 31q-1 58 11.5 115.5
t46.5 117.5t85 105.5t136 74.5t192 29q195 0 311.5 -116t116.5 -312q0 -71 -22.5 -135.5t-54 -110t-85 -93t-94 -75.5t-103.5 -67q-66 -40 -103 -63.5t-93 -65.5t-88 -76t-61 -81.5t-40 -96.5z" />
    <glyph glyph-name="two.tf" 
d="M348 166h744v-166h-955q7 101 34 188t63.5 149.5t91 119.5t104.5 94.5t117 79.5q16 11 71.5 45t82.5 52t72.5 56t69 70.5t42 79.5t18.5 98q0 130 -63 199t-185 69q-71 0 -124 -23t-81.5 -55.5t-45 -79t-21 -82t-4.5 -75.5l-186 31q-1 58 11.5 115.5t46.5 117.5t85 105.5
t136 74.5t192 29q195 0 310.5 -116.5t115.5 -311.5q0 -71 -22.5 -135.5t-53.5 -110t-85 -93.5t-93.5 -75.5t-102.5 -66.5q-52 -32 -73.5 -46t-68.5 -45t-70 -50.5t-57.5 -51.5t-53.5 -58.5t-36.5 -61.5t-25.5 -70z" />
    <glyph glyph-name="two.tosf" 
d="M354 162h729v-162h-936q7 99 33.5 184t62.5 146t89.5 117t102 93t114.5 78q17 11 60 37t68.5 43t64 45t62.5 54.5t48 59.5t35.5 72t11.5 81q0 128 -62.5 196t-181.5 68q-70 0 -121.5 -22.5t-79 -55t-44 -78t-21 -80t-4.5 -73.5l-182 28q-1 57 11.5 113t45.5 115.5t83 104
t133 73t188 28.5q191 0 304 -113.5t113 -305.5q0 -70 -22 -133t-52.5 -107.5t-82.5 -91t-92 -74t-101 -65.5q-66 -40 -101 -62.5t-90.5 -64t-86.5 -74.5t-60 -79.5t-39 -94.5z" />
    <glyph glyph-name="three.lf" horiz-adv-x="1128" 
d="M809 772q78 -22 132.5 -80t77.5 -128t23 -150q0 -142 -67 -243t-175.5 -148.5t-244.5 -47.5q-225 0 -351.5 129.5t-123.5 335.5l182 27q-2 -147 73 -241.5t220 -94.5t223 73t78 208q0 132 -79 193t-210 61h-116v168h92q108 0 182 60t74 165q0 115 -64.5 180.5
t-181.5 65.5q-68 0 -119.5 -25t-79 -60.5t-44 -81t-20.5 -80.5t-3 -65l-189 31q3 191 130 312.5t325 121.5q88 0 164 -24t136.5 -71.5t95 -126t34.5 -179.5q0 -87 -46.5 -165t-127.5 -120z" />
    <glyph glyph-name="three.tf" 
d="M879 772q78 -22 132.5 -80t77.5 -128t23 -150q0 -141 -67.5 -242.5t-176 -149t-243.5 -47.5q-226 0 -352 129t-123 336l182 27q-2 -147 72.5 -241.5t220.5 -94.5q145 0 223 73t78 208q0 132 -79.5 193t-209.5 61h-119v168h92q110 0 184 59.5t74 165.5q0 113 -64.5 178.5
t-180.5 65.5q-57 0 -103 -17t-74 -45t-47.5 -61t-28.5 -69.5t-12 -65t-2 -52.5l-188 31q3 191 130 312.5t325 121.5q88 0 164 -24t136.5 -71.5t95 -126t34.5 -179.5q0 -89 -46.5 -166t-127.5 -119z" />
    <glyph glyph-name="three.tosf" 
d="M874 756q76 -22 129 -78.5t76 -125.5t23 -146q0 -105 -37.5 -188t-103.5 -135.5t-151.5 -80t-184.5 -27.5q-221 0 -344.5 126.5t-120.5 328.5l178 27q-2 -143 71.5 -235.5t215.5 -92.5q141 0 218 71t77 203q0 129 -77.5 188.5t-205.5 59.5h-115v164h90q106 0 179 59
t73 162q0 111 -63.5 175.5t-177.5 64.5q-66 0 -116.5 -24t-77.5 -58.5t-43.5 -78.5t-20.5 -78.5t-3 -63.5l-184 28q3 188 127.5 307t317.5 119q86 0 161 -23.5t133.5 -70.5t92.5 -123.5t34 -175.5q0 -85 -45.5 -160.5t-124.5 -117.5z" />
    <glyph glyph-name="four.lf" horiz-adv-x="1091" 
d="M844 487h184v-161h-184v-326h-187v326h-618v184l649 924h156v-947zM414 487h243v369q0 165 5 295q-71 -131 -166 -258l-129 -188l-158 -222q148 4 205 4z" />
    <glyph glyph-name="four.tf" 
d="M928 487h184v-161h-184v-326h-187v326h-618v184l649 924h156v-947zM498 487h243v369q0 191 4 295q-74 -136 -165 -258l-129 -188l-158 -222q148 4 205 4z" />
    <glyph glyph-name="four.tosf" 
d="M924 477h180v-158h-180v-319h-183v319h-604v181l635 903h152v-926zM504 477h237v361q0 184 4 286q-79 -138 -161 -250l-127 -184q-48 -71 -152 -217q140 4 199 4z" />
    <glyph glyph-name="five.lf" horiz-adv-x="1110" 
d="M567 944q97 0 180 -28.5t148.5 -85t103 -150.5t37.5 -217q0 -102 -32.5 -189.5t-94.5 -154.5t-159.5 -105.5t-219.5 -38.5q-205 0 -329.5 127.5t-124.5 333.5l182 27q0 -158 80 -245t201 -87q157 0 238 87.5t81 258.5q0 146 -82 223.5t-235 77.5q-178 0 -277 -131
l-160 12l111 775h746v-166h-592l-64 -424q93 100 262 100z" />
    <glyph glyph-name="five.tf" 
d="M647 944q97 0 180 -28.5t148.5 -85t103 -150.5t37.5 -217q0 -102 -32.5 -189.5t-94.5 -154.5t-159.5 -105.5t-219.5 -38.5q-205 0 -329.5 127.5t-124.5 333.5l182 27q0 -158 79.5 -245t200.5 -87q157 0 238.5 87.5t81.5 258.5q0 146 -82 223.5t-235 77.5
q-178 0 -277 -131l-160 12l111 775h745v-166h-591l-64 -424q93 100 262 100z" />
    <glyph glyph-name="five.tosf" 
d="M647 924q95 0 176 -27.5t145.5 -83t101 -147.5t36.5 -213q0 -134 -54.5 -240.5t-168.5 -172t-273 -65.5q-199 0 -321.5 125t-122.5 326l178 27q0 -155 78 -239.5t196 -84.5q155 0 234.5 85t79.5 253q0 142 -81 218.5t-230 76.5q-174 0 -271 -129l-155 12l108 758h729
v-162h-579l-62 -414q90 97 256 97z" />
    <glyph glyph-name="six.lf" horiz-adv-x="1157" 
d="M631 936q202 0 321 -133t119 -340q0 -68 -15 -133.5t-51 -131t-89.5 -114t-137.5 -79t-188 -30.5q-88 0 -160 23t-122.5 62t-89 95t-61 116t-37 132.5t-19.5 136t-5 134.5q0 145 15.5 260.5t53.5 215.5t97.5 166.5t151 104t211.5 37.5q96 0 171.5 -29.5t123.5 -82.5
t76.5 -118t39.5 -143l-174 -28q-10 112 -68.5 179t-175.5 67q-84 0 -147.5 -33.5t-101 -86.5t-60.5 -130t-31 -152.5t-8 -165.5q56 100 152 150.5t209 50.5zM588 131q155 0 230 81t75 253q0 309 -295 309q-141 0 -222 -85.5t-81 -233.5q0 -142 74 -233t219 -91z" />
    <glyph glyph-name="six.tf" 
d="M684 936q202 0 322 -133t120 -340q0 -68 -15 -133.5t-51.5 -130.5t-90 -114t-137.5 -79.5t-187 -30.5q-493 0 -493 699q0 145 15.5 260.5t53 215.5t97 166.5t150.5 104t210 37.5q96 0 172 -30t124.5 -83t77.5 -118t40 -142l-177 -28q-10 111 -68 177t-175 66
q-84 0 -147.5 -33.5t-101 -86t-60.5 -129.5t-31 -152.5t-8 -165.5q58 102 153.5 152.5t206.5 50.5zM643 131q155 0 230 81t75 253q0 309 -295 309q-141 0 -222 -85.5t-81 -233.5q0 -142 74 -233t219 -91z" />
    <glyph glyph-name="six.tosf" 
d="M684 915q197 0 314.5 -130t117.5 -332q0 -67 -14.5 -131t-50 -128t-88 -112t-134.5 -77.5t-184 -29.5q-86 0 -157 22.5t-120 60.5t-86.5 93t-60 113.5t-36 129.5t-18.5 133.5t-5 131.5q0 142 15.5 255.5t52 211t95 162.5t147.5 102t206 37q94 0 168 -29t121.5 -81
t75 -115t38.5 -139l-170 -29q-22 240 -239 240q-340 0 -340 -555q56 99 149 147.5t203 48.5zM643 129q152 0 225.5 79t73.5 247q0 303 -289 303q-138 0 -217.5 -84.5t-79.5 -229.5q0 -139 72.5 -227t214.5 -88z" />
    <glyph glyph-name="seven.lf" horiz-adv-x="962" 
d="M35 1268v166h899v-174q-229 -220 -379.5 -563.5t-167.5 -696.5h-194q22 347 164 679t380 589h-702z" />
    <glyph glyph-name="seven.tf" 
d="M199 1268v166h899v-174q-229 -220 -379.5 -563.5t-167.5 -696.5h-195q22 347 164 679t381 589h-702z" />
    <glyph glyph-name="seven.tosf" 
d="M201 1241v162h878v-170q-224 -215 -370.5 -550.5t-163.5 -682.5h-191q22 340 161.5 665t373.5 576h-688z" />
    <glyph glyph-name="eight.lf" horiz-adv-x="1161" 
d="M834 780q121 -39 180 -125t59 -229q0 -215 -135.5 -333t-355.5 -118q-228 0 -361 122t-133 329q0 281 238 354q-81 41 -128.5 117.5t-47.5 181.5q0 77 24.5 143.5t74.5 120t136 84.5t199 31q112 0 197 -31t134.5 -84.5t74 -120t24.5 -143.5q0 -106 -47.5 -182
t-132.5 -117zM582 1303q-123 0 -188.5 -61.5t-65.5 -174.5q0 -107 67 -168t187 -61q118 0 185 61t67 168q0 114 -66 175t-186 61zM582 131q139 0 223 79.5t84 209.5q0 124 -83.5 196t-223.5 72q-138 0 -224 -71t-86 -197q0 -129 85.5 -209t224.5 -80z" />
    <glyph glyph-name="eight.tf" 
d="M887 780q121 -39 180 -125t59 -229q0 -215 -135.5 -333t-355.5 -118q-228 0 -361 122t-133 329q0 145 59.5 231t178.5 123q-83 42 -130.5 117.5t-47.5 181.5q0 77 24.5 143.5t74.5 120t136.5 84.5t200.5 31q112 0 196.5 -31t134 -84.5t73.5 -120t24 -143.5
q0 -212 -178 -299zM635 1300q-122 0 -188 -61t-66 -172q0 -109 67 -169t187 -60q117 0 183.5 60.5t66.5 168.5q0 113 -65.5 173t-184.5 60zM635 131q139 0 223 79.5t84 209.5q0 124 -83.5 196t-223.5 72q-139 0 -225 -71t-86 -197q0 -129 86 -209t225 -80z" />
    <glyph glyph-name="eight.tosf" 
d="M883 764q233 -73 233 -346q0 -211 -132.5 -327t-348.5 -116q-224 0 -353.5 119.5t-129.5 323.5q0 274 231 346q-80 42 -126 116t-46 177q0 76 24 140.5t73 117t133.5 82.5t195.5 30q110 0 193 -30t131.5 -82.5t72 -117t23.5 -140.5q0 -206 -174 -293zM635 1274
q-119 0 -183.5 -60.5t-64.5 -169.5q0 -106 65.5 -165.5t182.5 -59.5q116 0 181 59.5t65 165.5q0 110 -64.5 170t-181.5 60zM635 129q136 0 218.5 77.5t82.5 205.5q0 121 -82 191.5t-219 70.5q-135 0 -219 -69.5t-84 -192.5q0 -127 83 -205t220 -78z" />
    <glyph glyph-name="nine.lf" horiz-adv-x="1159" 
d="M569 1458q88 0 160 -23.5t122.5 -62t89 -95t61 -116.5t37 -132.5t19.5 -137t5 -135.5q0 -143 -15.5 -258t-53 -214.5t-97 -166t-150.5 -104.5t-210 -38q-97 0 -173 31.5t-124.5 87t-76 124.5t-36.5 151l170 28q4 -73 29 -130.5t81 -96.5t136 -39q332 0 344 553
q-136 -199 -357 -199q-203 0 -322.5 136t-119.5 346q0 68 15 134.5t51 132t89.5 114.5t137.5 79.5t188 30.5zM561 649q141 0 222 88.5t81 239.5q0 143 -74 234.5t-219 91.5q-154 0 -229.5 -83.5t-75.5 -256.5q0 -314 295 -314z" />
    <glyph glyph-name="nine.tf" 
d="M625 1458q88 0 160 -23.5t122.5 -62t88.5 -95t61 -116.5t37 -132.5t19 -137t5 -135.5q0 -143 -15.5 -258t-53.5 -214.5t-97.5 -166.5t-151 -104.5t-210.5 -37.5q-97 0 -173 31t-124 86.5t-75.5 124.5t-35.5 152l170 28q4 -73 28.5 -130.5t80 -96.5t135.5 -39
q168 0 254 137.5t92 419.5q-136 -203 -358 -203q-135 0 -236 63.5t-153 172t-52 246.5q0 68 15 134.5t51.5 132t90 114.5t137.5 79.5t188 30.5zM614 649q141 0 223.5 88.5t82.5 239.5q0 142 -74 232.5t-219 90.5q-156 0 -232 -83t-76 -254q0 -314 295 -314z" />
    <glyph glyph-name="nine.tosf" 
d="M625 1427q86 0 157 -23t120 -61t86.5 -93t60 -114t36 -130t18.5 -134t5 -133q0 -140 -15.5 -252.5t-52 -210t-95 -162.5t-147.5 -102t-206 -37q-95 0 -169.5 30.5t-121.5 85t-73.5 122t-34.5 147.5l165 29q7 -112 66 -186t174 -74q164 0 248 134t90 409
q-133 -197 -350 -197q-198 0 -315 132.5t-117 338.5q0 67 14.5 132t50 129t88 112t134.5 78t184 30zM616 635q138 0 217.5 86.5t79.5 234.5q0 140 -72 229t-214 89q-151 0 -225 -82t-74 -250q0 -307 288 -307z" />
    <glyph glyph-name="zero.dnom" horiz-adv-x="782" 
d="M389 -10q-154 0 -234.5 113.5t-80.5 330.5q0 210 83 327.5t232 117.5q151 0 235.5 -118t84.5 -327q0 -210 -84.5 -327t-235.5 -117zM389 113q91 0 133 71q43 76 43 250q0 175 -41.5 248.5t-134.5 73.5q-84 0 -125 -64q-45 -71 -45 -258q0 -177 39.5 -249t130.5 -72z" />
    <glyph glyph-name="one.dnom" horiz-adv-x="503" 
d="M389 0h-137v649q-31 -27 -92 -43.5t-121 -13.5v125q101 0 163.5 41t71.5 112h115v-870z" />
    <glyph glyph-name="two.dnom" horiz-adv-x="735" 
d="M217 125h438v-125h-596q4 80 25.5 143.5t60.5 111t75.5 77.5t90.5 65q11 7 41.5 26t48 30t43.5 32t40 39.5t25 44t11 52.5q0 71 -36 108t-103 37q-79 0 -115.5 -46.5t-36.5 -141.5l-137 22q0 37 7.5 73t27.5 75.5t52 69t85.5 48.5t122.5 19q121 0 193.5 -72.5
t72.5 -194.5q0 -43 -14 -82.5t-33.5 -67.5t-52.5 -57t-57 -46t-62 -41q-42 -26 -57 -35.5t-49.5 -34t-50.5 -40.5t-34 -40.5t-26 -48.5z" />
    <glyph glyph-name="three.dnom" horiz-adv-x="733" 
d="M543 473q55 -25 88 -82t33 -129q0 -124 -83 -198t-219 -74q-137 0 -215.5 79t-78.5 212l133 18q0 -90 42 -140t119 -50q79 0 122.5 39.5t43.5 111.5q0 133 -157 133h-78v125h61q64 0 102 32t38 85q0 63 -35.5 98t-98.5 35q-143 0 -143 -174l-139 20q0 114 79.5 192.5
t202.5 78.5t196 -67.5t73 -182.5q0 -47 -23 -90.5t-63 -71.5z" />
    <glyph glyph-name="four.dnom" horiz-adv-x="698" 
d="M539 0h-131v197h-365v122l387 551h109v-555h110v-118h-110v-197zM182 313q33 2 103 2h125v207q0 55 4 129q-43 -77 -84 -133l-70 -98q-57 -80 -78 -107z" />
    <glyph glyph-name="five.dnom" horiz-adv-x="718" 
d="M369 584q130 0 209 -79.5t79 -213.5q0 -138 -83.5 -219.5t-223.5 -81.5q-120 0 -202 77.5t-82 194.5l131 19q0 -78 44.5 -125t110.5 -47q82 0 129 46.5t47 135.5q0 79 -47.5 126.5t-128.5 47.5q-103 0 -159 -80l-117 8l69 477h459v-122h-356l-29 -203q53 39 150 39z" />
    <glyph glyph-name="six.dnom" horiz-adv-x="743" 
d="M403 578q121 0 196 -79.5t75 -209.5q0 -40 -9 -80t-31.5 -80t-55 -70.5t-84 -49.5t-115.5 -19q-303 0 -303 422q0 238 79.5 352.5t243.5 114.5q104 0 169.5 -59.5t80.5 -168.5l-123 -20q-6 63 -40.5 97t-90.5 34q-93 0 -139 -70t-51 -211q78 97 198 97zM377 109
q86 0 127 44t41 138q0 83 -41.5 126.5t-120.5 43.5q-76 0 -120 -47t-44 -129q0 -83 42 -129.5t116 -46.5z" />
    <glyph glyph-name="seven.dnom" horiz-adv-x="626" 
d="M45 745v125h553v-120q-138 -131 -225.5 -336t-93.5 -414h-144q11 202 91 397t216 348h-397z" />
    <glyph glyph-name="eight.dnom" horiz-adv-x="745" 
d="M373 -10q-141 0 -222 74t-81 202q0 72 34.5 127t94.5 82q-93 60 -93 170q0 109 71.5 171.5t197.5 62.5q123 -2 193.5 -64t70.5 -170q0 -109 -92 -172q62 -26 95.5 -81t33.5 -128q0 -126 -82 -200t-221 -74zM373 514q64 0 101.5 33t37.5 90q0 60 -36.5 93.5t-102.5 33.5
t-103 -33.5t-37 -93.5q0 -57 37.5 -90t102.5 -33zM373 106q78 0 125 43.5t47 112.5q0 67 -46.5 107.5t-125.5 40.5t-125.5 -40.5t-46.5 -107.5q0 -70 46.5 -113t125.5 -43z" />
    <glyph glyph-name="nine.dnom" horiz-adv-x="743" 
d="M367 879q301 0 301 -420q0 -239 -79 -354t-243 -115q-105 0 -174 61.5t-84 169.5l123 21q7 -63 44.5 -98t94.5 -35q182 0 191 278q-76 -94 -199 -94q-120 0 -195 79t-75 208q0 40 9 80t31.5 80t55 70.5t84 49.5t115.5 19zM362 410q77 0 120.5 46t43.5 128q0 83 -42 130.5
t-115 47.5q-86 0 -127 -44.5t-41 -139.5q0 -168 161 -168z" />
    <glyph glyph-name="zero.numr" horiz-adv-x="782" 
d="M389 553q-154 0 -234.5 113.5t-80.5 330.5q0 210 83 327.5t232 117.5q151 0 235.5 -118t84.5 -327q0 -210 -84.5 -327t-235.5 -117zM389 676q90 0 133 72q43 76 43 249q0 175 -41.5 248.5t-134.5 73.5q-84 0 -125 -64q-45 -71 -45 -258q0 -177 39.5 -249t130.5 -72z" />
    <glyph glyph-name="one.numr" horiz-adv-x="503" 
d="M389 563h-137v649q-31 -27 -92 -43.5t-121 -13.5v125q101 0 163.5 41.5t71.5 112.5h115v-871z" />
    <glyph glyph-name="two.numr" horiz-adv-x="735" 
d="M217 688h438v-125h-596q4 80 25.5 144t60.5 111t75.5 77.5t90.5 65.5q9 6 50 30.5t59.5 38.5t46.5 40t40.5 54t12.5 60q0 71 -36 108t-103 37q-79 0 -115.5 -46.5t-36.5 -141.5l-137 22q0 37 7.5 73t27.5 75.5t52 69t85.5 48.5t122.5 19q121 0 193.5 -72t72.5 -194
q0 -53 -18.5 -99t-55 -83t-67.5 -60t-78 -53q-42 -26 -57 -35.5t-49.5 -34t-50.5 -40.5t-34 -40.5t-26 -48.5z" />
    <glyph glyph-name="three.numr" horiz-adv-x="733" 
d="M543 1036q55 -25 88 -82t33 -129q0 -124 -83 -198t-219 -74q-137 0 -215.5 79t-78.5 212l133 18q0 -90 42 -140t119 -50q79 0 122.5 39.5t43.5 111.5q0 133 -157 133h-78v125h61q64 0 102 32t38 85q0 63 -35.5 98t-98.5 35q-143 0 -143 -174l-139 21q0 114 79.5 192
t202.5 78t196 -67.5t73 -182.5q0 -47 -23 -90.5t-63 -71.5z" />
    <glyph glyph-name="four.numr" horiz-adv-x="698" 
d="M539 563h-131v197h-365v123l387 551h109v-555h110v-119h-110v-197zM182 877q33 2 103 2h125v206q0 55 4 129q-43 -77 -84 -133l-70 -98q-47 -66 -78 -106z" />
    <glyph glyph-name="five.numr" horiz-adv-x="718" 
d="M369 1147q130 0 209 -79.5t79 -213.5q0 -138 -83.5 -219.5t-223.5 -81.5q-120 0 -202 77.5t-82 194.5l131 19q0 -78 44.5 -125t110.5 -47q82 0 129 46.5t47 135.5q0 79 -47.5 126.5t-128.5 47.5q-103 0 -159 -80l-117 8l69 478h459v-123h-356l-29 -203q53 39 150 39z" />
    <glyph glyph-name="six.numr" horiz-adv-x="743" 
d="M403 1141q121 0 196 -79.5t75 -209.5q0 -40 -9 -80t-31.5 -80t-55 -70.5t-84 -49.5t-115.5 -19q-303 0 -303 422q0 238 79.5 352.5t243.5 114.5q104 0 169.5 -59.5t80.5 -168.5l-123 -20q-6 63 -40.5 97t-90.5 34q-93 0 -139 -70t-51 -211q78 97 198 97zM377 672
q86 0 127 44t41 138q0 83 -41.5 126.5t-120.5 43.5q-76 0 -120 -47t-44 -129q0 -83 42 -129.5t116 -46.5z" />
    <glyph glyph-name="seven.numr" horiz-adv-x="626" 
d="M45 1309v125h553v-121q-138 -131 -225.5 -336t-93.5 -414h-144q11 202 91 397.5t216 348.5h-397z" />
    <glyph glyph-name="eight.numr" horiz-adv-x="745" 
d="M373 553q-141 0 -222 74t-81 202q0 72 34.5 127t94.5 82q-93 60 -93 170q0 109 71.5 171.5t197.5 62.5q123 -2 193.5 -64t70.5 -170q0 -109 -92 -172q62 -26 95.5 -81t33.5 -128q0 -126 -82 -200t-221 -74zM373 1077q64 0 101.5 33t37.5 90q0 60 -36.5 93.5t-102.5 33.5
t-103 -33.5t-37 -93.5q0 -57 37.5 -90t102.5 -33zM373 670q78 0 125 43t47 112q0 67 -46.5 107.5t-125.5 40.5t-125.5 -40.5t-46.5 -107.5q0 -70 46.5 -112.5t125.5 -42.5z" />
    <glyph glyph-name="nine.numr" horiz-adv-x="743" 
d="M367 1442q301 0 301 -420q0 -239 -79 -354t-243 -115q-105 0 -174 61.5t-84 169.5l123 21q7 -63 44.5 -98t94.5 -35q182 0 191 278q-76 -94 -199 -94q-120 0 -195 79t-75 208q0 40 9 80t31.5 80t55 70.5t84 49.5t115.5 19zM362 973q77 0 120.5 46t43.5 128
q0 83 -42 130.5t-115 47.5q-86 0 -127 -44.5t-41 -139.5q0 -168 161 -168z" />
    <glyph glyph-name="period.tf" 
d="M760 0h-248v260h248v-260z" />
    <glyph glyph-name="comma.tf" 
d="M514 -322v123q111 36 113 199h-115v266h248v-270q0 -131 -64 -213.5t-182 -104.5z" />
    <glyph glyph-name="colon.tf" 
d="M760 692h-248v260h248v-260zM760 0h-248v260h248v-260z" />
    <glyph glyph-name="semicolon.tf" 
d="M760 692h-248v260h248v-260zM514 -322v123q111 36 113 199h-115v266h248v-270q0 -131 -64 -213.5t-182 -104.5z" />
    <glyph glyph-name="exclamdown.case" horiz-adv-x="514" 
d="M152 1434h206v-217h-206v217zM190 1092h134l24 -588v-504h-182v504z" />
    <glyph glyph-name="questiondown.case" horiz-adv-x="1015" 
d="M399 1434h207v-217h-207v217zM420 1092h174v-119q0 -91 -39.5 -165t-136.5 -165q-80 -73 -106 -109q-50 -69 -50 -149q0 -256 244 -256q272 0 272 303l183 -31q0 -56 -12.5 -111t-46 -113t-83.5 -102t-133 -72t-188 -28q-190 0 -304 112t-114 300q0 61 12 109.5t40 89.5
t54 69.5t72 69.5q42 38 62.5 59t48 58.5t39.5 80t12 95.5v74z" />
    <glyph glyph-name="periodcentered.tf" 
d="M758 535h-248v260h248v-260z" />
    <glyph glyph-name="bullet.case" horiz-adv-x="714" 
d="M358 477q-95 0 -154 60.5t-59 154.5q0 93 59 152t154 59q92 0 151.5 -59.5t59.5 -151.5q0 -94 -59.5 -154.5t-151.5 -60.5z" />
    <glyph glyph-name="asterisk.tf" 
d="M920 1262l34 -111l-225 -70l145 -207l-94 -65l-145 217l-146 -215l-94 66l144 204l-224 70l35 111l228 -80v252h112v-252z" />
    <glyph glyph-name="numbersign.lf" horiz-adv-x="1206" 
d="M1145 1040l-21 -153h-188l-45 -307h188l-20 -154h-191l-63 -426h-164l61 426h-276l-64 -426h-165l61 426h-195l21 154h197l45 307h-199l25 153h196l58 394h165l-57 -394h279l57 394h166l-58 -394h187zM489 887l-45 -307h279l45 307h-279z" />
    <glyph glyph-name="numbersign.tf" 
d="M1182 1040l-21 -153h-188l-45 -307h188l-20 -154h-191l-63 -426h-164l61 426h-276l-64 -426h-166l62 426h-195l21 154h196l45 307h-198l24 153h197l57 394h166l-57 -394h278l58 394h166l-58 -394h187zM526 887l-45 -307h279l45 307h-279z" />
    <glyph glyph-name="parenleft.case" horiz-adv-x="561" 
d="M520 -205h-147q-144 240 -218.5 464t-74.5 470q0 238 77 477.5t216 435.5h149l2 -6q-131 -221 -190.5 -443t-59.5 -464q0 -255 60.5 -481t187.5 -447z" />
    <glyph glyph-name="parenright.case" horiz-adv-x="561" 
d="M188 -205h-147l-2 6q127 221 187.5 447t60.5 481q0 242 -59.5 464t-190.5 443l2 6h149q139 -196 216 -435.5t77 -477.5q0 -246 -74.5 -470t-218.5 -464z" />
    <glyph glyph-name="braceleft.case" horiz-adv-x="657" 
d="M614 -205h-57q-173 0 -257.5 77.5t-84.5 262.5v365q0 74 -38.5 110t-127.5 39v150q89 4 127.5 39.5t38.5 107.5v359q0 187 83.5 260t258.5 73h57v-153h-55q-89 0 -126.5 -41t-37.5 -148v-368q0 -167 -131 -205q69 -22 99 -68.5t30 -134.5v-377q0 -112 38 -153t128 -41h55
v-154z" />
    <glyph glyph-name="braceright.case" horiz-adv-x="657" 
d="M100 -205h-57v154h55q90 0 128 41t38 153v377q0 88 30 134.5t99 68.5q-131 38 -131 205v368q0 107 -37.5 148t-126.5 41h-55v153h57q175 0 258.5 -73t83.5 -260v-359q0 -72 38.5 -107.5t127.5 -39.5v-150q-89 -3 -127.5 -39t-38.5 -110v-365q0 -185 -84.5 -262.5
t-257.5 -77.5z" />
    <glyph glyph-name="bracketleft.case" horiz-adv-x="630" 
d="M596 -205h-436v1843h436v-143h-258v-1556h258v-144z" />
    <glyph glyph-name="bracketright.case" horiz-adv-x="630" 
d="M471 1638v-1843h-436v144h258v1556h-258v143h436z" />
    <glyph glyph-name="angleleft.case" horiz-adv-x="671" 
d="M653 1638l-426 -911l437 -932h-187l-440 926l430 917h186z" />
    <glyph glyph-name="angleright.case" horiz-adv-x="671" 
d="M18 1638h187l430 -917l-440 -926h-187l436 932z" />
    <glyph glyph-name="uni3010.case" horiz-adv-x="669" 
d="M676 -205h-516v1843h516v-6q-190 -219 -276.5 -429t-86.5 -484t85.5 -485t277.5 -433v-6z" />
    <glyph glyph-name="uni3011.case" horiz-adv-x="669" 
d="M510 1638v-1843h-516v6q192 221 277 432.5t85 485.5t-86 484t-276 429v6h516z" />
    <glyph glyph-name="uni300C.case" horiz-adv-x="667" 
d="M311 733h-178v905h522v-143h-344v-762z" />
    <glyph glyph-name="uni300D.case" horiz-adv-x="671" 
d="M358 700h179v-905h-523v144h344v761z" />
    <glyph glyph-name="uni300A.case" horiz-adv-x="1101" 
d="M467 1638h182l-426 -911l436 -932h-182l-440 926zM1083 1638l-426 -911l437 -932h-183l-440 926l430 917h182z" />
    <glyph glyph-name="uni300B.case" horiz-adv-x="1101" 
d="M18 1638h183l430 -917l-441 -926h-182l436 932zM453 1638h182l430 -917l-440 -926h-183l437 932z" />
    <glyph glyph-name="uni3014.case" horiz-adv-x="550" 
d="M532 1573l-243 -320v-1067l241 -319l-131 -94l-288 379v1132l292 383z" />
    <glyph glyph-name="uni3015.case" horiz-adv-x="550" 
d="M18 1573l129 94l293 -383v-1132l-288 -379l-132 94l242 319v1067z" />
    <glyph glyph-name="uni300E.case" horiz-adv-x="937" 
d="M555 551h-418v1087h744v-413h-326v-674zM285 1516v-842h123v674h325v168h-448z" />
    <glyph glyph-name="uni300F.case" horiz-adv-x="954" 
d="M381 883h418v-1088h-744v414h326v674zM651 -82v842h-123v-674h-325v-168h448z" />
    <glyph glyph-name="hyphen.case" horiz-adv-x="811" 
d="M692 625h-573v163h573v-163z" />
    <glyph glyph-name="hyphen.case.tf" 
d="M942 625h-614v163h614v-163z" />
    <glyph glyph-name="hyphen.tf" 
d="M942 498h-614v164h614v-164z" />
    <glyph glyph-name="uni00AD.case" horiz-adv-x="811" 
d="M692 625h-573v163h573v-163z" />
    <glyph glyph-name="endash.case" horiz-adv-x="1222" 
d="M1104 625h-985v163h985v-163z" />
    <glyph glyph-name="endash.case.tf" 
d="M1139 625h-1008v163h1008v-163z" />
    <glyph glyph-name="endash.tf" 
d="M1139 498h-1008v164h1008v-164z" />
    <glyph glyph-name="emdash.case" horiz-adv-x="1748" 
d="M1630 625h-1511v163h1511v-163z" />
    <glyph glyph-name="guillemotleft.case" horiz-adv-x="915" 
d="M414 346l-316 250v180l316 252v-192l-187 -148l187 -147v-195zM463 776l315 252v-192l-186 -148l186 -147v-195l-315 250v180z" />
    <glyph glyph-name="guillemotright.case" horiz-adv-x="915" 
d="M324 688l-187 148v192l316 -252v-180l-316 -250v195zM502 836v192l315 -252v-180l-315 -250v195l186 147z" />
    <glyph glyph-name="guilsinglleft.case" horiz-adv-x="550" 
d="M98 776l316 252v-192l-187 -148l187 -147v-195l-316 250v180z" />
    <glyph glyph-name="guilsinglright.case" horiz-adv-x="550" 
d="M137 836v192l316 -252v-180l-316 -250v195l187 147z" />
    <glyph glyph-name="space.tf" 
 />
    <glyph glyph-name="uni20BF.tf" 
d="M1206 395q0 -98 -27.5 -170t-79.5 -115t-112 -66t-139 -34v-149h-148v139h-71h-82v-139h-148v139h-243v1434h243v139h148v-139h67q57 0 86 -2v141h148v-158q67 -13 118.5 -37.5t94.5 -67t66.5 -111t23.5 -159.5q0 -102 -48 -182t-132 -125q122 -45 178.5 -125t56.5 -213z
M600 1274h-260v-463h258q38 0 59.5 0.5t58 2.5t58 6t52 12t48.5 19t39 28.5t32 40t18.5 53t7.5 67.5q0 48 -12.5 85.5t-30 62t-49.5 41.5t-59 25.5t-71.5 13t-72.5 5.5t-76 1zM340 158h289q168 0 235 17q129 32 155 149q7 32 7 71q0 38 -6 69.5t-19.5 55.5t-28 43t-38 32.5
t-43 23.5t-49.5 15.5t-50 9.5t-53.5 5t-50.5 1.5t-49 0.5h-299v-493z" />
    <glyph glyph-name="cent.tf" 
d="M950 332l174 -19q-25 -140 -131 -230.5t-262 -105.5v-170h-133v173q-204 22 -319 162t-115 370q0 220 116.5 363.5t317.5 168.5v175h133v-172q161 -17 260.5 -112t128.5 -237l-172 -32q-24 93 -73 154t-144 77v-770q89 10 141.5 59.5t77.5 145.5zM367 512q0 -83 10 -144
t35 -113t71.5 -83.5t114.5 -42.5v766q-68 -11 -114.5 -43t-71 -85t-35 -113.5t-10.5 -141.5z" />
    <glyph glyph-name="currency.tf" 
d="M989 444l127 -127l-90 -90l-121 121q-112 -88 -270 -88q-167 0 -275 84l-118 -117l-90 90l122 123q-63 108 -63 258q0 148 72 263l-121 120l90 93l119 -119q111 84 264 84q151 0 262 -84l119 119l90 -93l-121 -120q74 -113 74 -263q0 -145 -70 -254zM635 391
q256 0 256 307q0 310 -256 310t-256 -310q0 -148 60 -227.5t196 -79.5z" />
    <glyph glyph-name="dollar.tf" 
d="M1219 418q0 -92 -28.5 -165.5t-75.5 -122t-113.5 -82t-136.5 -50t-150 -21.5v-116h-154v119q-108 10 -199 44.5t-162 93.5t-111 148.5t-40 200.5l197 20q0 -148 86 -239.5t229 -112.5v514h-4q-65 16 -113 30t-107 37.5t-99.5 53t-76.5 69.5t-54.5 95t-18.5 121
q0 81 28 147.5t73.5 111.5t108 77t128 47.5t135.5 19.5v115h154v-121q415 -53 452 -451l-192 -34q-3 130 -70.5 213.5t-189.5 111.5v-477q69 -11 115 -20.5t103.5 -26t95.5 -35.5t77 -48.5t61.5 -66t37 -87.5t14.5 -113zM279 1063q0 -87 76 -138t206 -81v459
q-71 -4 -132.5 -30t-105.5 -81t-44 -129zM715 618v-483q68 5 122.5 22.5t98 48.5t67 81t23.5 116q0 32 -9.5 58.5t-23 45.5t-39 35t-47.5 26t-59 20.5t-63.5 16t-69.5 13.5z" />
    <glyph glyph-name="Euro.tf" 
d="M1014 420l182 -47q-57 -193 -175 -295.5t-314 -102.5q-96 0 -174.5 26.5t-135.5 74.5t-98.5 117.5t-66.5 152t-37 182.5h-109v121h100q-2 23 -2 70t2 72h-100v120h111q16 122 55 220t100.5 172t152 114.5t202.5 40.5q177 0 301.5 -97t169.5 -265l-181 -35
q-30 120 -99 178.5t-191 58.5q-166 0 -238 -116q-59 -97 -74 -271h424v-120h-432v-72v-70h432v-121h-424q18 -197 89.5 -295t222.5 -98q131 0 204 71.5t103 213.5z" />
    <glyph glyph-name="florin.tf" 
d="M948 1446q50 0 105 -6l-4 -160q-54 4 -74 4q-88 0 -128 -30.5t-50 -106.5l-43 -305h211v-154h-234l-117 -831q-18 -133 -82 -197q-63 -63 -206 -63q-52 0 -107 6l4 153q16 -2 45 -2q66 0 103 25.5t47 91.5l119 817h-205v154h227l47 329q19 124 78 189q80 86 264 86z" />
    <glyph glyph-name="uni20BA.tf" 
d="M999 543l183 -47q-58 -234 -241 -365t-472 -131h-164v508l-162 -90v147l162 90v162l-162 -90v147l162 91v469h184v-367l412 227v-147l-412 -227v-162l412 227v-147l-412 -228v-450q225 6 347.5 105t162.5 278z" />
    <glyph glyph-name="uni20BD.tf" 
d="M668 584h-236v-181h459v-135h-459v-268h-184v268h-162v135h162v183h-162v149h162v699h422q59 0 108 -3.5t107 -15t103 -30t89 -52t73 -78t46.5 -110t17.5 -146.5q0 -78 -18 -141t-46.5 -105.5t-73 -74t-89 -49.5t-103 -28.5t-107.5 -13.5t-109 -3zM670 1276h-238v-539
h236q43 0 73 1.5t71.5 7t70 16t59 29.5t49.5 46.5t31 68.5t12 93q0 57 -12.5 101t-30.5 73t-49.5 49t-58.5 30.5t-70 16t-70.5 6.5t-72.5 1z" />
    <glyph glyph-name="uni20B9.tf" 
d="M1135 1432v-144h-283q73 -80 90 -201h193v-143h-191q-6 -67 -27.5 -120.5t-51 -90t-73 -63t-86 -41.5t-98 -23.5t-101.5 -11t-104 -2.5l568 -588l-2 -6h-238l-547 571v174h197q41 0 71 1t69.5 6t68.5 13t60 23t52 36t37.5 52t22.5 70h-578v143h574q-8 41 -26 72.5
t-37.5 51.5t-52.5 34.5t-58 21.5t-67 10.5t-65.5 4t-68.5 0.5h-199v150h951z" />
    <glyph glyph-name="sterling.tf" 
d="M1071 248l107 -144q-144 -129 -326 -129q-62 0 -121.5 16.5t-99 37t-94 37t-107.5 16.5q-38 0 -79.5 -16t-63 -30.5t-62.5 -43.5l-110 153q122 92 169.5 165.5t47.5 168.5q0 48 -23 142h-174v147h123q-33 77 -50.5 141t-17.5 140q0 184 131.5 296.5t346.5 112.5
q209 0 335 -116t136 -326l-187 -35q-1 158 -81.5 240t-206.5 82t-199.5 -69.5t-73.5 -189.5q0 -84 62 -258l6 -18h293v-147h-252q12 -55 12 -111q0 -99 -44.5 -176.5t-133.5 -151.5q56 30 92 39.5t88 9.5q77 0 181.5 -40.5t160.5 -40.5q105 0 215 98z" />
    <glyph glyph-name="uni20A9.tf" 
d="M1229 897v-121h-131l-19 -170h150v-121h-164l-55 -485h-228l-98 805q-4 33 -14 126.5t-18 160t-15 108.5h-6q-7 -52 -20.5 -194t-20.5 -203l-101 -803h-229l-55 485h-164v121h149l-18 170h-131v121h117l-62 537h183l67 -863q9 -125 29 -352h6q1 10 43 352l108 863h209
l111 -863q10 -81 23.5 -195t19.5 -157h6q4 39 8 93t8.5 131.5t8.5 127.5l65 863h183l-62 -537h117z" />
    <glyph glyph-name="yen.tf" 
d="M985 1434h217l-409 -711h249v-131h-313v-115h311v-131h-311v-346h-186v346h-314v131h314v115h-312v131h248l-409 711h215l217 -410q87 -166 133 -264q67 142 133 266z" />
    <glyph glyph-name="plus.case" horiz-adv-x="1044" 
d="M596 258h-145v389h-388v137h388v392h145v-392h385v-137h-385v-389z" />
    <glyph glyph-name="plus.case.tf" 
d="M709 238h-146v409h-405v137h405v410h146v-410h405v-137h-405v-409z" />
    <glyph glyph-name="plus.tf" 
d="M709 178h-146v410h-405v137h405v410h146v-410h405v-137h-405v-410z" />
    <glyph glyph-name="minus.case" horiz-adv-x="1165" 
d="M1040 647h-915v137h915v-137z" />
    <glyph glyph-name="minus.case.tf" 
d="M1108 647h-946v137h946v-137z" />
    <glyph glyph-name="minus.tf" 
d="M1108 588h-946v137h946v-137z" />
    <glyph glyph-name="multiply.case" horiz-adv-x="933" 
d="M743 1090l97 -99l-275 -274l275 -277l-99 -96l-274 274l-274 -274l-99 96l277 277l-277 274l96 99l277 -277z" />
    <glyph glyph-name="multiply.case.tf" 
d="M932 1110l96 -98l-295 -295l295 -297l-98 -96l-295 294l-295 -294l-98 96l297 297l-297 295l96 98l297 -297z" />
    <glyph glyph-name="multiply.tf" 
d="M932 1051l96 -99l-295 -295l295 -297l-98 -96l-295 295l-295 -295l-98 96l297 297l-297 295l96 99l297 -297z" />
    <glyph glyph-name="divide.case" horiz-adv-x="1099" 
d="M653 971h-207v217h207v-217zM1008 647h-916v137h916v-137zM653 250h-207v217h207v-217z" />
    <glyph glyph-name="divide.case.tf" 
d="M754 981h-236v248h236v-248zM1108 647h-946v137h946v-137zM754 209h-236v248h236v-248z" />
    <glyph glyph-name="divide.tf" 
d="M754 922h-236v247h236v-247zM1108 588h-946v137h946v-137zM754 150h-236v247h236v-247z" />
    <glyph glyph-name="equal.case" horiz-adv-x="1165" 
d="M1040 815h-915v137h915v-137zM1040 487h-915v138h915v-138z" />
    <glyph glyph-name="equal.case.tf" 
d="M1108 850h-946v137h946v-137zM1108 453h-946v137h946v-137z" />
    <glyph glyph-name="equal.tf" 
d="M1108 791h-946v137h946v-137zM1108 393h-946v137h946v-137z" />
    <glyph glyph-name="notequal.case" horiz-adv-x="1165" 
d="M1040 952v-137h-362l-98 -190h460v-138h-530l-102 -200h-121l102 200h-264v138h334l96 190h-430v137h500l104 205h123l-104 -205h292z" />
    <glyph glyph-name="notequal.case.tf" 
d="M1108 987v-137h-360l-132 -260h492v-137h-561l-101 -197h-120l100 197h-264v137h332l133 260h-465v137h532l103 201h123l-103 -201h291z" />
    <glyph glyph-name="notequal.tf" 
d="M1108 928v-137h-360l-132 -261h492v-137h-561l-101 -196h-120l100 196h-264v137h332l133 261h-465v137h532l103 200h123l-103 -200h291z" />
    <glyph glyph-name="greater.case" horiz-adv-x="997" 
d="M936 637l-817 -346v162l438 178q78 32 246 86q-200 66 -248 86l-436 178v162l817 -346v-160z" />
    <glyph glyph-name="greater.case.tf" 
d="M1069 637l-817 -346v162l438 178q78 32 246 86q-200 66 -248 86l-436 178v162l817 -346v-160z" />
    <glyph glyph-name="greater.tf" 
d="M1069 526l-817 -346v162l438 178q78 32 246 86q-200 66 -248 86l-436 178v162l817 -346v-160z" />
    <glyph glyph-name="less.case" horiz-adv-x="997" 
d="M879 453v-162l-818 346v160l818 346v-162l-437 -178q-52 -22 -247 -86q163 -52 245 -86z" />
    <glyph glyph-name="less.case.tf" 
d="M1069 453v-162l-817 346v160l817 346v-162l-436 -178q-48 -20 -248 -86q168 -54 246 -86z" />
    <glyph glyph-name="less.tf" 
d="M1069 342v-162l-817 346v160l817 346v-162l-436 -178q-48 -20 -248 -86q168 -54 246 -86z" />
    <glyph glyph-name="greaterequal.case" horiz-adv-x="1075" 
d="M958 715l-817 -324v152l439 168q97 35 245 80q-190 58 -247 79l-437 168v152l817 -324v-151zM958 160h-817v137h817v-137z" />
    </font>
</defs>
</svg>
