<svg xmlns="http://www.w3.org/2000/svg" viewBox="0 0 340.84 297.75"><g id="Layer_2" data-name="Layer 2"><g id="Layer_1-2" data-name="Layer 1"><path d="M279.64,244.19H113.8C129.49,255,134.45,266.08,130,279.43a26.18,26.18,0,0,1-26.26,18.3c-11.38-.39-21.35-8.7-24.31-20.26-3.35-13.05,2.31-24.31,17.25-33.26-2-.19-3.37-.33-4.72-.43-9.75-.74-15.64-9.25-12.21-18.44a148.23,148.23,0,0,1,9-19.43,14.19,14.19,0,0,0,1.38-10.45Q74.29,120.07,58.51,44.68C57.32,39,56.18,33.35,55,27.35c-13.65,0-26.95-.09-40.26,0A13.6,13.6,0,0,1,3,21.89C-.3,17.55-1,12.74,1.47,7.8S7.75.06,13.32,0c17.5,0,35-.08,52.49,0C72,.1,76.41,3.48,78.3,9.69a87.91,87.91,0,0,1,3,13.62c.41,3,1.59,4.1,4.48,3.8a37.89,37.89,0,0,1,4,0c78.15,0,156.3.15,234.45-.17,10.53,0,16.8,6.26,16.67,16.84-.41,34.15-.14,68.31-.16,102.47,0,10.72-3.3,15.07-13.8,16.49-20.29,2.75-40.64,5-61,7.49q-31.22,3.78-62.44,7.57-39.91,4.8-79.82,9.56c-2.45.29-4.89.71-7.82,1.14.86,4.85,2.48,9.42,2.23,13.88s-2.39,8.84-3.89,13.92H120q88.73,0,177.45.1a24.78,24.78,0,0,1,11,2.42c5.07,2.63,7.21,9.32,5.78,14.76a13.78,13.78,0,0,1-12.22,10.17c-1.48.13-3,.18-6,.36,8.09,3.93,13.66,8.64,16.54,15.79a28,28,0,0,1-.11,21.89c-4.52,10.84-14.75,16.8-26.86,15.89-10.52-.79-19.92-9.11-22.81-20.17C259.34,264.71,264.66,254,279.64,244.19Z"/></g></g></svg>