<svg xmlns="http://www.w3.org/2000/svg" xmlns:xlink="http://www.w3.org/1999/xlink" width="298.475" height="85.848" viewBox="0 0 298.475 85.848"><defs><clipPath id="a"><rect width="298.475" height="85.848" fill="none"/></clipPath></defs><g clip-path="url(#a)"><path d="M36.584,131.7c-.535.864-.964,1.588-1.423,2.293-.694,1.066-1.363,2.153-2.125,3.17a17.1,17.1,0,0,1-3.639,3.615,17.493,17.493,0,0,1-3.506,2.343c-.855.35-1.659.843-2.534,1.121a15.578,15.578,0,0,1-11.184-.509,17.753,17.753,0,0,1-3.824-2.6,12.465,12.465,0,0,1-4.36-8.078,21.751,21.751,0,0,1,.043-5.146,29.392,29.392,0,0,1,1.844-7.275c.838-2.4,1.742-4.777,2.624-7.162.547-1.479,1.094-2.958,1.663-4.429.508-1.313,1.085-2.6,1.559-3.926q1.075-3,2.045-6.045,1.447-4.563,2.805-9.155c.2-.685.193-1.43.353-2.131a17.89,17.89,0,0,0,.273-6.753c-.32-2.1-2.672-4.4-5.311-3.461a8.436,8.436,0,0,0-3.8,2.716c-1.685,2.083-3.3,4.22-4.969,6.319a8.383,8.383,0,0,1-1.216,1.261,1.987,1.987,0,0,1-1,.429.772.772,0,0,1-.881-.974,4.1,4.1,0,0,1,.517-1.336,55.882,55.882,0,0,1,6.18-8.624A16.021,16.021,0,0,1,9.9,74.61c2.653-1.676,5.479-2.569,8.615-1.345A7.848,7.848,0,0,1,22.7,76.613a15.163,15.163,0,0,1,1.282,3.359,16,16,0,0,1,.2,5.632c-.086,1.13-.071,2.275-.257,3.388-.339,2.031-.688,4.071-1.225,6.056-.8,2.946-1.737,5.854-2.659,8.764-.789,2.489-1.627,4.962-2.466,7.435-.574,1.691-1.178,3.373-1.788,5.051-.517,1.421-1.116,2.815-1.584,4.251a24.428,24.428,0,0,0-1.33,6.659,9.952,9.952,0,0,0,1.289,5.353,5.426,5.426,0,0,0,3.987,2.487,15.224,15.224,0,0,0,3.481-.026,6.032,6.032,0,0,0,4.126-2.311c1.368-1.5,2.657-3.069,3.921-4.656a21.781,21.781,0,0,0,1.643-2.5c1.488-2.513,2.987-5.021,4.4-7.574.7-1.255,1.192-2.62,1.826-3.912,1.575-3.21,2.878-6.534,4.127-9.877.937-2.508,1.724-5.071,2.577-7.61.646-1.92,1.321-3.831,1.927-5.764.554-1.767,1.014-3.564,1.551-5.337a10.063,10.063,0,0,1,1.825-3.435,2.661,2.661,0,0,1,2.817-1.031,1.93,1.93,0,0,1,1.395,1.5,4.9,4.9,0,0,1-.163,2.541c-.719,2.513-1.431,5.028-2.165,7.536-1.1,3.761-2.2,7.522-3.336,11.273-.647,2.138-1.348,4.26-2.056,6.379-.577,1.727-1.185,3.444-1.81,5.154-.6,1.642-1.258,3.262-1.848,4.908a3.849,3.849,0,0,0-.109,1.191c-.007.308.051.616.065.925a25.26,25.26,0,0,0,2.1,9.1c1.167,2.647,2.62,3.679,6.335,3.418.511-.036,1.012-.2,1.524-.256a6.15,6.15,0,0,0,3.941-2.244,17.023,17.023,0,0,0,3.508-5.3c.887-2.308,1.959-4.545,2.883-6.84.846-2.1,1.713-4.208,2.366-6.374.595-1.97,1.3-3.9,1.929-5.852.669-2.089,1.1-4.254,1.669-6.375.312-1.156.714-2.288,1.054-3.438.409-1.382.76-2.783,1.2-4.156.594-1.863,1.214-3.718,1.884-5.555A37.157,37.157,0,0,1,74.5,84.261c1.094-2.127,2.083-4.349,4-5.936.476-.393.847-.92,1.344-1.278a9.235,9.235,0,0,1,9.346-1.371,8.533,8.533,0,0,1,4.1,3.64,11.393,11.393,0,0,1,1.335,7.278c-.258,2.457-.727,4.894-1.148,7.333-.2,1.182-.5,2.349-.77,3.521-.2.892-.551,1.241-1.164,1.2a1.325,1.325,0,0,1-1.214-1.416c.018-1.131.191-2.259.242-3.391.116-2.54.686-5.053.5-7.608a25.375,25.375,0,0,0-.446-3.573,3.91,3.91,0,0,0-5.589-2.478,5.579,5.579,0,0,0-2.572,2.582A86.144,86.144,0,0,0,78.27,92.846c-.834,2.364-1.468,4.8-2.189,7.2-.582,1.939-1.175,3.874-1.737,5.818-.886,3.068-1.841,6.117-2.47,9.257a24.485,24.485,0,0,1-.91,2.838c-.745,2.248-1.5,4.492-2.239,6.743a38.147,38.147,0,0,1-5.218,10.814,35.557,35.557,0,0,1-5.94,6.691,8.965,8.965,0,0,1-4.7,2.191,27.057,27.057,0,0,1-6.277.3,8.538,8.538,0,0,1-6-3.264,21.621,21.621,0,0,1-2.051-3.437,20.588,20.588,0,0,1-1.718-5.385c-.048-.253-.129-.5-.237-.906" transform="translate(0 -65.185)" fill-rule="evenodd"/><path d="M943.087,110.586a19.215,19.215,0,0,0-2.3.837,30.075,30.075,0,0,1-5.85,1.962,27.441,27.441,0,0,1-5.335,1.143,22.01,22.01,0,0,1-8.394-.514,24.767,24.767,0,0,1-2.976-1.151c-1.643-.765-2.394-2.291-3.086-3.842-.1-.219-.15-.457-.239-.68-.02-.051-.106-.076-.215-.148-.529.209-.593.78-.794,1.21-1.312,2.8-2.514,5.657-3.9,8.418a50.651,50.651,0,0,1-4.6,7.686,13.966,13.966,0,0,1-3.495,3.6,8.758,8.758,0,0,1-4.059,1.313,7.028,7.028,0,0,1-4.716-1.119,6.536,6.536,0,0,1-3.211-5.563,24.286,24.286,0,0,1,1.375-7.478,3.691,3.691,0,0,1,.383-.843A1.073,1.073,0,0,1,893,114.9a1.121,1.121,0,0,1,.66,1.358c-.145.636-.318,1.267-.519,1.888a14.391,14.391,0,0,0-.518,4.8,2.866,2.866,0,0,0,2.764,2.9,5.98,5.98,0,0,0,5.735-3.406c1.565-3.147,2.8-6.424,4.08-9.689.713-1.818,1.649-3.549,2.376-5.362,1.009-2.516,1.9-5.078,2.873-7.611.478-1.251,1.02-2.478,1.512-3.723.252-.638.439-1.3.694-1.94.524-1.305,1.09-2.594,1.61-3.9.824-2.072,1.611-4.159,2.439-6.23,1.672-4.175,3.243-8.4,5.089-12.494a25.235,25.235,0,0,1,3.692-6.654,21.035,21.035,0,0,0,1.714-2.575,9.215,9.215,0,0,1,4.392-3.447,17.689,17.689,0,0,1,10.124-.933,13.375,13.375,0,0,1,4.669,1.523,10.266,10.266,0,0,1,4.075,3.971c.4.76.892,1.473,1.265,2.244a10.925,10.925,0,0,1,1.3,5.131c-.026.891.137,1.789.1,2.679-.122,2.816-.293,5.63-.458,8.443-.1,1.785-.228,3.568-.352,5.351q-.225,3.24-.469,6.478c-.089,1.161-.2,2.321-.322,3.637a3.967,3.967,0,0,0,.611-.342c.8-.7,1.607-1.4,2.37-2.135,1.136-1.1,2.238-2.234,3.355-3.353,1.212-1.215,2.487-2.373,3.622-3.657a40.616,40.616,0,0,0,4.441-5.678c.471-.774.783-.983,1.243-.785.5.215.677.719.319,1.532a33.536,33.536,0,0,1-1.784,3.484q-1.49,2.53-3.121,4.977c-.78,1.17-1.642,2.289-2.511,3.4-1.316,1.676-2.616,3.37-4.026,4.965-1.114,1.26-2.387,2.377-3.581,3.566-.536.533-1.077,1.065-1.567,1.638a1.845,1.845,0,0,0-.434.9q-.438,3.425-.805,6.858-.425,3.945-.8,7.9c-.112,1.2-.174,2.4-.222,3.607-.072,1.8,1.229,2.93,3.192,2.732a4.081,4.081,0,0,0,1.437-.493,16.484,16.484,0,0,0,3.805-3.13c1.168-1.163,2.412-2.251,3.625-3.368a.808.808,0,0,1,1.042-.134.826.826,0,0,1,.329,1,1.3,1.3,0,0,1-.221.462c-.848,1.08-1.681,2.173-2.568,3.222-1.22,1.442-2.485,2.846-3.727,4.269a10.989,10.989,0,0,1-4.933,3.252,2.364,2.364,0,0,1-.7.148,8.31,8.31,0,0,1-6.71-2.814,4.376,4.376,0,0,1-1.1-2.837c-.02-1.888.056-3.777.112-5.665.026-.859.088-1.717.155-2.574q.172-2.209.372-4.415c.1-1.05.217-2.1.341-3.281M920.631,92.173l.217.155c.355-.262.707-.528,1.065-.787a8.534,8.534,0,0,1,2.749-1.36,22.829,22.829,0,0,1,7.368-.566,12.389,12.389,0,0,1,5.883,1.717,46.032,46.032,0,0,1,4.228,2.924,21.215,21.215,0,0,1,2.155,2.2c.249.261.488.532.889.973a15.047,15.047,0,0,0,.358-1.588c.188-1.808.352-3.618.507-5.429.108-1.266.219-2.532.272-3.8.119-2.851.276-5.7.278-8.556a46.963,46.963,0,0,0-.442-7.38,7.849,7.849,0,0,0-2.749-5.023,7.321,7.321,0,0,0-2.3-1.3,11.273,11.273,0,0,0-2.842-.46,5.783,5.783,0,0,0-5.063,2.044,39.723,39.723,0,0,0-3.178,4.8c-.787,1.323-1.415,2.741-2.11,4.118-.216.428-.431.856-.628,1.293q-1.21,2.675-2.405,5.357c-.194.438-.347.895-.522,1.341-.313.8-.625,1.591-.944,2.384-.115.286-.258.562-.375.847-.39.951-.781,1.9-1.159,2.859-.425,1.076-.835,2.159-1.252,3.238m22.887,11.419a2.724,2.724,0,0,0-.121-.548,13.4,13.4,0,0,0-5.3-5.977,23.779,23.779,0,0,0-4.779-1.873,14.552,14.552,0,0,0-4.377-.524,10.21,10.21,0,0,0-5.105,1.781,7.135,7.135,0,0,0-2.382,2.375,7,7,0,0,0-.842,5.748A5.076,5.076,0,0,0,923.89,108a12.038,12.038,0,0,0,5.586.446,38.608,38.608,0,0,0,6.922-1.518,22.084,22.084,0,0,0,3.017-1.309c1.361-.647,2.7-1.334,4.1-2.029" transform="translate(-797.96 -51.603)" fill-rule="evenodd"/><path d="M2423.519,99.334c-.244.348-.389.533-.511.731a20.935,20.935,0,0,1-4.393,5.412,19.656,19.656,0,0,1-7.118,3.808c-2.988.842-5.682.064-8.345-1.158a12.975,12.975,0,0,1-4.9-4.576,1.4,1.4,0,0,1-.208-.356c-.407-1.2-.83-2.389-1.2-3.6a3.987,3.987,0,0,1,.051-2.24c.278-1.025.415-2.093.741-3.1.484-1.492,1.061-2.956,1.637-4.416a19.284,19.284,0,0,1,1.074-2.336,34.72,34.72,0,0,1,2.277-3.775,15.067,15.067,0,0,1,5.235-4.735,9.483,9.483,0,0,1,3.252-.9,13.657,13.657,0,0,1,5.777.813,9.692,9.692,0,0,1,3.926,2.565c.9.943,1.836,1.857,2.726,2.811a8.538,8.538,0,0,1,.756,1.093c.361.538.719,1.077,1.191,1.785.387-.762.737-1.34.984-1.96.927-2.329,1.854-4.658,2.715-7.012s1.634-4.744,2.462-7.112c.361-1.034.862-2.029,1.124-3.085a68.812,68.812,0,0,1,2.628-7.353c.706-1.9,1.254-3.858,1.926-5.771.546-1.555,1.174-3.08,1.761-4.62.552-1.443,1.172-2.865,1.63-4.337a26.215,26.215,0,0,1,3.964-7.993,8.151,8.151,0,0,1,1.4-1.351.712.712,0,0,1,1.189.267,1.976,1.976,0,0,1,.229.782,17.052,17.052,0,0,1-1.062,7.077c-.536,1.41-.889,2.888-1.362,4.323-.774,2.347-1.592,4.68-2.369,7.027-.508,1.531-.959,3.081-1.469,4.612q-1.626,4.882-3.289,9.753c-.528,1.554-1.068,3.1-1.629,4.646-.469,1.287-.992,2.554-1.459,3.842-.162.447-.2.938-.344,1.391-.652,2.017-1.377,4.011-1.971,6.044-.48,1.645-.781,3.341-1.214,5a27.427,27.427,0,0,0-.638,9.524,4.026,4.026,0,0,0,3.388,3.766,3.852,3.852,0,0,0,2.276-.519,2.721,2.721,0,0,0,.713-.414,32.259,32.259,0,0,0,4.459-3.654,4.282,4.282,0,0,1,.781-.656c.293-.2.635-.337.943-.037a.919.919,0,0,1,.184,1.139,14.809,14.809,0,0,1-.985,1.916,26.555,26.555,0,0,1-2.2,2.968,23.5,23.5,0,0,1-3.781,3.155,13.571,13.571,0,0,1-2.586,1.454,5.318,5.318,0,0,1-3.552-.047,7.774,7.774,0,0,1-4.872-3.53,5.262,5.262,0,0,1-.438-1.021,14.771,14.771,0,0,1-1.151-4.884,2.216,2.216,0,0,0-.131-.6c-.034-.122-.095-.237-.225-.552m-8.588-15.781a10.328,10.328,0,0,0-1.3.235,6.951,6.951,0,0,0-3.235,2.116,27.281,27.281,0,0,0-4.859,7.107,25.241,25.241,0,0,0-1.754,4.819,5.921,5.921,0,0,0,.235,4.029c.261.513.478,1.094,1.076,1.317a6.664,6.664,0,0,0,3.124.478,15.514,15.514,0,0,0,2.764-.772,15.169,15.169,0,0,0,6.728-4.228,31.216,31.216,0,0,0,3.961-5,4.131,4.131,0,0,0,.557-4.033,9.929,9.929,0,0,0-4.081-5,6.059,6.059,0,0,0-3.214-1.058" transform="translate(-2149.056 -32.592)" fill-rule="evenodd"/><path d="M1791.153,74.013a19.285,19.285,0,0,1,.773-3.775c.409-1.527.814-3.055,1.237-4.579.257-.926.5-1.857.828-2.761.635-1.777,1.116-3.6,1.879-5.344,1.1-2.512,1.934-5.138,2.891-7.713,1.041-2.8,2.043-5.619,3.152-8.393,1.312-3.284,2.715-6.531,4.086-9.791.972-2.311,2.036-4.586,2.912-6.932,1.166-3.12,2.2-6.291,3.274-9.445q.948-2.783,1.844-5.583c.5-1.571.927-3.167,1.445-4.732a13.889,13.889,0,0,1,1.736-3.838c.779-1.087,1.412-1.325,2.437-.984a2.609,2.609,0,0,1,1.761,2.519c-.277,1.589-.422,3.207-.793,4.773-.706,2.975-1.512,5.927-2.318,8.878-.48,1.758-1.076,3.485-1.551,5.245a140.626,140.626,0,0,1-4.847,13.822c-.579,1.5-1.371,2.921-2.013,4.4s-1.231,2.982-1.826,4.482c-.823,2.073-1.647,4.145-2.439,6.23-.366.963-.655,1.955-.984,2.932-.36,1.071-.73,2.139-1.086,3.212-.141.423-.239.861-.388,1.281-.931,2.621-1.928,5.221-2.788,7.865-.529,1.629-.857,3.324-1.269,4.991a5.132,5.132,0,0,1-.108.609c-.654,1.682-.218,3.338.153,4.978a5.092,5.092,0,0,0,1.678,2.793,4.321,4.321,0,0,0,4.061.872,24.822,24.822,0,0,0,2.9-1.076,35.345,35.345,0,0,0,6.543-3.477c1.583-1.089,3.256-2.049,4.9-3.051,1.054-.643,2.1-1.3,3.192-1.878a33.583,33.583,0,0,1,8.012-3.221,14.062,14.062,0,0,1,6.04-.2,7.4,7.4,0,0,1,4.738,3.229c.428.624.875,1.235,1.3,1.857.346.5.337.842-.01,1.208a.835.835,0,0,1-1.2.124,6.933,6.933,0,0,1-1.445-1.156c-1.558-1.838-3.566-2.137-5.8-1.906a22.072,22.072,0,0,0-8.209,2.879c-1.96,1.059-3.888,2.19-5.746,3.417-1.316.869-2.459,1.993-3.733,2.93A39.291,39.291,0,0,1,1808,84.533a16,16,0,0,1-4.044,1.171c-3,.365-5.95.145-8.371-1.974a13.838,13.838,0,0,1-3.123-3.794,12.949,12.949,0,0,1-1.308-5.923" transform="translate(-1606.074 0.001)" fill-rule="evenodd"/></g></svg>