<?xml version="1.0" encoding="utf-8"?>
<!-- Generator: Adobe Illustrator 26.0.3, SVG Export Plug-In . SVG Version: 6.00 Build 0)  -->
<svg version="1.1" id="Layer_1" xmlns="http://www.w3.org/2000/svg" xmlns:xlink="http://www.w3.org/1999/xlink" x="0px" y="0px"
	 viewBox="0 0 298.5 85.8" style="enable-background:new 0 0 298.5 85.8;" xml:space="preserve">
<style type="text/css">
	.st0{clip-path:url(#SVGID_00000160881414292361979180000016909263049894858381_);}
	.st1{fill-rule:evenodd;clip-rule:evenodd;fill:#FCFCFC;}
</style>
<g>
	<defs>
		<rect id="SVGID_1_" width="298.5" height="85.8"/>
	</defs>
	<clipPath id="SVGID_00000086650418285435027620000010954326252819069631_">
		<use xlink:href="#SVGID_1_"  style="overflow:visible;"/>
	</clipPath>
	<g style="clip-path:url(#SVGID_00000086650418285435027620000010954326252819069631_);">
		<path class="st1" d="M36.6,66.5c-0.5,0.9-1,1.6-1.4,2.3C34.5,69.9,33.8,71,33,72c-1,1.4-2.3,2.6-3.6,3.6c-1.1,0.9-2.2,1.7-3.5,2.3
			c-0.9,0.4-1.7,0.8-2.5,1.1c-3.7,1.2-7.6,1-11.2-0.5c-1.4-0.7-2.7-1.6-3.8-2.6c-2.4-2-4-4.9-4.4-8.1c-0.2-1.7-0.2-3.4,0-5.1
			c0.3-2.5,0.9-4.9,1.8-7.3c0.8-2.4,1.7-4.8,2.6-7.2c0.5-1.5,1.1-3,1.7-4.4c0.5-1.3,1.1-2.6,1.6-3.9c0.7-2,1.4-4,2-6
			c1-3,1.9-6.1,2.8-9.2c0.2-0.7,0.2-1.4,0.4-2.1c0.5-2.2,0.6-4.5,0.3-6.8c-0.3-2.1-2.7-4.4-5.3-3.5c-1.5,0.5-2.8,1.5-3.8,2.7
			c-1.7,2.1-3.3,4.2-5,6.3c-0.4,0.5-0.8,0.9-1.2,1.3c-0.3,0.2-0.6,0.4-1,0.4c-0.4,0.1-0.8-0.2-0.9-0.6c0-0.1,0-0.2,0-0.4
			c0.1-0.5,0.3-0.9,0.5-1.3c1.8-3.1,3.9-6,6.2-8.6c0.9-1.1,2-2,3.2-2.8c2.7-1.7,5.5-2.6,8.6-1.3c1.7,0.6,3.2,1.8,4.2,3.3
			c0.6,1.1,1,2.2,1.3,3.4c0.4,1.9,0.5,3.8,0.2,5.6c-0.1,1.1-0.1,2.3-0.3,3.4c-0.3,2-0.7,4.1-1.2,6.1c-0.8,2.9-1.7,5.9-2.7,8.8
			c-0.8,2.5-1.6,5-2.5,7.4c-0.6,1.7-1.2,3.4-1.8,5.1c-0.5,1.4-1.1,2.8-1.6,4.3c-0.8,2.1-1.2,4.4-1.3,6.7c-0.1,1.9,0.4,3.7,1.3,5.4
			c0.9,1.4,2.3,2.3,4,2.5c1.2,0.1,2.3,0.1,3.5,0c1.6-0.2,3.1-1,4.1-2.3c1.4-1.5,2.7-3.1,3.9-4.7c0.6-0.8,1.2-1.6,1.6-2.5
			c1.5-2.5,3-5,4.4-7.6c0.7-1.3,1.2-2.6,1.8-3.9c1.6-3.2,2.9-6.5,4.1-9.9c0.9-2.5,1.7-5.1,2.6-7.6c0.6-1.9,1.3-3.8,1.9-5.8
			c0.6-1.8,1-3.6,1.6-5.3c0.4-1.3,1-2.4,1.8-3.4c0.6-0.9,1.8-1.3,2.8-1c0.7,0.2,1.3,0.8,1.4,1.5c0.2,0.8,0.1,1.7-0.2,2.5
			c-0.7,2.5-1.4,5-2.2,7.5c-1.1,3.8-2.2,7.5-3.3,11.3c-0.6,2.1-1.3,4.3-2.1,6.4c-0.6,1.7-1.2,3.4-1.8,5.2c-0.6,1.6-1.3,3.3-1.8,4.9
			c-0.1,0.4-0.1,0.8-0.1,1.2c0,0.3,0.1,0.6,0.1,0.9c0.1,3.1,0.8,6.2,2.1,9.1c1.2,2.6,2.6,3.7,6.3,3.4c0.5,0,1-0.2,1.5-0.3
			c1.6-0.2,3-1,3.9-2.2c1.5-1.5,2.7-3.3,3.5-5.3c0.9-2.3,2-4.5,2.9-6.8c0.8-2.1,1.7-4.2,2.4-6.4c0.6-2,1.3-3.9,1.9-5.9
			c0.7-2.1,1.1-4.3,1.7-6.4c0.3-1.2,0.7-2.3,1.1-3.4c0.4-1.4,0.8-2.8,1.2-4.2c0.6-1.9,1.2-3.7,1.9-5.6c0.5-1.5,1.1-2.9,1.8-4.3
			c1.1-2.1,2.1-4.3,4-5.9c0.5-0.4,0.8-0.9,1.3-1.3c2.6-2.1,6.2-2.7,9.3-1.4c1.7,0.7,3.2,2,4.1,3.6c1.2,2.2,1.7,4.8,1.3,7.3
			c-0.3,2.5-0.7,4.9-1.1,7.3c-0.2,1.2-0.5,2.3-0.8,3.5c-0.2,0.9-0.6,1.2-1.2,1.2c-0.7-0.1-1.3-0.7-1.2-1.4c0-1.1,0.2-2.3,0.2-3.4
			c0.1-2.5,0.7-5.1,0.5-7.6c-0.1-1.2-0.2-2.4-0.4-3.6c-0.5-2.1-2.7-3.3-4.8-2.8c-0.3,0.1-0.6,0.2-0.8,0.3c-1.1,0.5-2,1.5-2.6,2.6
			c-1.6,3.3-3,6.6-4.2,10.1c-0.8,2.4-1.5,4.8-2.2,7.2c-0.6,1.9-1.2,3.9-1.7,5.8c-0.9,3.1-1.8,6.1-2.5,9.3c-0.2,1-0.5,1.9-0.9,2.8
			c-0.7,2.2-1.5,4.5-2.2,6.7c-1.2,3.9-2.9,7.5-5.2,10.8c-1.7,2.5-3.7,4.7-5.9,6.7c-1.3,1.2-3,1.9-4.7,2.2c-2.1,0.3-4.2,0.4-6.3,0.3
			c-2.4-0.2-4.5-1.4-6-3.3c-0.8-1.1-1.5-2.2-2.1-3.4c-0.8-1.7-1.4-3.5-1.7-5.4C36.8,67.2,36.7,66.9,36.6,66.5"/>
		<path class="st1" d="M145.1,59c-0.8,0.2-1.6,0.5-2.3,0.8c-1.9,0.9-3.8,1.5-5.8,2c-1.7,0.6-3.5,0.9-5.3,1.1
			c-2.8,0.4-5.7,0.2-8.4-0.5c-1-0.3-2-0.7-3-1.2c-1.6-0.8-2.4-2.3-3.1-3.8c-0.1-0.2-0.2-0.5-0.2-0.7c0-0.1-0.1-0.1-0.2-0.1
			c-0.5,0.2-0.6,0.8-0.8,1.2c-1.3,2.8-2.5,5.7-3.9,8.4c-1.3,2.7-2.8,5.3-4.6,7.7c-0.9,1.4-2.1,2.6-3.5,3.6c-1.2,0.8-2.6,1.2-4.1,1.3
			c-1.7,0.2-3.3-0.2-4.7-1.1c-2-1.2-3.2-3.3-3.2-5.6c0.1-2.5,0.5-5.1,1.4-7.5c0.1-0.3,0.2-0.6,0.4-0.8c0.2-0.5,0.8-0.7,1.3-0.5
			c0.5,0.2,0.8,0.8,0.7,1.4c-0.1,0.6-0.3,1.3-0.5,1.9c-0.4,1.6-0.6,3.2-0.5,4.8c0,1.6,1.2,2.8,2.8,2.9c2.4,0.1,4.7-1.2,5.7-3.4
			c1.6-3.1,2.8-6.4,4.1-9.7c0.7-1.8,1.6-3.5,2.4-5.4c1-2.5,1.9-5.1,2.9-7.6c0.5-1.3,1-2.5,1.5-3.7c0.3-0.6,0.4-1.3,0.7-1.9
			c0.5-1.3,1.1-2.6,1.6-3.9c0.8-2.1,1.6-4.2,2.4-6.2c1.7-4.2,3.2-8.4,5.1-12.5c0.9-2.4,2.1-4.6,3.7-6.7c0.6-0.8,1.2-1.7,1.7-2.6
			c1.1-1.6,2.6-2.8,4.4-3.4c3.2-1.3,6.7-1.6,10.1-0.9c1.6,0.2,3.2,0.7,4.7,1.5c1.7,0.9,3.1,2.3,4.1,4c0.4,0.8,0.9,1.5,1.3,2.2
			c0.8,1.6,1.3,3.3,1.3,5.1c0,0.9,0.1,1.8,0.1,2.7c-0.1,2.8-0.3,5.6-0.5,8.4c-0.1,1.8-0.2,3.6-0.4,5.4c-0.1,2.2-0.3,4.3-0.5,6.5
			c-0.1,1.2-0.2,2.3-0.3,3.6c0.2-0.1,0.4-0.2,0.6-0.3c0.8-0.7,1.6-1.4,2.4-2.1c1.1-1.1,2.2-2.2,3.4-3.4c1.2-1.2,2.5-2.4,3.6-3.7
			c1.6-1.8,3.1-3.7,4.4-5.7c0.5-0.8,0.8-1,1.2-0.8c0.5,0.2,0.7,0.7,0.3,1.5c-0.5,1.2-1.1,2.4-1.8,3.5c-1,1.7-2,3.3-3.1,5
			c-0.8,1.2-1.6,2.3-2.5,3.4c-1.3,1.7-2.6,3.4-4,5c-1.1,1.3-2.4,2.4-3.6,3.6c-0.5,0.5-1.1,1.1-1.6,1.6c-0.2,0.3-0.4,0.6-0.4,0.9
			c-0.3,2.3-0.6,4.6-0.8,6.9c-0.3,2.6-0.5,5.3-0.8,7.9c-0.1,1.2-0.2,2.4-0.2,3.6c-0.1,1.8,1.2,2.9,3.2,2.7c0.5-0.1,1-0.2,1.4-0.5
			c1.4-0.8,2.7-1.9,3.8-3.1c1.2-1.2,2.4-2.3,3.6-3.4c0.3-0.3,0.7-0.4,1-0.1c0.3,0.2,0.5,0.6,0.3,1c0,0.2-0.1,0.3-0.2,0.5
			c-0.8,1.1-1.7,2.2-2.6,3.2c-1.2,1.4-2.5,2.8-3.7,4.3c-1.3,1.5-3,2.6-4.9,3.3c-0.2,0.1-0.5,0.1-0.7,0.1c-2.6,0.1-5-0.9-6.7-2.8
			c-0.7-0.8-1.1-1.8-1.1-2.8c0-1.9,0.1-3.8,0.1-5.7c0-0.9,0.1-1.7,0.2-2.6c0.1-1.5,0.2-2.9,0.4-4.4C144.9,61.2,145,60.2,145.1,59
			 M122.7,40.6l0.2,0.2c0.4-0.3,0.7-0.5,1.1-0.8c0.8-0.6,1.8-1.1,2.7-1.4c2.4-0.6,4.9-0.8,7.4-0.6c2.1,0.1,4.1,0.7,5.9,1.7
			c1.5,0.9,2.9,1.9,4.2,2.9c0.8,0.7,1.5,1.4,2.2,2.2c0.2,0.3,0.5,0.5,0.9,1c0.1-0.5,0.3-1.1,0.4-1.6c0.2-1.8,0.4-3.6,0.5-5.4
			c0.1-1.3,0.2-2.5,0.3-3.8c0.1-2.9,0.3-5.7,0.3-8.6c0-2.5-0.1-4.9-0.4-7.4c-0.3-2-1.2-3.8-2.7-5c-0.7-0.6-1.5-1-2.3-1.3
			c-0.9-0.3-1.9-0.4-2.8-0.5c-1.9-0.2-3.8,0.6-5.1,2c-1.2,1.5-2.2,3.1-3.2,4.8c-0.8,1.3-1.4,2.7-2.1,4.1c-0.2,0.4-0.4,0.9-0.6,1.3
			c-0.8,1.8-1.6,3.6-2.4,5.4c-0.2,0.4-0.3,0.9-0.5,1.3c-0.3,0.8-0.6,1.6-0.9,2.4c-0.1,0.3-0.3,0.6-0.4,0.8c-0.4,1-0.8,1.9-1.2,2.9
			C123.5,38.4,123.1,39.5,122.7,40.6 M145.6,52c0-0.2-0.1-0.4-0.1-0.5c-1.1-2.5-3-4.6-5.3-6c-1.5-0.8-3.1-1.4-4.8-1.9
			c-1.4-0.4-2.9-0.6-4.4-0.5c-1.8,0.1-3.6,0.7-5.1,1.8c-1,0.6-1.8,1.4-2.4,2.4c-1.1,1.7-1.4,3.8-0.8,5.7c0.5,1.6,1.7,2.9,3.3,3.4
			c1.8,0.6,3.7,0.7,5.6,0.4c2.3-0.3,4.7-0.8,6.9-1.5c1-0.4,2-0.8,3-1.3C142.8,53.4,144.2,52.7,145.6,52"/>
		<path class="st1" d="M274.5,66.7c-0.2,0.3-0.4,0.5-0.5,0.7c-1.2,2-2.6,3.9-4.4,5.4c-2.1,1.7-4.5,3-7.1,3.8c-3,0.8-5.7,0.1-8.3-1.2
			c-2-1.1-3.7-2.6-4.9-4.6c-0.1-0.1-0.2-0.2-0.2-0.4c-0.4-1.2-0.8-2.4-1.2-3.6c-0.2-0.7-0.2-1.5,0.1-2.2c0.3-1,0.4-2.1,0.7-3.1
			c0.5-1.5,1.1-3,1.6-4.4c0.3-0.8,0.7-1.6,1.1-2.3c0.7-1.3,1.4-2.6,2.3-3.8c1.3-2,3.1-3.6,5.2-4.7c1-0.5,2.1-0.8,3.3-0.9
			c2-0.1,3.9,0.1,5.8,0.8c1.5,0.5,2.8,1.4,3.9,2.6c0.9,0.9,1.8,1.9,2.7,2.8c0.3,0.3,0.5,0.7,0.8,1.1c0.4,0.5,0.7,1.1,1.2,1.8
			c0.4-0.8,0.7-1.3,1-2c0.9-2.3,1.9-4.7,2.7-7s1.6-4.7,2.5-7.1c0.4-1,0.9-2,1.1-3.1c0.7-2.5,1.6-5,2.6-7.4c0.7-1.9,1.3-3.9,1.9-5.8
			c0.5-1.6,1.2-3.1,1.8-4.6c0.6-1.4,1.2-2.9,1.6-4.3c0.9-2.9,2.2-5.6,4-8c0.4-0.5,0.9-1,1.4-1.4c0.3-0.3,0.7-0.3,1,0
			c0.1,0.1,0.1,0.2,0.2,0.3c0.1,0.2,0.2,0.5,0.2,0.8c0.2,2.4-0.2,4.8-1.1,7.1c-0.5,1.4-0.9,2.9-1.4,4.3c-0.8,2.3-1.6,4.7-2.4,7
			c-0.5,1.5-1,3.1-1.5,4.6c-1.1,3.3-2.2,6.5-3.3,9.8c-0.5,1.6-1.1,3.1-1.6,4.6c-0.5,1.3-1,2.6-1.5,3.8c-0.2,0.4-0.2,0.9-0.3,1.4
			c-0.7,2-1.4,4-2,6c-0.5,1.6-0.8,3.3-1.2,5c-0.8,3.1-1,6.3-0.6,9.5c0.1,1.9,1.5,3.5,3.4,3.8c0.8,0.1,1.6-0.1,2.3-0.5
			c0.3-0.1,0.5-0.2,0.7-0.4c1.6-1.1,3.1-2.3,4.5-3.7c0.2-0.2,0.5-0.5,0.8-0.7c0.3-0.2,0.6-0.3,0.9,0c0.3,0.3,0.4,0.8,0.2,1.1
			c-0.3,0.7-0.6,1.3-1,1.9c-0.7,1-1.4,2-2.2,3c-1.1,1.2-2.4,2.2-3.8,3.2c-0.8,0.6-1.7,1.1-2.6,1.5c-1.2,0.4-2.4,0.4-3.6,0
			c-2-0.5-3.8-1.7-4.9-3.5c-0.2-0.3-0.3-0.7-0.4-1c-0.7-1.6-1-3.2-1.2-4.9c0-0.2-0.1-0.4-0.1-0.6C274.7,67.2,274.6,67.1,274.5,66.7
			 M265.9,51c-0.4,0.1-0.9,0.1-1.3,0.2c-1.3,0.4-2.4,1.1-3.2,2.1c-2,2.1-3.6,4.5-4.9,7.1c-0.7,1.5-1.3,3.2-1.8,4.8
			c-0.4,1.3-0.3,2.8,0.2,4c0.3,0.5,0.5,1.1,1.1,1.3c1,0.4,2.1,0.6,3.1,0.5c0.9-0.2,1.9-0.4,2.8-0.8c2.6-0.8,4.9-2.2,6.7-4.2
			c1.5-1.5,2.8-3.2,4-5c0.9-1.2,1.1-2.7,0.6-4c-0.8-2.1-2.2-3.8-4.1-5C268.1,51.4,267,51,265.9,51"/>
		<path class="st1" d="M185.1,74c0.1-1.3,0.4-2.5,0.8-3.8c0.4-1.5,0.8-3.1,1.2-4.6c0.3-0.9,0.5-1.9,0.8-2.8c0.6-1.8,1.1-3.6,1.9-5.3
			c1.1-2.5,1.9-5.1,2.9-7.7c1-2.8,2-5.6,3.2-8.4c1.3-3.3,2.7-6.5,4.1-9.8c1-2.3,2-4.6,2.9-6.9c1.2-3.1,2.2-6.3,3.3-9.4
			c0.6-1.9,1.2-3.7,1.8-5.6c0.5-1.6,0.9-3.2,1.4-4.7c0.4-1.4,1-2.7,1.7-3.8c0.8-1.1,1.4-1.3,2.4-1c1.1,0.4,1.8,1.4,1.8,2.5
			c-0.3,1.6-0.4,3.2-0.8,4.8c-0.7,3-1.5,5.9-2.3,8.9c-0.5,1.8-1.1,3.5-1.6,5.2c-1.4,4.7-3,9.3-4.8,13.8c-0.6,1.5-1.4,2.9-2,4.4
			s-1.2,3-1.8,4.5c-0.8,2.1-1.6,4.1-2.4,6.2c-0.4,1-0.7,2-1,2.9c-0.4,1.1-0.7,2.1-1.1,3.2c-0.1,0.4-0.2,0.9-0.4,1.3
			c-0.9,2.6-1.9,5.2-2.8,7.9c-0.5,1.6-0.9,3.3-1.3,5c0,0.2-0.1,0.4-0.1,0.6c-0.7,1.7-0.2,3.3,0.2,5c0.2,1.1,0.8,2.1,1.7,2.8
			c1.1,1,2.6,1.3,4.1,0.9c1-0.3,2-0.7,2.9-1.1c2.3-0.9,4.5-2.1,6.5-3.5c1.6-1.1,3.3-2,4.9-3.1c1.1-0.6,2.1-1.3,3.2-1.9
			c2.5-1.4,5.2-2.5,8-3.2c2-0.5,4-0.6,6-0.2c1.9,0.4,3.7,1.6,4.7,3.2c0.4,0.6,0.9,1.2,1.3,1.9c0.3,0.5,0.3,0.8,0,1.2
			c-0.3,0.4-0.8,0.4-1.2,0.1c0,0,0,0,0,0c-0.5-0.3-1-0.7-1.4-1.2c-1.6-1.8-3.6-2.1-5.8-1.9c-2.9,0.4-5.7,1.4-8.2,2.9
			c-2,1.1-3.9,2.2-5.7,3.4c-1.3,0.9-2.5,2-3.7,2.9c-2.6,1.9-5.4,3.6-8.4,4.8c-1.3,0.6-2.7,1-4,1.2c-3,0.4-5.9,0.1-8.4-2
			c-1.3-1.1-2.3-2.4-3.1-3.8C185.5,78.1,185,76.1,185.1,74"/>
	</g>
</g>
</svg>
